<svg version="1.1" viewBox="0.0 0.0 849.6509186351706 222.7742782152231" fill="none" stroke="none" stroke-linecap="square" stroke-miterlimit="10" xmlns:xlink="http://www.w3.org/1999/xlink" xmlns="http://www.w3.org/2000/svg"><clipPath id="p.0"><path d="m0 0l849.65094 0l0 222.77428l-849.65094 0l0 -222.77428z" clip-rule="nonzero"/></clipPath><g clip-path="url(#p.0)"><path fill="#000000" fill-opacity="0.0" d="m0 0l849.65094 0l0 222.77428l-849.65094 0z" fill-rule="evenodd"/><path fill="#ffffff" d="m8.76378 87.66356l228.18898 0l0 118.77165l-228.18898 0z" fill-rule="evenodd"/><path stroke="#fdb2b7" stroke-width="2.0" stroke-linejoin="round" stroke-linecap="butt" d="m8.76378 87.66356l228.18898 0l0 118.77165l-228.18898 0z" fill-rule="evenodd"/><path fill="#000000" d="m57.686394 130.09439l0 3.875q0.28125 -0.515625 0.796875 -0.515625q0.625 0 2.78125 1.40625q2.15625 1.40625 2.15625 1.96875q0 1.0 -0.984375 1.0q-0.3125 0 -1.0625 -0.5625q-0.734375 -0.578125 -3.234375 -2.265625q-0.34375 -0.234375 -0.453125 -0.40625l0 8.734375q0 1.140625 -0.90625 1.140625q-0.890625 0 -0.890625 -1.140625l0 -13.234375l-5.859375 0q-1.046875 0 -1.046875 -0.859375q0 -0.875 1.046875 -0.875l15.0625 0q1.046875 0 1.046875 0.875q0 0.859375 -1.046875 0.859375l-7.40625 0zm19.953125 3.953125l3.65625 0q0.75 0.015625 0.734375 -0.734375l0 -2.71875q0.015625 -0.75 -0.734375 -0.71875l-5.109375 0q-0.953125 0 -0.953125 -0.765625q0 -0.765625 0.953125 -0.765625l5.640625 0q1.890625 -0.109375 1.765625 1.703125l0 3.734375q0.109375 1.90625 -1.75 1.796875l-3.75 0q-0.65625 0.015625 -0.65625 0.65625l0 5.265625q0 0.71875 0.9375 0.78125l2.421875 0.03125q1.65625 0 1.984375 -0.359375q0.203125 -0.234375 0.296875 -1.234375q0.09375 -1.0 0.859375 -1.0q0.875 0 0.875 1.03125q0 1.78125 -0.78125 2.53125q-0.59375 0.578125 -3.671875 0.578125q-2.34375 0 -3.171875 -0.125q-1.3125 -0.203125 -1.3125 -1.515625l0 -6.375q-0.109375 -1.90625 1.765625 -1.796875zm-3.46875 8.15625q0 1.46875 -1.46875 1.46875l-2.8125 0q-1.46875 0 -1.46875 -1.46875l0 -2.609375q0 -1.46875 1.46875 -1.46875l2.8125 0q1.46875 0 1.46875 1.46875l0 2.609375zm-3.859375 0.203125l1.96875 0q0.515625 -0.015625 0.53125 -0.53125l0 -1.953125q-0.015625 -0.5 -0.53125 -0.53125l-1.96875 0q-0.5 0.03125 -0.53125 0.53125l0 1.953125q0.03125 0.515625 0.53125 0.53125zm-1.234375 -12.9375q-0.75 0 -0.75 -0.671875q0 -0.671875 0.75 -0.671875l4.421875 0q0.765625 0 0.765625 0.671875q0 0.671875 -0.765625 0.671875l-4.421875 0zm-0.6875 2.515625q-0.75 0 -0.75 -0.671875q0 -0.671875 0.75 -0.671875l5.8125 0q0.734375 0 0.734375 0.671875q0 0.671875 -0.734375 0.671875l-5.8125 0zm0.71875 2.46875q-0.71875 0 -0.71875 -0.640625q0 -0.65625 0.71875 -0.65625l4.375 0q0.734375 0 0.734375 0.65625q0 0.640625 -0.734375 0.640625l-4.375 0zm0 2.5q-0.71875 0 -0.71875 -0.65625q0 -0.65625 0.71875 -0.65625l4.375 0q0.734375 0 0.734375 0.65625q0 0.65625 -0.734375 0.65625l-4.375 0zm31.265625 -7.546875q0.671875 0 1.140625 0.46875q0.46875 0.46875 0.46875 1.234375q0 1.28125 -1.015625 3.78125q-1.0 2.5 -2.75 4.359375q-1.734375 1.84375 -4.21875 3.03125q-2.484375 1.171875 -3.578125 1.171875q-0.90625 0 -0.90625 -0.890625q0 -0.453125 0.328125 -0.625q0.34375 -0.171875 1.484375 -0.5q2.859375 -0.84375 5.21875 -3.015625q2.359375 -2.1875 3.40625 -5.875q0.171875 -0.5625 0.171875 -0.796875q0 -0.625 -0.765625 -0.625l-10.5 0q-1.046875 0 -1.046875 -0.859375q0 -0.859375 1.046875 -0.859375l11.515625 0zm15.859375 6.5l0.140625 6.546875q0.03125 1.40625 -2.53125 1.40625q-1.09375 0 -1.09375 -0.96875q0 -0.71875 0.953125 -0.734375q0.96875 -0.03125 1.03125 -0.1875q0.046875 -0.078125 0.046875 -0.359375l-0.078125 -4.484375q-1.21875 1.96875 -3.25 3.734375q-2.015625 1.75 -2.828125 1.75q-0.78125 0 -0.78125 -0.8125q0 -0.453125 0.8125 -0.90625q3.125 -1.75 5.140625 -4.984375l-5.125 0q-0.953125 0 -0.953125 -0.765625q0 -0.796875 0.953125 -0.796875l5.96875 0l-0.03125 -1.953125q-0.015625 -0.859375 0.765625 -0.859375q0.765625 0 0.78125 0.875l0.046875 1.9375l2.703125 0q0.96875 0 0.96875 0.796875q0 0.765625 -0.96875 0.765625l-2.671875 0zm22.749992 -1.046875q1.078125 0 1.078125 0.875q0 0.859375 -1.078125 0.859375l-13.593742 0q-1.078125 0 -1.078125 -0.875q0 -0.859375 1.078125 -0.859375l13.593742 0zm17.34375 6.171875q-3.625 0.71875 -10.359375 1.34375l-1.40625 0.171875l-0.53125 0.046875q-0.96875 0 -0.96875 -0.9375q0 -0.875 1.421875 -0.875l0.734375 -0.015625l0.125 -0.28125q2.578125 -5.953125 4.09375 -11.265625q0.265625 -0.875 0.96875 -0.875q0.890625 0 0.890625 0.8125q0 0.53125 -0.8125 2.84375q-1.328125 3.796875 -3.296875 8.21875l-0.171875 0.40625l5.5625 -0.578125l3.0 -0.40625q-1.40625 -2.515625 -2.46875 -3.921875q-0.4375 -0.546875 -0.4375 -0.84375q0 -0.75 0.765625 -0.75q0.4375 0 1.15625 0.90625q0.71875 0.90625 2.40625 3.71875q1.703125 2.8125 1.703125 3.515625q0 0.859375 -0.90625 0.859375q-0.59375 0 -0.984375 -1.0l-0.484375 -1.09375zm8.1875 -12.6875q0.78125 0 0.78125 0.71875q0 0.375 -0.15625 0.96875q-0.578125 2.375 -0.578125 6.234375q0 3.0 0.453125 5.953125l0.03125 0.421875q0 0.8125 -0.828125 0.8125q-0.671875 0 -0.890625 -0.71875q-0.15625 -0.53125 -0.34375 -2.59375q-0.1875 -2.078125 -0.1875 -3.453125q0 -3.859375 0.65625 -7.078125q0.25 -1.265625 1.0625 -1.265625zm9.40625 3.234375q-2.84375 0 -5.171875 0.53125l-0.484375 0.078125q-0.65625 0 -0.65625 -0.71875q0 -0.796875 1.328125 -1.03125q3.078125 -0.546875 5.75 -0.546875q1.859375 0 1.859375 0.875q0 0.890625 -1.0 0.890625l-1.625 -0.078125zm-5.59375 4.796875q0.734375 0 0.734375 0.65625l-0.09375 0.46875q-0.171875 0.53125 -0.171875 1.046875q0 2.03125 4.734375 2.03125l1.171875 -0.015625l1.46875 -0.109375q0.8125 0 0.8125 0.796875q0 0.625 -0.609375 0.828125q-0.609375 0.203125 -2.359375 0.203125q-2.5625 0 -3.96875 -0.3125q-1.40625 -0.328125 -2.15625 -1.234375q-0.734375 -0.90625 -0.734375 -2.296875q0 -2.0625 1.171875 -2.0625zm22.03125 -5.234375l-8.96875 0.34375l-0.15625 0q-0.90625 -0.03125 -0.90625 -0.828125q0 -0.78125 0.953125 -0.828125l14.09375 -0.46875q0.71875 -0.03125 0.71875 0.75q0 0.453125 -0.390625 0.65625q-0.28125 0.15625 -1.609375 0.28125q-2.296875 0.21875 -4.4375 2.109375q-2.140625 1.875 -2.140625 4.25q0 1.640625 1.3125 2.859375q1.328125 1.203125 3.390625 1.671875q0.984375 0.21875 0.984375 0.90625q0 0.9375 -0.96875 0.9375q-0.65625 0 -2.109375 -0.5625q-4.390625 -1.703125 -4.390625 -5.5625q0 -1.921875 1.296875 -3.734375q1.3125 -1.828125 3.328125 -2.78125z" fill-rule="nonzero"/><path fill="#000000" d="m52.95202 153.70377l0 11.828125q0 0.9375 -0.765625 0.9375q-0.765625 0 -0.765625 -0.9375l0 -8.8125q-1.28125 2.34375 -1.765625 2.34375q-0.671875 0 -0.671875 -0.875q0 -0.3125 0.421875 -0.921875q2.03125 -2.984375 3.09375 -6.484375q0.328125 -1.078125 0.53125 -1.28125q0.21875 -0.203125 0.578125 -0.203125q0.796875 0 0.796875 0.671875q0 0.546875 -1.453125 3.734375zm5.796875 2.40625q-0.828125 2.40625 -2.4375 4.765625q-1.59375 2.34375 -2.21875 2.34375q-0.78125 0 -0.78125 -0.8125q0 -0.375 0.71875 -1.15625q3.046875 -3.34375 4.15625 -6.75l-3.46875 0q-0.90625 0 -0.90625 -0.765625q0 -0.765625 0.90625 -0.765625l4.03125 0l0 -2.703125q0 -0.96875 0.734375 -0.96875q0.75 0 0.75 0.96875l0 2.703125l4.640625 0q0.921875 0 0.921875 0.765625q0 0.765625 -0.921875 0.765625l-4.234375 0q1.421875 3.65625 4.9375 6.890625q0.5625 0.546875 0.5625 0.9375q0 0.890625 -0.8125 0.890625q-0.640625 0 -2.390625 -2.265625q-1.734375 -2.265625 -2.703125 -4.78125l0 5.546875l2.140625 0q0.78125 0 0.78125 0.734375q0 0.71875 -0.78125 0.71875l-2.140625 0l0 2.359375q0 0.9375 -0.75 0.9375q-0.734375 0 -0.734375 -0.9375l0 -2.359375l-1.921875 0q-0.796875 0 -0.796875 -0.71875q0 -0.734375 0.796875 -0.734375l1.921875 0l0 -5.609375zm24.09375 -1.234375q0 0.671875 -0.6875 0.671875l-1.6875 0l-0.015625 1.1875l2.0625 0q1.5 0 1.5 1.515625l0 1.65625q0 1.515625 -1.5 1.515625l-1.8125 0q0.828125 1.9375 3.21875 3.25q0.734375 0.40625 0.734375 0.828125q0 0.8125 -0.6875 0.8125q-0.75 0 -2.046875 -1.125q-1.296875 -1.109375 -2.0 -2.828125q-0.484375 1.578125 -1.8125 2.796875q-1.328125 1.234375 -2.3125 1.234375q-0.6875 0 -0.6875 -0.765625q0 -0.4375 0.703125 -0.765625q2.578125 -1.078125 3.078125 -3.4375l-1.453125 0q-1.453125 0 -1.453125 -1.484375l0 -1.75q0 -1.453125 1.453125 -1.453125l1.75 0l0 -1.1875l-1.734375 0q-0.59375 -0.03125 -0.59375 -0.703125q-0.984375 1.0 -1.40625 1.0q-0.640625 0 -0.640625 -0.671875q0 -0.3125 1.03125 -1.171875q2.0 -1.78125 3.296875 -4.109375q0.28125 -0.5 0.71875 -0.5q0.703125 0 0.703125 0.578125q0 0.15625 -0.15625 0.421875q1.640625 2.328125 3.625 3.515625q0.765625 0.453125 0.765625 0.890625q0 0.796875 -0.640625 0.796875q-0.390625 0 -1.3125 -0.71875zm-0.671875 -0.546875q-1.34375 -1.203125 -2.4375 -2.859375l-0.921875 1.28125l-1.453125 1.59375l4.8125 -0.015625zm-3.078125 5.875l0.09375 -2.265625l-1.421875 0q-0.546875 0.015625 -0.546875 0.5625l0 1.15625q0 0.515625 0.546875 0.546875l1.328125 0zm1.21875 0l1.84375 0q0.5625 -0.03125 0.578125 -0.59375l0 -1.09375q-0.015625 -0.5625 -0.578125 -0.578125l-1.734375 0l-0.109375 2.265625zm-6.40625 2.640625q-0.140625 0.140625 -0.328125 0.140625q-0.34375 0 -0.515625 -0.609375l-0.546875 -1.75q0 -0.375 0.40625 -0.375q0.40625 0 1.03125 1.984375l0.03125 0.078125l0.0625 -0.953125l0 -0.3125l0.0625 -0.8125q0 -0.515625 -0.640625 -0.515625l-3.4375 0q-1.671875 0 -1.59375 -1.578125l0 -6.515625q-0.078125 -1.578125 1.59375 -1.578125l4.890625 0q0.71875 0 0.71875 0.625q0 0.609375 -0.71875 0.609375l-2.0625 0l0 1.59375l1.453125 0q0.71875 0 0.71875 0.59375q0 0.59375 -0.71875 0.59375l-1.453125 0l0 1.609375l1.453125 0q0.71875 0 0.71875 0.609375q0 0.578125 -0.71875 0.578125l-1.453125 0l0 1.671875l1.15625 0q1.359375 0 1.359375 1.25q0 0.796875 -0.25 2.953125q-0.25 2.140625 -0.796875 2.859375q-0.53125 0.71875 -2.078125 0.71875q-0.75 0 -0.75 -0.734375q0 -0.71875 0.59375 -0.71875l0.625 0.015625q0.953125 0 1.1875 -2.03125zm-2.28125 -9.96875l0 -1.59375l-1.3125 0q-0.5625 0.015625 -0.5625 0.5625l0 1.03125l1.875 0zm0 1.1875l-1.875 0l0 1.609375l1.875 0l0 -1.609375zm0 2.796875l-1.875 0l0 1.109375q0.015625 0.546875 0.5625 0.5625l1.3125 0l0 -1.671875zm-3.078125 3.734375q0.515625 0 0.515625 0.796875q0 3.3125 -0.84375 3.3125q-0.578125 0 -0.578125 -0.609375l0.0625 -0.359375q0.28125 -1.03125 0.296875 -2.265625q0.03125 -0.875 0.546875 -0.875zm1.484375 0.0625q0.359375 0 0.453125 0.359375q0.390625 1.453125 0.390625 2.5q0 0.546875 -0.546875 0.546875q-0.484375 0 -0.515625 -0.65625q-0.0625 -1.296875 -0.25 -2.234375l0 -0.0625q0 -0.453125 0.46875 -0.453125zm1.453125 -0.1875q0.265625 0 0.359375 0.203125q0.09375 0.203125 0.40625 1.21875l0.265625 1.171875q0 0.453125 -0.46875 0.453125q-0.390625 0 -0.515625 -0.71875l-0.328125 -1.4375l-0.125 -0.484375q0 -0.40625 0.40625 -0.40625zm20.5 2.765625q0.25 0 1.796875 -0.65625q1.5625 -0.671875 2.828125 -1.5625q1.265625 -0.890625 2.390625 -2.140625q1.125 -1.25 1.734375 -2.5625q0.609375 -1.328125 1.1875 -1.328125q0.84375 0 0.84375 0.859375q0 0.703125 -1.40625 2.671875q-1.40625 1.953125 -3.03125 3.3125q-1.625 1.359375 -3.875 2.40625q-2.25 1.03125 -3.15625 1.03125q-0.671875 0 -1.140625 -0.46875q-0.453125 -0.484375 -0.453125 -1.15625l0 -12.015625q0 -1.046875 0.875 -1.046875q0.859375 0 0.859375 1.046875l0 10.921875q0 0.6875 0.546875 0.6875zm16.625 -8.1875q0.5625 0 1.46875 1.609375q0.921875 1.59375 0.921875 2.015625q0 0.78125 -0.796875 0.78125q-0.515625 0 -0.859375 -0.75q-0.328125 -0.75 -1.1875 -2.1875q-0.3125 -0.5 -0.3125 -0.78125q0 -0.6875 0.765625 -0.6875zm3.78125 -0.5q0.515625 0 1.359375 1.578125q0.859375 1.578125 0.859375 2.109375q0 0.6875 -0.78125 0.6875q-0.53125 0 -0.8125 -0.6875q-0.265625 -0.6875 -1.09375 -2.171875q-0.28125 -0.53125 -0.28125 -0.84375q0 -0.671875 0.75 -0.671875zm6.171875 0.203125q0.828125 0 0.828125 0.84375q0 0.71875 -0.671875 2.875q-0.65625 2.15625 -1.84375 3.71875q-1.171875 1.5625 -3.015625 2.609375q-1.84375 1.046875 -2.8125 1.046875q-0.765625 0 -0.765625 -0.828125q0 -0.515625 0.984375 -0.84375q2.921875 -0.953125 4.5 -3.234375q1.375 -1.75 1.828125 -4.734375q0.21875 -1.453125 0.96875 -1.453125zm15.734383 3.9375q2.390625 1.765625 3.9843597 3.359375q1.609375 1.578125 1.609375 2.046875q0 0.921875 -0.96875 0.921875q-0.515625 0 -1.140625 -0.796875q-2.0624847 -2.53125 -4.5312347 -4.3125q-2.640625 2.671875 -5.8593826 4.328125q-1.5 0.78125 -1.9375 0.78125q-0.90625 0 -0.90625 -0.859375q0 -0.578125 0.984375 -0.953125q2.46875 -0.953125 5.0156326 -3.109375q2.5625 -2.15625 4.375 -5.40625q0.5625 -1.015625 0.5625 -1.328125q0 -0.484375 -0.640625 -0.484375l-8.171883 0q-1.03125 0 -1.03125 -0.84375q0 -0.8125 1.03125 -0.8125l9.328133 0q0.65625 0 1.0937347 0.453125q0.4375 0.453125 0.4375 1.015625q0 1.421875 -2.2968597 4.75l-0.9375 1.25zm11.14061 -7.84375q0.546875 0 2.46875 1.203125q1.921875 1.203125 1.921875 1.765625q0 0.921875 -0.96875 0.921875q-0.328125 0 -0.84375 -0.390625q-1.765625 -1.328125 -2.765625 -1.78125q-0.78125 -0.40625 -0.78125 -0.859375q0 -0.859375 0.96875 -0.859375zm12.515625 2.78125q0.875 0 0.875 0.84375q0 0.59375 -0.671875 1.953125q-3.0 6.015625 -10.1875 8.109375q-1.953125 0.5625 -2.734375 0.5625q-0.953125 0 -0.953125 -0.9375q0 -0.484375 0.34375 -0.703125q0.21875 -0.140625 2.03125 -0.46875q3.28125 -0.609375 6.265625 -2.921875q2.984375 -2.328125 4.03125 -5.40625q0.34375 -1.03125 1.0 -1.03125zm10.6875 -2.125l0 -1.21875q0 -0.984375 0.796875 -0.984375q0.8125 0 0.8125 0.984375l0 1.21875l4.734375 0q1.078125 -0.03125 1.65625 0.53125q0.5625 0.578125 0.53125 1.65625l0 6.703125q0.03125 1.0625 -0.53125 1.640625q-0.59375 0.5625 -1.65625 0.53125l-4.734375 0l0 3.0q0 0.875 -0.8125 0.875q-0.796875 0 -0.796875 -0.875l0 -3.0l-4.546875 0q-1.078125 0.03125 -1.65625 -0.53125q-0.578125 -0.578125 -0.53125 -1.640625l0 -6.703125q-0.046875 -1.078125 0.53125 -1.65625q0.59375 -0.5625 1.65625 -0.53125l4.546875 0zm0 9.5625l0 -3.375l-5.109375 0l0 2.40625q0 1.015625 1.015625 0.96875l4.09375 0zm1.609375 0l4.28125 0q1.015625 0.046875 1.015625 -0.96875l0 -2.40625l-5.296875 0l0 3.375zm-1.609375 -4.84375l0 -3.21875l-4.09375 0q-1.015625 -0.03125 -1.015625 0.984375l0 2.234375l5.109375 0zm1.609375 0l5.296875 0l0 -2.203125q0.015625 -1.015625 -0.984375 -1.015625l-4.3125 0l0 3.21875zm12.890625 7.9375q-2.0 1.671875 -2.78125 1.671875q-0.78125 0 -0.78125 -0.84375q0 -0.5625 0.640625 -0.875l1.9375 -0.9375l0 -4.828125q-0.015625 -0.59375 -0.59375 -0.609375l-1.109375 0q-0.875 0 -0.875 -0.765625q0 -0.765625 0.875 -0.765625l1.578125 0q1.734375 -0.109375 1.65625 1.671875l0 4.890625q0.765625 0.984375 1.984375 1.3125q1.234375 0.328125 3.453125 0.328125l6.578125 -0.09375l0.265625 -0.015625q0.765625 0 0.765625 0.796875q0 0.859375 -1.53125 0.859375l-6.59375 -0.0625l-1.953125 -0.078125q-2.1875 -0.265625 -3.515625 -1.65625zm7.859375 -8.46875q-1.125 3.90625 -3.765625 6.171875q-1.125 0.9375 -1.671875 0.9375q-0.8125 0 -0.8125 -0.8125q0 -0.453125 0.765625 -0.9375q3.84375 -2.328125 4.90625 -8.4375l-0.03125 -0.359375q-0.03125 -0.765625 -0.46875 -0.765625l-2.234375 0q-0.9375 0 -0.9375 -0.765625q0 -0.765625 0.9375 -0.765625l2.578125 0q1.546875 0.015625 1.546875 1.734375q0.25 6.15625 4.09375 9.234375q0.828125 0.578125 0.828125 1.015625q0 0.90625 -0.859375 0.90625q-0.90625 0 -2.546875 -2.15625q-1.640625 -2.171875 -2.328125 -5.0zm-9.6875 -5.765625q0.5 0 1.6875 0.671875q1.203125 0.65625 1.203125 1.140625q0 0.875 -0.859375 0.875q-0.3125 0 -1.875 -0.9375q-0.96875 -0.59375 -0.96875 -0.953125q0 -0.796875 0.8125 -0.796875z" fill-rule="nonzero"/><path fill="#fdb2b7" d="m95.436264 14.12336l54.866135 0l0 42.299213l-54.866135 0z" fill-rule="evenodd"/><path stroke="#fdb2b7" stroke-width="1.0" stroke-linejoin="round" stroke-linecap="butt" d="m95.436264 14.12336l54.866135 0l0 42.299213l-54.866135 0z" fill-rule="evenodd"/><path fill="#ffffff" d="m122.61934 27.024216q-1.5625 1.84375 -2.59375 1.84375q-1.53125 0 -1.53125 -1.5q0 -0.84375 1.09375 -1.46875q1.25 -0.8125 3.0625 -2.78125q0.46875 -0.53125 1.21875 -0.53125q1.78125 0 1.78125 1.8125l0 20.84375q0 1.84375 -1.53125 1.84375q-1.5 0 -1.5 -1.84375l0 -18.21875z" fill-rule="nonzero"/><path fill="#c97e83" d="m285.25845 144.25285l-23.307068 20.7874l-0.78741455 -42.29921z" fill-rule="evenodd"/><path stroke="#c97e83" stroke-width="1.0" stroke-linejoin="round" stroke-linecap="butt" d="m285.25845 144.25285l-23.307068 20.7874l-0.78741455 -42.29921z" fill-rule="evenodd"/><path fill="#ffffff" d="m311.1681 90.738304l228.18896 0l0 118.77166l-228.18896 0z" fill-rule="evenodd"/><path stroke="#fdb2b7" stroke-width="2.0" stroke-linejoin="round" stroke-linecap="butt" d="m311.1681 90.738304l228.18896 0l0 118.77166l-228.18896 0z" fill-rule="evenodd"/><path fill="#000000" d="m374.01257 145.7785l0 11.828125q0 0.9375 -0.765625 0.9375q-0.765625 0 -0.765625 -0.9375l0 -8.8125q-1.28125 2.34375 -1.765625 2.34375q-0.671875 0 -0.671875 -0.875q0 -0.3125 0.421875 -0.921875q2.03125 -2.984375 3.09375 -6.484375q0.328125 -1.078125 0.53125 -1.28125q0.21875 -0.203125 0.578125 -0.203125q0.796875 0 0.796875 0.671875q0 0.546875 -1.453125 3.734375zm5.796875 2.40625q-0.828125 2.40625 -2.4375 4.765625q-1.59375 2.34375 -2.21875 2.34375q-0.78125 0 -0.78125 -0.8125q0 -0.375 0.71875 -1.15625q3.046875 -3.34375 4.15625 -6.75l-3.46875 0q-0.90625 0 -0.90625 -0.765625q0 -0.765625 0.90625 -0.765625l4.03125 0l0 -2.703125q0 -0.96875 0.734375 -0.96875q0.75 0 0.75 0.96875l0 2.703125l4.640625 0q0.921875 0 0.921875 0.765625q0 0.765625 -0.921875 0.765625l-4.234375 0q1.421875 3.65625 4.9375 6.890625q0.5625 0.546875 0.5625 0.9375q0 0.890625 -0.8125 0.890625q-0.640625 0 -2.390625 -2.265625q-1.734375 -2.265625 -2.703125 -4.78125l0 5.546875l2.140625 0q0.78125 0 0.78125 0.734375q0 0.71875 -0.78125 0.71875l-2.140625 0l0 2.359375q0 0.9375 -0.75 0.9375q-0.734375 0 -0.734375 -0.9375l0 -2.359375l-1.921875 0q-0.796875 0 -0.796875 -0.71875q0 -0.734375 0.796875 -0.734375l1.921875 0l0 -5.609375zm24.09375 -1.234375q0 0.671875 -0.6875 0.671875l-1.6875 0l-0.015625 1.1875l2.0625 0q1.5 0 1.5 1.515625l0 1.65625q0 1.515625 -1.5 1.515625l-1.8125 0q0.828125 1.9375 3.21875 3.25q0.734375 0.40625 0.734375 0.828125q0 0.8125 -0.6875 0.8125q-0.75 0 -2.046875 -1.125q-1.296875 -1.109375 -2.0 -2.828125q-0.484375 1.578125 -1.8125 2.796875q-1.328125 1.234375 -2.3125 1.234375q-0.6875 0 -0.6875 -0.765625q0 -0.4375 0.703125 -0.765625q2.578125 -1.078125 3.078125 -3.4375l-1.453125 0q-1.453125 0 -1.453125 -1.484375l0 -1.75q0 -1.453125 1.453125 -1.453125l1.75 0l0 -1.1875l-1.734375 0q-0.59375 -0.03125 -0.59375 -0.703125q-0.984375 1.0 -1.40625 1.0q-0.640625 0 -0.640625 -0.671875q0 -0.3125 1.03125 -1.171875q2.0 -1.78125 3.296875 -4.109375q0.28125 -0.5 0.71875 -0.5q0.703125 0 0.703125 0.578125q0 0.15625 -0.15625 0.421875q1.640625 2.328125 3.625 3.515625q0.765625 0.453125 0.765625 0.890625q0 0.796875 -0.640625 0.796875q-0.390625 0 -1.3125 -0.71875zm-0.671875 -0.546875q-1.34375 -1.203125 -2.4375 -2.859375l-0.921875 1.28125l-1.453125 1.59375l4.8125 -0.015625zm-3.078125 5.875l0.09375 -2.265625l-1.421875 0q-0.546875 0.015625 -0.546875 0.5625l0 1.15625q0 0.515625 0.546875 0.546875l1.328125 0zm1.21875 0l1.84375 0q0.5625 -0.03125 0.578125 -0.59375l0 -1.09375q-0.015625 -0.5625 -0.578125 -0.578125l-1.734375 0l-0.109375 2.265625zm-6.40625 2.640625q-0.140625 0.140625 -0.328125 0.140625q-0.34375 0 -0.515625 -0.609375l-0.546875 -1.75q0 -0.375 0.40625 -0.375q0.40625 0 1.03125 1.984375l0.03125 0.078125l0.0625 -0.953125l0 -0.3125l0.0625 -0.8125q0 -0.515625 -0.640625 -0.515625l-3.4375 0q-1.671875 0 -1.59375 -1.578125l0 -6.515625q-0.078125 -1.578125 1.59375 -1.578125l4.890625 0q0.71875 0 0.71875 0.625q0 0.609375 -0.71875 0.609375l-2.0625 0l0 1.59375l1.453125 0q0.71875 0 0.71875 0.59375q0 0.59375 -0.71875 0.59375l-1.453125 0l0 1.609375l1.453125 0q0.71875 0 0.71875 0.609375q0 0.578125 -0.71875 0.578125l-1.453125 0l0 1.671875l1.15625 0q1.359375 0 1.359375 1.25q0 0.796875 -0.25 2.953125q-0.25 2.140625 -0.796875 2.859375q-0.53125 0.71875 -2.078125 0.71875q-0.75 0 -0.75 -0.734375q0 -0.71875 0.59375 -0.71875l0.625 0.015625q0.953125 0 1.1875 -2.03125zm-2.28125 -9.96875l0 -1.59375l-1.3125 0q-0.5625 0.015625 -0.5625 0.5625l0 1.03125l1.875 0zm0 1.1875l-1.875 0l0 1.609375l1.875 0l0 -1.609375zm0 2.796875l-1.875 0l0 1.109375q0.015625 0.546875 0.5625 0.5625l1.3125 0l0 -1.671875zm-3.078125 3.734375q0.515625 0 0.515625 0.796875q0 3.3125 -0.84375 3.3125q-0.578125 0 -0.578125 -0.609375l0.0625 -0.359375q0.28125 -1.03125 0.296875 -2.265625q0.03125 -0.875 0.546875 -0.875zm1.484375 0.0625q0.359375 0 0.453125 0.359375q0.390625 1.453125 0.390625 2.5q0 0.546875 -0.546875 0.546875q-0.484375 0 -0.515625 -0.65625q-0.0625 -1.296875 -0.25 -2.234375l0 -0.0625q0 -0.453125 0.46875 -0.453125zm1.453125 -0.1875q0.265625 0 0.359375 0.203125q0.09375 0.203125 0.40625 1.21875l0.265625 1.171875q0 0.453125 -0.46875 0.453125q-0.390625 0 -0.515625 -0.71875l-0.328125 -1.4375l-0.125 -0.484375q0 -0.40625 0.40625 -0.40625zm20.5 2.765625q0.25 0 1.796875 -0.65625q1.5625 -0.671875 2.828125 -1.5625q1.265625 -0.890625 2.390625 -2.140625q1.125 -1.25 1.734375 -2.5625q0.609375 -1.328125 1.1875 -1.328125q0.84375 0 0.84375 0.859375q0 0.703125 -1.40625 2.671875q-1.40625 1.953125 -3.03125 3.3125q-1.625 1.359375 -3.875 2.40625q-2.25 1.03125 -3.15625 1.03125q-0.671875 0 -1.140625 -0.46875q-0.453125 -0.484375 -0.453125 -1.15625l0 -12.015625q0 -1.046875 0.875 -1.046875q0.859375 0 0.859375 1.046875l0 10.921875q0 0.6875 0.546875 0.6875zm16.625 -8.1875q0.5625 0 1.46875 1.609375q0.921875 1.59375 0.921875 2.015625q0 0.78125 -0.796875 0.78125q-0.515625 0 -0.859375 -0.75q-0.328125 -0.75 -1.1875 -2.1875q-0.3125 -0.5 -0.3125 -0.78125q0 -0.6875 0.765625 -0.6875zm3.78125 -0.5q0.515625 0 1.359375 1.578125q0.859375 1.578125 0.859375 2.109375q0 0.6875 -0.78125 0.6875q-0.53125 0 -0.8125 -0.6875q-0.265625 -0.6875 -1.09375 -2.171875q-0.28125 -0.53125 -0.28125 -0.84375q0 -0.671875 0.75 -0.671875zm6.171875 0.203125q0.828125 0 0.828125 0.84375q0 0.71875 -0.671875 2.875q-0.65625 2.15625 -1.84375 3.71875q-1.171875 1.5625 -3.015625 2.609375q-1.84375 1.046875 -2.8125 1.046875q-0.765625 0 -0.765625 -0.828125q0 -0.515625 0.984375 -0.84375q2.921875 -0.953125 4.5 -3.234375q1.375 -1.75 1.828125 -4.734375q0.21875 -1.453125 0.96875 -1.453125zm15.734375 3.9375q2.390625 1.765625 3.984375 3.359375q1.609375 1.578125 1.609375 2.046875q0 0.921875 -0.96875 0.921875q-0.515625 0 -1.140625 -0.796875q-2.0625 -2.53125 -4.53125 -4.3125q-2.640625 2.671875 -5.859375 4.328125q-1.5 0.78125 -1.9375 0.78125q-0.90625 0 -0.90625 -0.859375q0 -0.578125 0.984375 -0.953125q2.46875 -0.953125 5.015625 -3.109375q2.5625 -2.15625 4.375 -5.40625q0.5625 -1.015625 0.5625 -1.328125q0 -0.484375 -0.640625 -0.484375l-8.171875 0q-1.03125 0 -1.03125 -0.84375q0 -0.8125 1.03125 -0.8125l9.328125 0q0.65625 0 1.09375 0.453125q0.4375 0.453125 0.4375 1.015625q0 1.421875 -2.296875 4.75l-0.9375 1.25zm11.140625 -7.84375q0.546875 0 2.46875 1.203125q1.921875 1.203125 1.921875 1.765625q0 0.921875 -0.96875 0.921875q-0.328125 0 -0.84375 -0.390625q-1.765625 -1.328125 -2.765625 -1.78125q-0.78125 -0.40625 -0.78125 -0.859375q0 -0.859375 0.96875 -0.859375zm12.515625 2.78125q0.875 0 0.875 0.84375q0 0.59375 -0.671875 1.953125q-3.0 6.015625 -10.1875 8.109375q-1.953125 0.5625 -2.734375 0.5625q-0.953125 0 -0.953125 -0.9375q0 -0.484375 0.34375 -0.703125q0.21875 -0.140625 2.03125 -0.46875q3.28125 -0.609375 6.265625 -2.921875q2.984375 -2.328125 4.03125 -5.40625q0.34375 -1.03125 1.0 -1.03125z" fill-rule="nonzero"/><path fill="#fdb2b7" d="m396.57782 14.12336l54.86615 0l0 42.299213l-54.86615 0z" fill-rule="evenodd"/><path stroke="#fdb2b7" stroke-width="1.0" stroke-linejoin="round" stroke-linecap="butt" d="m396.57782 14.12336l54.86615 0l0 42.299213l-54.86615 0z" fill-rule="evenodd"/><path fill="#ffffff" d="m420.8859 44.149216l8.125 0q1.53125 0 1.53125 1.25q0 1.25 -1.53125 1.25l-9.40625 0q-2.125 0 -2.125 -1.8125q0 -0.84375 1.8125 -2.875q4.875 -5.5 6.96875 -9.21875q1.09375 -1.9375 1.09375 -4.0q0 -1.625 -0.875 -2.640625q-0.875 -1.015625 -2.21875 -1.015625q-2.71875 0 -3.25 3.34375q-0.28125 1.8125 -1.6875 1.8125q-1.53125 0 -1.53125 -1.53125q0 -1.0 0.65625 -2.4375q1.71875 -3.71875 5.9375 -3.71875q2.75 0 4.453125 1.6875q1.703125 1.6875 1.703125 4.125q0 4.15625 -5.75 11.21875l-3.90625 4.5625z" fill-rule="nonzero"/><path fill="#c97e83" d="m586.76 144.25285l-23.307129 20.7874l-0.7873535 -42.29921z" fill-rule="evenodd"/><path stroke="#c97e83" stroke-width="1.0" stroke-linejoin="round" stroke-linecap="butt" d="m586.76 144.25285l-23.307129 20.7874l-0.7873535 -42.29921z" fill-rule="evenodd"/><path fill="#ffffff" d="m611.0469 87.66356l228.18896 0l0 118.77165l-228.18896 0z" fill-rule="evenodd"/><path stroke="#fdb2b7" stroke-width="2.0" stroke-linejoin="round" stroke-linecap="butt" d="m611.0469 87.66356l228.18896 0l0 118.77165l-228.18896 0z" fill-rule="evenodd"/><path fill="#000000" d="m682.3601 138.15689q-1.8125 1.375 -2.40625 1.375q-0.703125 0 -0.703125 -0.796875q0 -0.484375 0.859375 -0.90625q2.53125 -1.21875 4.328125 -3.328125l-4.171875 0q-0.890625 0 -0.890625 -0.71875q0 -0.734375 0.890625 -0.734375l5.25 0l0.46875 -0.796875q0.453125 -0.84375 0.96875 -0.84375q0.75 0 0.75 0.609375q0 0.28125 -0.46875 1.03125l8.15625 0q0.90625 0 0.90625 0.734375q0 0.71875 -0.90625 0.71875l-9.1875 0q-0.984375 1.234375 -2.125 2.25l3.625 0l0 -1.03125q0 -0.75 0.78125 -0.75q0.765625 0 0.765625 0.75l0 1.03125l3.984375 0q1.875 -0.109375 1.75 1.703125l0 3.0q0.125 2.140625 -2.015625 2.0l-1.125 0q-0.828125 0 -0.828125 -0.8125q0 -0.8125 0.828125 -0.8125l0.734375 0q0.765625 -0.03125 0.78125 -0.765625l0 -2.265625q-0.015625 -0.625 -0.609375 -0.640625l-3.5 0l0 5.484375q0 0.828125 -0.78125 0.828125q-0.765625 0 -0.765625 -0.84375l0 -5.46875l-3.359375 0q-0.421875 0.015625 -0.4375 0.4375l0 3.90625q0 0.953125 -0.78125 0.953125q-0.765625 0 -0.765625 -0.953125l0 -4.34375zm8.1875 -8.453125l0.234375 0.09375l0.234375 0.078125q2.71875 1.0 2.953125 1.15625q0.359375 0.234375 0.359375 0.546875q0 0.765625 -0.78125 0.765625q-0.234375 0 -1.8125 -0.703125q-1.1875 -0.53125 -3.015625 -1.1875q-2.09375 0.796875 -4.515625 1.375q-2.421875 0.5625 -2.9375 0.5625q-0.6875 0 -0.6875 -0.71875q0 -0.546875 1.109375 -0.734375q2.921875 -0.484375 5.03125 -1.140625l-2.375 -0.609375l-1.640625 -0.359375q-0.78125 -0.15625 -0.78125 -0.609375q0 -0.7031326 0.75 -0.7031326l1.234375 0.234375q2.046875 0.39063263 4.8125 1.3125076q1.65625 -0.6875 3.078125 -1.5468826q0.375 -0.21875 0.65625 -0.21875q0.90625 0 0.90625 0.65625q0 0.5312576 -2.8125 1.7500076zm8.71875 0.6875l-0.671875 0q-0.6875 0 -0.6875 -0.6875q0 -0.671875 0.6875 -0.671875l2.953125 0l0 -0.96875q0 -0.7656326 0.78125 -0.7656326q0.765625 0 0.765625 0.7656326l0 0.96875l2.609375 0q0.703125 0 0.703125 0.6875q0 0.671875 -0.703125 0.671875l-4.96875 0l0 2.765625q0 0.46875 0.328125 0.59375q0.40625 0.140625 1.875 0.140625l1.125 -0.03125l0.546875 -0.03125q0.765625 0 0.765625 0.6875q0 0.546875 -0.546875 0.671875q-0.296875 0.0625 -2.90625 0.09375q-1.03125 0 -1.671875 -0.1875q-0.984375 -0.25 -0.984375 -1.4375l0 -3.265625zm7.859375 10.5625l0 1.546875l7.15625 0q0.78125 0 0.78125 0.671875q0 0.671875 -0.78125 0.671875l-15.59375 0q-0.78125 0 -0.78125 -0.671875q0 -0.671875 0.78125 -0.671875l6.953125 0l0 -1.546875l-5.1875 0q-0.703125 0 -0.703125 -0.625q0 -0.625 0.703125 -0.625l5.1875 0l0 -1.4375l-6.171875 0q-0.765625 0 -0.765625 -0.671875q0 -0.671875 0.765625 -0.671875l14.03125 0q0.765625 0 0.765625 0.671875q0 0.671875 -0.765625 0.671875l-6.375 0l0 1.4375l5.390625 0q0.734375 0 0.734375 0.625q0 0.625 -0.734375 0.625l-5.390625 0zm0.9375 -7.515625q-0.484375 1.4375 -1.3125 2.296875q-0.828125 0.859375 -1.515625 0.859375q-0.71875 0 -0.71875 -0.828125q0 -0.328125 0.390625 -0.546875q1.265625 -0.703125 1.734375 -2.15625q0.375 -1.109375 0.4375 -3.375q-0.046875 -1.8750076 1.515625 -1.8437576l4.25 0q1.46875 0 1.46875 1.2187576l-0.1875 2.78125q-0.25 2.984375 -0.609375 3.734375q-0.453125 0.9375 -2.65625 0.9375q-0.890625 0 -0.890625 -0.78125q0 -0.65625 1.0625 -0.65625q1.078125 0 1.28125 -0.484375l0.203125 -1.15625l-4.453125 0zm0.21875 -1.09375l4.359375 0l0.09375 -1.046875l-4.34375 0l-0.109375 1.046875zm4.53125 -2.140625l0 -0.15625l0.03125 -0.546875q0 -0.4375 -0.5 -0.4375l-3.296875 0q-0.359375 0 -0.453125 0.1875q-0.0625 0.203125 -0.125 0.953125l4.34375 0zm11.1875 4.09375l-6.546875 0q-0.90625 0 -0.90625 -0.75q0 -0.71875 0.90625 -0.71875l5.59375 0l0 -2.15625l-3.9375 0q-0.890625 0 -0.890625 -0.734375q0 -0.75 0.890625 -0.75l3.9375 0l0 -1.078125q0 -0.8281326 0.796875 -0.8281326q0.8125 0 0.8125 0.8281326l0 1.078125l3.140625 0q0.890625 0 0.890625 0.734375q0 0.75 -0.890625 0.75l-3.140625 0l0 2.15625l1.359375 0q2.609375 -2.046875 4.296875 -4.0q0.453125 -0.53125 0.859375 -0.53125q0.8125 0 0.8125 0.75q0 0.765625 -3.78125 3.78125l4.609375 0q0.90625 0 0.90625 0.734375q0 0.734375 -0.90625 0.734375l-6.53125 0l-2.359375 1.640625l5.90625 0q1.984375 -0.125 1.859375 1.859375l0 4.21875q0.109375 1.96875 -1.859375 1.84375l-7.9375 0q-1.984375 0.109375 -1.84375 -1.84375l0 -3.765625q-2.359375 1.25 -2.78125 1.25q-0.71875 0 -0.71875 -0.78125q0 -0.515625 0.65625 -0.78125q3.0 -1.125 6.796875 -3.640625zm-2.390625 4.875l8.453125 0l0 -1.171875q-0.015625 -0.671875 -0.71875 -0.703125l-7.25 0q-0.46875 0.03125 -0.484375 0.484375l0 1.390625zm0 1.3125l0 1.28125q0.015625 0.6875 0.703125 0.71875l7.03125 0q0.703125 -0.03125 0.71875 -0.71875l0 -1.28125l-8.453125 0zm23.4375 -9.71875q-0.578125 4.015625 -1.53125 6.3125q-0.953125 2.28125 -2.0625 3.421875q-1.09375 1.140625 -2.359375 1.140625q-1.328125 0 -2.25 -1.328125q-0.921875 -1.328125 -0.921875 -3.359375q0 -3.21875 2.34375 -5.53125q2.34375 -2.3125 5.984375 -2.3125q3.40625 0 5.40625 1.9375q2.0 1.921875 2.0 4.90625q0 4.34375 -3.828125 6.21875q-2.09375 1.015625 -3.4375 1.015625q-0.890625 0 -0.890625 -0.890625q0 -0.71875 1.09375 -0.875q2.390625 -0.390625 3.859375 -1.84375q1.46875 -1.46875 1.46875 -3.75q0 -2.078125 -1.265625 -3.40625q-1.25 -1.34375 -3.3125 -1.625l-0.09375 0l-0.203125 -0.03125zm-1.609375 0q-2.734375 0.3125 -4.3125 2.078125q-1.5625 1.75 -1.5625 4.171875q0 1.3125 0.484375 2.0625q0.5 0.734375 1.109375 0.734375q1.125 0 2.4375 -2.515625q1.328125 -2.515625 1.84375 -6.53125zm23.703125 4.421875l0.0625 -0.875q0.0625 -1.203125 0.21875 -1.53125q0.171875 -0.34375 0.65625 -0.34375q0.828125 0 0.828125 0.828125l-0.234375 2.4375q2.046875 0.796875 2.046875 1.515625q0 0.796875 -0.796875 0.796875q-0.234375 0 -0.703125 -0.25l-0.84375 -0.390625q-0.40625 1.765625 -1.203125 3.09375q-0.796875 1.328125 -2.109375 2.359375q-1.296875 1.03125 -1.96875 1.03125q-0.796875 0 -0.796875 -0.8125q0 -0.484375 1.046875 -1.0625q2.9375 -1.859375 3.5625 -5.1875q-2.28125 -0.828125 -5.25 -1.15625q-1.953125 4.0625 -2.953125 5.15625q-1.0 1.078125 -2.046875 1.078125q-1.0 0 -1.671875 -0.78125q-0.65625 -0.78125 -0.65625 -2.0q0 -2.28125 1.796875 -3.609375q1.8125 -1.328125 4.578125 -1.421875q0.90625 -2.40625 1.078125 -2.953125l0.359375 -1.15625q0 -0.125 -0.15625 -0.125l-4.390625 0q-0.96875 0 -0.96875 -0.78125q0 -0.78125 0.96875 -0.78125l5.1875 0q1.28125 0 1.28125 0.84375q0 0.21875 -0.21875 0.78125l-0.828125 2.40625l-0.703125 1.875q2.3125 0.21875 4.828125 1.015625zm-7.09375 0.359375q-1.984375 0.171875 -3.125 1.109375q-1.125 0.921875 -1.125 2.4375q0 1.171875 0.84375 1.171875q0.5625 0 1.375 -1.0625q0.8125 -1.078125 2.03125 -3.65625z" fill-rule="nonzero"/><path fill="#000000" d="m692.282 153.64127l0 11.921875q0 0.90625 -0.75 0.90625q-0.734375 0 -0.734375 -0.90625l0 -8.640625l-0.109375 0.234375q-0.984375 1.96875 -1.46875 1.96875q-0.640625 0 -0.640625 -0.75q0 -0.328125 0.375 -0.953125q1.8125 -2.921875 2.9375 -7.15625q0.25 -0.96875 0.890625 -0.96875q0.734375 0 0.734375 0.734375q0 0.234375 -0.28125 0.9375l-0.953125 2.671875zm6.453125 4.046875l0 -2.03125l-2.15625 0q-0.734375 0 -0.734375 -0.65625q0 -0.640625 0.734375 -0.640625l2.15625 0l0 -1.65625q0 -0.703125 0.640625 -0.703125q0.65625 0 0.65625 0.703125l0 1.65625l2.25 0q0.71875 0 0.71875 0.65625q0 0.640625 -0.71875 0.640625l-2.25 0l0 2.03125l0.765625 0q1.375 0 1.375 1.421875l0 2.5625q0 1.390625 -1.328125 1.390625l-2.828125 0q-1.375 0.015625 -1.375 -1.421875l0 -2.578125q0.03125 -1.375 1.375 -1.375l0.71875 0zm-0.25 4.09375l1.890625 0q0.5 -0.015625 0.515625 -0.53125l0 -1.765625q0 -0.515625 -0.515625 -0.53125l-1.890625 0q-0.515625 0.015625 -0.53125 0.53125l0 1.765625q0.015625 0.515625 0.53125 0.53125zm6.546875 -10.015625l0 12.4375q0.109375 1.75 -1.625 1.640625l-7.859375 0q-1.75 0.09375 -1.640625 -1.609375l0 -12.515625q-0.109375 -1.703125 1.640625 -1.59375l7.859375 0q1.734375 -0.109375 1.625 1.640625zm-8.953125 12.6875l6.75 0q0.703125 -0.015625 0.71875 -0.71875l0 -11.5q-0.015625 -0.71875 -0.71875 -0.734375l-6.75 0q-0.6875 0.015625 -0.703125 0.71875l0 11.53125q0.015625 0.6875 0.703125 0.703125zm15.65625 -8.078125l0 0.078125l-0.09375 1.609375l3.09375 0q1.53125 0 1.53125 1.5q0 2.125 -0.421875 4.484375q-0.1875 1.15625 -0.9375 1.578125q-0.734375 0.421875 -2.515625 0.421875q-0.875 0 -0.875 -0.828125q0 -0.796875 0.796875 -0.796875q1.828125 0 2.09375 -0.75q0.375 -1.0 0.375 -3.625q0 -0.5 -0.609375 -0.5l-2.703125 0q-0.421875 3.6875 -2.59375 5.859375q-0.515625 0.515625 -0.859375 0.515625q-0.78125 0 -0.78125 -0.84375q0 -0.375 0.640625 -0.96875q1.421875 -1.3125 1.875 -3.21875q0.46875 -1.703125 0.46875 -4.515625l-0.46875 0q-1.640625 0.078125 -1.546875 -1.53125l0 -3.1875q-0.09375 -1.625 1.546875 -1.53125l4.953125 0q1.625 -0.09375 1.53125 1.53125l0 3.1875q0.09375 1.609375 -1.53125 1.53125l-2.96875 0zm-1.4375 -1.40625l3.828125 0q0.59375 -0.015625 0.609375 -0.609375l0 -2.234375q-0.015625 -0.578125 -0.609375 -0.609375l-3.828125 0q-0.59375 0.03125 -0.609375 0.609375l0 2.234375q0.015625 0.59375 0.609375 0.609375zm13.15625 9.234375q0.125 2.234375 -2.078125 2.109375l-1.28125 0q-0.96875 0 -0.96875 -0.8125q0 -0.84375 0.96875 -0.84375l0.953125 0q0.8125 -0.015625 0.828125 -0.828125l0 -13.375q0 -0.890625 0.78125 -0.890625q0.796875 0 0.796875 0.890625l0 13.75zm-4.015625 -2.4375q0 0.828125 -0.765625 0.828125q-0.765625 0 -0.765625 -0.828125l0 -9.984375q0 -0.84375 0.765625 -0.84375q0.765625 0 0.765625 0.84375l0 9.984375zm9.671875 -4.21875q-0.453125 1.59375 -1.21875 3.046875q-0.75 1.4375 -1.25 1.4375q-0.75 0 -0.75 -0.875q0 -0.328125 0.4375 -0.875q1.703125 -2.296875 2.625 -5.65625l-1.953125 0q-0.9375 0 -0.9375 -0.75q0 -0.734375 0.9375 -0.734375l2.109375 0l0 -2.90625q0 -0.9375 0.765625 -0.9375q0.765625 0 0.765625 0.9375l0 2.90625l1.5625 0q0.921875 0 0.921875 0.75q0 0.734375 -0.921875 0.734375l-1.5625 0l0 2.265625q0.1875 -0.28125 0.5 -0.28125q0.390625 0 1.328125 1.296875q0.9375 1.28125 0.9375 1.71875q0 0.65625 -0.734375 0.65625q-0.421875 0 -0.734375 -0.609375q-0.296875 -0.625 -0.9375 -1.546875l-0.1875 -0.296875l-0.171875 -0.25l0 7.953125q0 0.9375 -0.765625 0.9375q-0.765625 0 -0.765625 -0.9375l0 -7.984375zm13.078125 -5.328125l0 11.75q0.140625 1.96875 -1.8125 1.8125l-4.78125 0q-1.96875 0.15625 -1.8125 -1.8125l0 -11.75q-0.015625 -0.875 0.4375 -1.390625q0.5 -0.453125 1.375 -0.4375l4.78125 0q0.890625 -0.015625 1.375 0.4375q0.46875 0.515625 0.4375 1.390625zm-6.859375 8.703125l0 2.65625q0.015625 0.65625 0.671875 0.6875l3.953125 0q0.65625 -0.03125 0.671875 -0.6875l0 -2.65625l-5.296875 0zm0 -1.46875l5.296875 0l0 -3.125l-5.296875 0l0 3.125zm0 -4.59375l5.296875 0l0 -2.265625q-0.015625 -0.65625 -0.671875 -0.671875l-3.953125 0q-0.65625 0.015625 -0.671875 0.671875l0 2.265625zm21.0625 5.421875q1.203125 2.828125 4.34375 4.28125q0.90625 0.390625 0.90625 0.890625q0 0.84375 -0.734375 0.84375q-0.5 0 -1.5625 -0.625q-1.046875 -0.609375 -1.875 -1.515625q-0.828125 -0.90625 -1.484375 -2.140625q-0.859375 2.546875 -3.609375 3.921875q-0.828125 0.421875 -1.1875 0.421875q-0.703125 0 -0.703125 -0.765625q0 -0.53125 0.96875 -0.921875q2.234375 -0.890625 3.03125 -2.65625q0.546875 -1.3125 0.546875 -3.734375q0 -1.03125 0.75 -1.03125q0.765625 0 0.734375 0.703125l-0.015625 0.296875q-0.015625 1.296875 -0.109375 2.03125zm0 -8.015625q1.203125 2.8125 4.34375 4.265625q0.90625 0.390625 0.90625 0.890625q0 0.84375 -0.734375 0.84375q-0.515625 0 -1.71875 -0.734375q-2.015625 -1.21875 -3.203125 -3.53125q-0.703125 2.3125 -3.296875 3.75q-1.0625 0.59375 -1.5 0.59375q-0.703125 0 -0.703125 -0.796875q0 -0.5 0.984375 -0.890625q1.84375 -0.71875 2.703125 -2.0625q0.859375 -1.34375 0.859375 -4.203125q0 -1.046875 0.75 -1.046875q0.734375 0 0.734375 0.703125l-0.015625 0.296875q-0.015625 1.203125 -0.109375 1.921875zm-3.703125 -1.4375q0.734375 0 0.734375 0.625q0 0.34375 -0.546875 1.65625q-0.53125 1.3125 -1.03125 1.3125q-0.765625 0 -0.765625 -0.6875q0 -0.1875 0.359375 -0.859375q0.171875 -0.296875 0.546875 -1.421875q0.1875 -0.625 0.703125 -0.625zm-5.921875 9.3125l1.96875 0q1.671875 -0.109375 1.546875 1.515625l0 2.515625q0.109375 1.609375 -1.546875 1.5l-1.96875 0q-1.671875 0.109375 -1.546875 -1.5l0 -2.515625q-0.125 -1.625 1.546875 -1.515625zm2.234375 3.875l0 -2.203125q0.03125 -0.453125 -0.4375 -0.4375l-1.625 0q-0.46875 -0.015625 -0.4375 0.4375l0 2.203125q-0.03125 0.4375 0.4375 0.421875l1.625 0q0.46875 0.015625 0.4375 -0.421875zm-3.109375 -12.546875q-0.796875 0 -0.796875 -0.671875q0 -0.671875 0.796875 -0.671875l3.6875 0q0.796875 0 0.796875 0.671875q0 0.671875 -0.796875 0.671875l-3.6875 0zm-0.546875 2.53125q-0.796875 0 -0.796875 -0.671875q0 -0.671875 0.796875 -0.671875l4.71875 0q0.796875 0 0.796875 0.671875q0 0.671875 -0.796875 0.671875l-4.71875 0zm0.609375 2.453125q-0.765625 0 -0.765625 -0.65625q0 -0.625 0.765625 -0.625l3.53125 0q0.75 0 0.75 0.625q0 0.65625 -0.75 0.65625l-3.53125 0zm0 2.5q-0.765625 0 -0.765625 -0.65625q0 -0.640625 0.765625 -0.640625l3.53125 0q0.75 0 0.75 0.65625q0 0.640625 -0.75 0.640625l-3.53125 0zm6.734375 -0.125q0.734375 0 0.734375 0.609375q0 0.359375 -0.625 1.875q-0.453125 1.109375 -0.953125 1.109375q-0.765625 0 -0.765625 -0.703125q0 -0.171875 0.359375 -0.84375q0.078125 -0.0625 0.546875 -1.421875q0.1875 -0.625 0.703125 -0.625zm7.375 -8.125q0.8125 0 0.8125 0.625q0 0.40625 -1.078125 2.125q-0.40625 0.671875 -0.828125 0.671875q-0.796875 0 -0.796875 -0.703125q0 -0.203125 0.296875 -0.609375q0.4375 -0.6875 0.921875 -1.671875q0.21875 -0.4375 0.671875 -0.4375zm0 8.015625q0.8125 0 0.8125 0.625q0 0.390625 -0.703125 1.5l-0.375 0.625q-0.40625 0.671875 -0.828125 0.671875q-0.796875 0 -0.796875 -0.703125q0 -0.203125 0.296875 -0.609375q0.5 -0.78125 0.921875 -1.671875q0.21875 -0.4375 0.671875 -0.4375z" fill-rule="nonzero"/><path fill="#fdb2b7" d="m697.71936 14.12336l54.86615 0l0 42.299213l-54.86615 0z" fill-rule="evenodd"/><path stroke="#fdb2b7" stroke-width="1.0" stroke-linejoin="round" stroke-linecap="butt" d="m697.71936 14.12336l54.86615 0l0 42.299213l-54.86615 0z" fill-rule="evenodd"/><path fill="#ffffff" d="m727.6837 34.274216q4.1875 1.40625 4.1875 5.9375q0 3.03125 -1.828125 4.953125q-1.828125 1.921875 -5.140625 1.921875q-2.9375 0 -4.703125 -1.78125q-1.765625 -1.78125 -1.765625 -3.71875q0 -1.53125 1.59375 -1.53125q1.09375 0 1.796875 2.328125q0.703125 2.328125 3.140625 2.328125q1.75 0 2.84375 -1.328125q1.09375 -1.328125 1.09375 -3.359375q0 -3.1875 -2.375 -4.125q-0.9375 -0.40625 -3.25 -0.40625q-1.1875 0 -1.1875 -1.3125q0 -1.28125 1.21875 -1.28125l1.625 0.0625q3.625 0 3.625 -4.15625q0 -3.84375 -3.21875 -3.84375q-1.3125 0 -1.90625 0.625q-0.59375 0.625 -1.34375 2.8125q-0.34375 1.0 -1.40625 1.0q-1.375 0 -1.375 -1.34375q0 -2.0 1.625 -3.734375q1.625 -1.734375 4.46875 -1.734375q2.90625 0 4.515625 1.734375q1.609375 1.734375 1.609375 4.234375q0 4.15625 -3.53125 5.59375l-0.3125 0.125z" fill-rule="nonzero"/></g></svg>