<svg version="1.1" viewBox="0.0 0.0 576.0 540.0" fill="none" stroke="none" stroke-linecap="square" stroke-miterlimit="10" xmlns:xlink="http://www.w3.org/1999/xlink" xmlns="http://www.w3.org/2000/svg"><clipPath id="g45853021cf_0_0.0"><path d="m0 0l576.0 0l0 540.0l-576.0 0l0 -540.0z" clip-rule="nonzero"/></clipPath><g clip-path="url(#g45853021cf_0_0.0)"><path fill="#ffffff" d="m0 0l576.0 0l0 540.0l-576.0 0z" fill-rule="evenodd"/><path shape-rendering="crispEdges" fill="#fdb2b7" d="m46.328083 49.43307l73.2336 0l0 82.2336l-73.2336 0l0 -82.2336z" fill-rule="nonzero"/><path shape-rendering="crispEdges" fill="#fdb2b7" d="m119.561676 49.43307l227.02625 0l0 82.2336l-227.02625 0l0 -82.2336z" fill-rule="nonzero"/><path shape-rendering="crispEdges" fill="#fdb2b7" d="m346.58792 49.43307l183.08401 0l0 82.2336l-183.08401 0l0 -82.2336z" fill-rule="nonzero"/><path shape-rendering="crispEdges" fill="#f3f3f3" d="m46.328083 131.66667l73.2336 0l0 82.2336l-73.2336 0l0 -82.2336z" fill-rule="nonzero"/><path shape-rendering="crispEdges" fill="#f3f3f3" d="m119.561676 131.66667l227.02625 0l0 82.2336l-227.02625 0l0 -82.2336z" fill-rule="nonzero"/><path shape-rendering="crispEdges" fill="#f3f3f3" d="m346.58792 131.66667l183.08401 0l0 82.2336l-183.08401 0l0 -82.2336z" fill-rule="nonzero"/><path shape-rendering="crispEdges" fill="#f3f3f3" d="m46.328083 213.90027l73.2336 0l0 82.23358l-73.2336 0l0 -82.23358z" fill-rule="nonzero"/><path shape-rendering="crispEdges" fill="#f3f3f3" d="m119.561676 213.90027l227.02625 0l0 82.23358l-227.02625 0l0 -82.23358z" fill-rule="nonzero"/><path shape-rendering="crispEdges" fill="#f3f3f3" d="m346.58792 213.90027l183.08401 0l0 82.23358l-183.08401 0l0 -82.23358z" fill-rule="nonzero"/><path shape-rendering="crispEdges" fill="#f3f3f3" d="m46.328083 296.13385l73.2336 0l0 82.23361l-73.2336 0l0 -82.23361z" fill-rule="nonzero"/><path shape-rendering="crispEdges" fill="#f3f3f3" d="m119.561676 296.13385l227.02625 0l0 82.23361l-227.02625 0l0 -82.23361z" fill-rule="nonzero"/><path shape-rendering="crispEdges" fill="#f3f3f3" d="m346.58792 296.13385l183.08401 0l0 82.23361l-183.08401 0l0 -82.23361z" fill-rule="nonzero"/><path shape-rendering="crispEdges" fill="#f3f3f3" d="m46.328083 378.36746l73.2336 0l0 82.23358l-73.2336 0l0 -82.23358z" fill-rule="nonzero"/><path shape-rendering="crispEdges" fill="#f3f3f3" d="m119.561676 378.36746l227.02625 0l0 82.23358l-227.02625 0l0 -82.23358z" fill-rule="nonzero"/><path shape-rendering="crispEdges" fill="#f3f3f3" d="m346.58792 378.36746l183.08401 0l0 82.23358l-183.08401 0l0 -82.23358z" fill-rule="nonzero"/><path stroke="#000000" stroke-width="1.0" stroke-linecap="butt" d="m46.328083 48.934383l0 82.2336" fill-rule="nonzero"/><path stroke="#ffffff" stroke-width="1.0" stroke-linecap="butt" d="m46.328083 131.16798l0 329.93176" fill-rule="nonzero"/><path stroke="#000000" stroke-width="1.0" stroke-linecap="butt" d="m119.561676 48.934383l0 82.2336" fill-rule="nonzero"/><path stroke="#ffffff" stroke-width="1.0" stroke-linecap="butt" d="m119.561676 131.16798l0 329.93176" fill-rule="nonzero"/><path stroke="#000000" stroke-width="1.0" stroke-linecap="butt" d="m346.58792 48.934383l0 82.2336" fill-rule="nonzero"/><path stroke="#ffffff" stroke-width="1.0" stroke-linecap="butt" d="m346.58792 131.16798l0 329.93176" fill-rule="nonzero"/><path stroke="#000000" stroke-width="1.0" stroke-linecap="butt" d="m529.67194 48.934383l0 82.2336" fill-rule="nonzero"/><path stroke="#ffffff" stroke-width="1.0" stroke-linecap="butt" d="m529.67194 131.16798l0 329.93176" fill-rule="nonzero"/><path stroke="#000000" stroke-width="1.0" stroke-linecap="butt" d="m45.829395 49.43307l484.3412 0" fill-rule="nonzero"/><path stroke="#000000" stroke-width="1.0" stroke-linecap="butt" d="m45.829395 131.66667l484.3412 0" fill-rule="nonzero"/><path stroke="#ffffff" stroke-width="1.0" stroke-linecap="butt" d="m45.829395 213.90027l484.3412 0" fill-rule="nonzero"/><path stroke="#ffffff" stroke-width="1.0" stroke-linecap="butt" d="m45.829395 296.13385l484.3412 0" fill-rule="nonzero"/><path stroke="#ffffff" stroke-width="1.0" stroke-linecap="butt" d="m45.829395 378.36746l484.3412 0" fill-rule="nonzero"/><path stroke="#ffffff" stroke-width="1.0" stroke-linecap="butt" d="m45.829395 460.60104l484.3412 0" fill-rule="nonzero"/><path fill="#49352a" d="m82.757385 82.10549q-1.171875 1.390625 -1.9375 1.390625q-1.15625 0 -1.15625 -1.125q0 -0.640625 0.828125 -1.109375q0.9375 -0.609375 2.296875 -2.078125q0.34375 -0.40625 0.90625 -0.40625q1.34375 0 1.34375 1.359375l0 15.640625q0 1.390625 -1.15625 1.390625q-1.125 0 -1.125 -1.390625l0 -13.671875z" fill-rule="nonzero"/><path fill="#49352a" d="m222.15292 92.04299l0 5.78125q0 1.1875 -1.078125 1.1875q-1.046875 0 -1.046875 -1.1875l0 -5.78125l-6.125 0q-2.828125 0.171875 -2.6875 -2.71875l0 -5.390625q-0.140625 -2.90625 2.6875 -2.71875l6.125 0l0 -3.09375q0 -1.1875 1.046875 -1.1875q1.078125 0 1.078125 1.1875l0 3.09375l6.359375 0q2.828125 -0.15625 2.6875 2.71875l0 5.390625q0.140625 2.890625 -2.6875 2.71875l-6.359375 0zm0 -8.765625l0 6.703125l5.609375 0q1.3125 0 1.3125 -1.3125l0 -4.078125q0 -1.3125 -1.3125 -1.3125l-5.609375 0zm-2.125 0l-5.375 0q-1.3125 0 -1.3125 1.3125l0 4.078125q0 1.3125 1.3125 1.3125l5.375 0l0 -6.703125zm25.78125 0.265625l0 3.0l3.703125 0q1.0 0 1.0 0.890625q0 0.859375 -1.0 0.859375l-3.703125 0l0 4.015625l5.484375 0q1.03125 0 1.03125 0.890625q0 0.890625 -1.03125 0.890625l-12.265625 0q-1.0 0 -1.0 -0.890625q0 -0.890625 1.0 -0.890625l4.859375 0l0 -4.015625l-3.421875 0q-1.015625 0 -1.015625 -0.890625q0 -0.859375 1.015625 -0.859375l3.421875 0l0 -3.0l-4.203125 0q-1.0 0 -1.0 -0.890625q0 -0.890625 1.0 -0.890625l10.8125 0q1.03125 0 1.03125 0.890625q0 0.890625 -1.03125 0.890625l-4.6875 0zm3.1875 5.296875q0.4375 0 0.96875 0.78125q0.53125 0.78125 0.53125 1.1875q0 0.765625 -0.96875 0.765625q-0.484375 0 -0.8125 -0.578125q-0.3125 -0.59375 -0.515625 -0.9375q-0.140625 -0.265625 -0.140625 -0.421875q0 -0.796875 0.9375 -0.796875zm3.796875 9.265625l-15.125 0q-2.71875 0.140625 -2.546875 -2.609375l0 -15.046875q-0.140625 -2.75 2.546875 -2.609375l15.125 0q2.71875 -0.140625 2.546875 2.609375l0 15.046875q0.140625 2.75 -2.546875 2.609375zm-0.6875 -1.890625q1.25 0 1.25 -1.21875l0 -14.03125q0 -1.25 -1.25 -1.25l-13.75 0q-1.25 0 -1.25 1.25l0 14.03125q0 1.21875 1.25 1.21875l13.75 0z" fill-rule="nonzero"/><path fill="#49352a" d="m411.78616 94.94924l6.09375 0q1.15625 0 1.15625 0.9375q0 0.9375 -1.15625 0.9375l-7.046875 0q-1.59375 0 -1.59375 -1.359375q0 -0.625 1.359375 -2.15625q3.65625 -4.125 5.21875 -6.90625q0.828125 -1.453125 0.828125 -3.0q0 -1.21875 -0.65625 -1.984375q-0.65625 -0.765625 -1.671875 -0.765625q-2.03125 0 -2.4375 2.515625q-0.203125 1.359375 -1.265625 1.359375q-1.140625 0 -1.140625 -1.15625q0 -0.75 0.484375 -1.828125q1.296875 -2.78125 4.453125 -2.78125q2.0625 0 3.34375 1.265625q1.28125 1.265625 1.28125 3.09375q0 3.109375 -4.3125 8.40625l-2.9375 3.421875zm16.4375 -13.28125l0.046875 -0.1875q0 -0.3125 -0.40625 -0.3125l-5.390625 0q-1.265625 0 -1.265625 -1.03125q0 -1.03125 1.265625 -1.03125l6.96875 0q1.46875 0 1.46875 1.40625q0 0.359375 -0.15625 0.78125l-5.703125 14.859375q-0.375 1.03125 -1.171875 1.03125q-1.078125 0 -1.078125 -1.015625q0 -0.28125 0.140625 -0.65625l5.28125 -13.84375zm7.5625 4.984375q1.296875 -1.6875 3.21875 -1.6875q1.9375 0 3.015625 1.625q1.078125 1.609375 1.078125 4.3125q0 6.265625 -5.15625 6.265625q-2.859375 0 -4.140625 -2.171875q-0.609375 -1.03125 -0.609375 -1.75q0 -1.21875 1.078125 -1.21875q0.84375 0 1.390625 1.625q0.546875 1.609375 2.3125 1.609375q2.90625 0 2.90625 -4.4375q0 -4.09375 -2.25 -4.09375q-1.71875 0 -2.578125 2.34375q-0.28125 0.765625 -1.125 0.765625q-1.203125 0 -1.203125 -1.453125l0 -7.28125q0 -0.828125 0.578125 -1.40625q0.59375 -0.59375 1.421875 -0.59375l5.828125 0q1.125 0 1.125 0.96875q0 0.953125 -1.125 0.953125l-5.015625 0q-0.765625 -0.015625 -0.75 0.75l0 4.875zm27.171875 -6.203125l-0.1875 0.65625l-0.515625 1.59375l4.03125 0q0.890625 0 0.890625 0.78125q0 0.765625 -0.890625 0.765625l-14.765625 0q-0.890625 0 -0.890625 -0.765625q0 -0.78125 0.890625 -0.78125l3.296875 0l-0.1875 -0.5625l-0.15625 -0.59375l-0.1875 -0.53125l-0.171875 -0.5625l-1.515625 0q-0.890625 0 -0.890625 -0.765625q0 -0.78125 0.890625 -0.78125l4.96875 0l0 -1.078125q0 -0.890625 1.0 -0.890625q0.984375 0 0.984375 0.890625l0 1.078125l5.65625 0q0.890625 0 0.890625 0.78125q0 0.765625 -0.890625 0.765625l-2.25 0zm-1.921875 0l-5.140625 0l0.65625 2.125l0.046875 0.125l3.875 0l0.046875 -0.09375l0.515625 -2.15625zm-11.1875 2.03125l0 15.390625q0 1.140625 -0.953125 1.140625q-0.9375 0 -0.9375 -1.140625l0 -11.21875q-1.453125 2.84375 -2.046875 2.84375q-0.8125 0 -0.8125 -0.921875q0 -0.421875 0.53125 -1.28125q2.28125 -3.65625 3.734375 -9.125q0.328125 -1.234375 1.140625 -1.234375q0.9375 0 0.9375 0.9375q0 0.515625 -1.59375 4.609375zm13.40625 2.796875q1.875 0.015625 1.875 1.875l0 2.859375q0 1.875 -1.875 1.875l-9.0625 0q-1.859375 -0.03125 -1.859375 -1.8125l0 -2.953125q-0.015625 -1.84375 1.90625 -1.84375l9.015625 0zm-9.140625 3.90625l0 0.734375q0.03125 0.625 0.65625 0.65625l7.859375 0q0.625 -0.03125 0.65625 -0.6875l0 -0.703125l-9.171875 0zm0 -1.28125l9.171875 0l0 -0.640625q-0.03125 -0.65625 -0.65625 -0.671875l-7.859375 0q-0.65625 0.015625 -0.65625 0.65625l0 0.65625zm0.640625 5.859375q0 -1.078125 0.890625 -1.078125q0.859375 0 0.859375 1.078125l0 2.25q0.03125 0.578125 0.734375 0.609375l1.28125 0.046875l0.640625 0l1.75 -0.09375q0.515625 0.015625 0.5625 -0.609375l0 -0.5q0 -0.84375 0.921875 -0.84375q0.9375 0 0.9375 0.96875q0 1.8125 -0.9375 2.34375q-0.703125 0.40625 -4.484375 0.40625q-1.890625 0 -2.4375 -0.21875q-0.71875 -0.296875 -0.71875 -1.25l0 -3.109375zm-2.328125 -0.65625q0.828125 0 0.828125 0.84375q0 0.984375 -0.875 3.171875q-0.390625 1.0 -1.03125 1.0q-0.859375 0 -0.859375 -0.8125q0 -0.21875 0.203125 -0.59375q0.703125 -1.4375 0.9375 -2.84375q0.125 -0.765625 0.796875 -0.765625zm11.703125 -0.1875q0.609375 0 1.78125 1.796875q1.1875 2.0625 1.1875 2.296875q0 0.859375 -0.9375 0.859375q-0.5625 0 -1.03125 -0.921875q-0.8125 -1.5 -1.640625 -2.75q-0.234375 -0.328125 -0.234375 -0.5625q0 -0.71875 0.875 -0.71875zm-5.390625 -0.75q0.375 0 1.0625 0.765625q0.6875 0.75 0.6875 1.0625q0 0.765625 -0.84375 0.765625q-0.390625 0 -1.0625 -0.796875q-0.671875 -0.8125 -0.671875 -1.078125q0 -0.71875 0.828125 -0.71875z" fill-rule="nonzero"/><path fill="#49352a" d="m80.601135 177.18285l6.09375 0q1.15625 0 1.15625 0.9375q0 0.9375 -1.15625 0.9375l-7.046875 0q-1.59375 0 -1.59375 -1.359375q0 -0.625 1.359375 -2.15625q3.65625 -4.125 5.21875 -6.90625q0.828125 -1.453125 0.828125 -3.0q0 -1.21875 -0.65625 -1.984375q-0.65625 -0.765625 -1.671875 -0.765625q-2.03125 0 -2.4375 2.515625q-0.203125 1.359375 -1.265625 1.359375q-1.140625 0 -1.140625 -1.15625q0 -0.75 0.484375 -1.828125q1.296875 -2.78125 4.453125 -2.78125q2.0625 0 3.34375 1.265625q1.28125 1.265625 1.28125 3.09375q0 3.109375 -4.3125 8.40625l-2.9375 3.421875z" fill-rule="nonzero"/><path fill="#49352a" d="m197.59042 169.76097l0.09375 -0.03125q3.0 -0.9375 4.84375 -2.671875q1.84375 -1.75 1.84375 -2.8125q0 -0.625 -0.828125 -0.625l-14.96875 0q-1.296875 0 -1.296875 -1.0625q0 -1.03125 1.296875 -1.03125l16.1875 0q0.9375 0 1.546875 0.703125q0.515625 0.5625 0.515625 1.390625q0 1.9375 -2.25 4.328125q-2.25 2.390625 -6.75 3.875l-0.421875 0.140625q-0.375 2.0625 -1.484375 3.671875q-1.09375 1.59375 -3.140625 3.03125q-2.03125 1.4375 -2.984375 1.4375q-1.15625 0 -1.15625 -1.15625q0 -0.703125 1.34375 -1.296875q5.53125 -2.4375 5.53125 -8.546875l-0.078125 -2.375q0 -1.234375 1.125 -1.234375q1.171875 0 1.171875 1.40625l-0.0625 1.9375l-0.078125 0.921875zm25.203125 -1.34375q1.421875 -2.734375 2.625 -6.75q0.390625 -1.359375 1.28125 -1.359375q1.125 0 1.125 1.0625q0 0.671875 -1.078125 3.5q-1.078125 2.828125 -2.109375 4.671875q4.765625 3.078125 4.765625 4.109375q0 1.140625 -1.171875 1.140625q-0.515625 0 -1.546875 -0.9375q-1.015625 -0.953125 -3.1875 -2.40625q-2.234375 3.375 -5.578125 6.0q-3.328125 2.625 -4.5 2.625q-1.21875 0 -1.21875 -1.15625q0 -0.625 0.984375 -1.125q5.21875 -2.625 8.484375 -7.5q-3.40625 -2.0625 -5.703125 -2.828125q-1.28125 -0.46875 -1.28125 -1.15625q0 -1.046875 1.09375 -1.046875q0.375 0 3.015625 1.1875q2.65625 1.171875 4.0 1.96875zm28.578125 -8.5q1.15625 0 1.15625 1.40625l0 6.0q0 5.078125 -1.40625 7.765625q-1.40625 2.6875 -6.0625 4.78125q-1.578125 0.703125 -2.375 0.703125q-1.1875 0 -1.1875 -1.15625q0 -0.78125 1.671875 -1.21875q1.671875 -0.453125 3.5625 -1.8125q1.890625 -1.359375 2.6875 -3.28125q0.8125 -1.921875 0.8125 -6.015625l0 -5.765625q0 -1.40625 1.140625 -1.40625zm-11.40625 12.203125q0 1.390625 -1.15625 1.390625q-1.140625 0 -1.140625 -1.25l0 -10.40625q0 -1.40625 1.140625 -1.40625q1.15625 0 1.15625 1.265625l0 10.40625zm27.234375 -7.96875l0.09375 -2.71875q0 -1.640625 1.109375 -1.640625q1.125 0 1.125 1.71875l-0.140625 2.640625l6.34375 0q1.03125 0 1.75 0.703125q0.734375 0.703125 0.734375 2.0q0 2.625 -0.59375 6.71875q-0.578125 4.078125 -1.375 5.234375q-0.953125 1.390625 -4.59375 1.390625q-1.5 0 -1.5 -1.28125q0 -1.140625 1.21875 -1.140625l0.40625 0.015625l0.71875 0.046875q1.6875 0 2.109375 -0.765625q0.46875 -0.828125 0.921875 -4.359375q0.46875 -3.546875 0.46875 -5.1875q0 -1.234375 -1.4375 -1.234375l-5.34375 0q-0.46875 3.859375 -1.75 6.578125q-1.265625 2.703125 -3.625 4.875q-2.359375 2.171875 -3.3125 2.171875q-1.078125 0 -1.078125 -1.109375q0 -0.6875 1.1875 -1.4375q5.703125 -3.859375 6.375 -11.078125l-5.734375 0q-1.3125 0 -1.3125 -1.078125q0 -1.0625 1.3125 -1.0625l5.921875 0z" fill-rule="nonzero"/><path fill="#49352a" d="m411.78616 177.18285l6.09375 0q1.15625 0 1.15625 0.9375q0 0.9375 -1.15625 0.9375l-7.046875 0q-1.59375 0 -1.59375 -1.359375q0 -0.625 1.359375 -2.15625q3.65625 -4.125 5.21875 -6.90625q0.828125 -1.453125 0.828125 -3.0q0 -1.21875 -0.65625 -1.984375q-0.65625 -0.765625 -1.671875 -0.765625q-2.03125 0 -2.4375 2.515625q-0.203125 1.359375 -1.265625 1.359375q-1.140625 0 -1.140625 -1.15625q0 -0.75 0.484375 -1.828125q1.296875 -2.78125 4.453125 -2.78125q2.0625 0 3.34375 1.265625q1.28125 1.265625 1.28125 3.09375q0 3.109375 -4.3125 8.40625l-2.9375 3.421875zm12.0 -8.296875q1.296875 -1.6875 3.21875 -1.6875q1.9375 0 3.015625 1.625q1.078125 1.609375 1.078125 4.3125q0 6.265625 -5.15625 6.265625q-2.859375 0 -4.140625 -2.171875q-0.609375 -1.03125 -0.609375 -1.75q0 -1.21875 1.078125 -1.21875q0.84375 0 1.390625 1.625q0.546875 1.609375 2.3125 1.609375q2.90625 0 2.90625 -4.4375q0 -4.09375 -2.25 -4.09375q-1.71875 0 -2.578125 2.34375q-0.28125 0.765625 -1.125 0.765625q-1.203125 0 -1.203125 -1.453125l0 -7.28125q0 -0.828125 0.578125 -1.40625q0.59375 -0.59375 1.421875 -0.59375l5.828125 0q1.125 0 1.125 0.96875q0 0.953125 -1.125 0.953125l-5.015625 0q-0.765625 -0.015625 -0.75 0.75l0 4.875zm14.4375 -7.875q2.765625 0 3.8125 2.4375q1.0625 2.4375 1.0625 6.796875q0 4.875 -1.203125 7.015625q-1.1875 2.140625 -3.765625 2.140625q-2.578125 0 -3.78125 -2.15625q-1.1875 -2.171875 -1.1875 -6.921875q0 -4.671875 1.109375 -6.984375q1.125 -2.328125 3.953125 -2.328125zm-0.140625 1.90625q-2.640625 0 -2.640625 7.296875q0 7.28125 2.6875 7.28125q2.703125 0 2.703125 -7.34375q0 -7.234375 -2.75 -7.234375zm24.875 -0.234375l-0.1875 0.65625l-0.515625 1.59375l4.03125 0q0.890625 0 0.890625 0.78125q0 0.765625 -0.890625 0.765625l-14.765625 0q-0.890625 0 -0.890625 -0.765625q0 -0.78125 0.890625 -0.78125l3.296875 0l-0.1875 -0.5625l-0.15625 -0.59375l-0.1875 -0.53125l-0.171875 -0.5625l-1.515625 0q-0.890625 0 -0.890625 -0.765625q0 -0.78125 0.890625 -0.78125l4.96875 0l0 -1.078125q0 -0.890625 1.0 -0.890625q0.984375 0 0.984375 0.890625l0 1.078125l5.65625 0q0.890625 0 0.890625 0.78125q0 0.765625 -0.890625 0.765625l-2.25 0zm-1.921875 0l-5.140625 0l0.65625 2.125l0.046875 0.125l3.875 0l0.046875 -0.09375l0.515625 -2.15625zm-11.1875 2.03125l0 15.390625q0 1.140625 -0.953125 1.140625q-0.9375 0 -0.9375 -1.140625l0 -11.21875q-1.453125 2.84375 -2.046875 2.84375q-0.8125 0 -0.8125 -0.921875q0 -0.421875 0.53125 -1.28125q2.28125 -3.65625 3.734375 -9.125q0.328125 -1.234375 1.140625 -1.234375q0.9375 0 0.9375 0.9375q0 0.515625 -1.59375 4.609375zm13.40625 2.796875q1.875 0.015625 1.875 1.875l0 2.859375q0 1.875 -1.875 1.875l-9.0625 0q-1.859375 -0.03125 -1.859375 -1.8125l0 -2.953125q-0.015625 -1.84375 1.90625 -1.84375l9.015625 0zm-9.140625 3.90625l0 0.734375q0.03125 0.625 0.65625 0.65625l7.859375 0q0.625 -0.03125 0.65625 -0.6875l0 -0.703125l-9.171875 0zm0 -1.28125l9.171875 0l0 -0.640625q-0.03125 -0.65625 -0.65625 -0.671875l-7.859375 0q-0.65625 0.015625 -0.65625 0.65625l0 0.65625zm0.640625 5.859375q0 -1.078125 0.890625 -1.078125q0.859375 0 0.859375 1.078125l0 2.25q0.03125 0.578125 0.734375 0.609375l1.28125 0.046875l0.640625 0l1.75 -0.09375q0.515625 0.015625 0.5625 -0.609375l0 -0.5q0 -0.84375 0.921875 -0.84375q0.9375 0 0.9375 0.96875q0 1.8125 -0.9375 2.34375q-0.703125 0.40625 -4.484375 0.40625q-1.890625 0 -2.4375 -0.21875q-0.71875 -0.296875 -0.71875 -1.25l0 -3.109375zm-2.328125 -0.65625q0.828125 0 0.828125 0.84375q0 0.984375 -0.875 3.171875q-0.390625 1.0 -1.03125 1.0q-0.859375 0 -0.859375 -0.8125q0 -0.21875 0.203125 -0.59375q0.703125 -1.4375 0.9375 -2.84375q0.125 -0.765625 0.796875 -0.765625zm11.703125 -0.1875q0.609375 0 1.78125 1.796875q1.1875 2.0625 1.1875 2.296875q0 0.859375 -0.9375 0.859375q-0.5625 0 -1.03125 -0.921875q-0.8125 -1.5 -1.640625 -2.75q-0.234375 -0.328125 -0.234375 -0.5625q0 -0.71875 0.875 -0.71875zm-5.390625 -0.75q0.375 0 1.0625 0.765625q0.6875 0.75 0.6875 1.0625q0 0.765625 -0.84375 0.765625q-0.390625 0 -1.0625 -0.796875q-0.671875 -0.8125 -0.671875 -1.078125q0 -0.71875 0.828125 -0.71875z" fill-rule="nonzero"/><path fill="#49352a" d="m84.851135 252.0102q3.140625 1.0625 3.140625 4.453125q0 2.28125 -1.375 3.734375q-1.375 1.4375 -3.859375 1.4375q-2.203125 0 -3.53125 -1.34375q-1.3125 -1.34375 -1.3125 -2.796875q0 -1.140625 1.1875 -1.140625q0.828125 0 1.34375 1.75q0.53125 1.734375 2.359375 1.734375q1.3125 0 2.125 -0.984375q0.828125 -1.0 0.828125 -2.53125q0 -2.390625 -1.78125 -3.09375q-0.703125 -0.296875 -2.4375 -0.296875q-0.890625 0 -0.890625 -0.984375q0 -0.96875 0.921875 -0.96875l1.21875 0.046875q2.71875 0 2.71875 -3.109375q0 -2.890625 -2.421875 -2.890625q-0.984375 0 -1.4375 0.46875q-0.4375 0.46875 -1.0 2.109375q-0.25 0.75 -1.046875 0.75q-1.03125 0 -1.03125 -1.0q0 -1.5 1.21875 -2.796875q1.21875 -1.3125 3.34375 -1.3125q2.1875 0 3.390625 1.3125q1.203125 1.296875 1.203125 3.171875q0 3.109375 -2.640625 4.1875l-0.234375 0.09375z" fill-rule="nonzero"/><path fill="#49352a" d="m226.65292 262.15082l-10.78125 0q-2.96875 0.1875 -2.78125 -2.796875l0 -13.828125q-0.046875 -1.4375 0.75 -2.203125q0.75 -0.59375 1.9375 -0.59375l10.875 0q1.40625 -0.046875 2.203125 0.75q0.59375 0.734375 0.59375 1.953125l0 13.921875q0.1875 2.984375 -2.796875 2.796875zm-11.359375 -10.890625l11.953125 0l0 -5.0625q-0.03125 -1.3125 -1.359375 -1.359375l-9.234375 0q-1.359375 0.046875 -1.359375 1.40625l0 5.015625zm0 2.0625l0 5.34375q0.046875 1.359375 1.40625 1.359375l9.1875 0q1.3125 -0.015625 1.359375 -1.359375l0 -5.34375l-11.953125 0zm31.421875 -5.484375q1.21875 2.625 3.546875 5.203125q2.34375 2.5625 4.921875 4.0625q0.9375 0.53125 0.9375 1.234375q0 1.21875 -1.125 1.21875q-1.078125 0 -4.0 -2.96875q-2.921875 -2.984375 -4.984375 -6.84375l0 7.78125l3.796875 0q1.078125 0 1.078125 1.0q0 0.984375 -1.078125 0.984375l-3.796875 0l0 2.703125q0 1.265625 -1.046875 1.265625q-1.03125 0 -1.03125 -1.265625l0 -2.703125l-3.609375 0q-1.078125 0 -1.078125 -1.0q0 -0.984375 1.078125 -0.984375l3.609375 0l0 -7.828125l-0.09375 0.1875q-1.859375 3.4375 -4.8125 6.625q-2.953125 3.171875 -3.859375 3.171875q-1.125 0 -1.125 -1.171875q0 -0.65625 0.765625 -1.203125q2.515625 -1.75 4.859375 -4.515625q2.34375 -2.765625 3.375 -4.953125l-7.390625 0q-1.28125 0 -1.28125 -1.046875q0 -1.0625 1.28125 -1.0625l8.28125 0l0 -3.015625q0 -1.3125 1.046875 -1.3125q1.03125 0 1.03125 1.3125l0 3.015625l8.484375 0q1.3125 0 1.3125 1.0625q0 1.046875 -1.3125 1.046875l-7.78125 0z" fill-rule="nonzero"/><path fill="#49352a" d="m413.9424 246.5727q-1.171875 1.390625 -1.9375 1.390625q-1.15625 0 -1.15625 -1.125q0 -0.640625 0.828125 -1.109375q0.9375 -0.609375 2.296875 -2.078125q0.34375 -0.40625 0.90625 -0.40625q1.34375 0 1.34375 1.359375l0 15.640625q0 1.390625 -1.15625 1.390625q-1.125 0 -1.125 -1.390625l0 -13.671875zm9.84375 12.84375l6.09375 0q1.15625 0 1.15625 0.9375q0 0.9375 -1.15625 0.9375l-7.046875 0q-1.59375 0 -1.59375 -1.359375q0 -0.625 1.359375 -2.15625q3.65625 -4.125 5.21875 -6.90625q0.828125 -1.453125 0.828125 -3.0q0 -1.21875 -0.65625 -1.984375q-0.65625 -0.765625 -1.671875 -0.765625q-2.03125 0 -2.4375 2.515625q-0.203125 1.359375 -1.265625 1.359375q-1.140625 0 -1.140625 -1.15625q0 -0.75 0.484375 -1.828125q1.296875 -2.78125 4.453125 -2.78125q2.0625 0 3.34375 1.265625q1.28125 1.265625 1.28125 3.09375q0 3.109375 -4.3125 8.40625l-2.9375 3.421875zm12.0 -8.296875q1.296875 -1.6875 3.21875 -1.6875q1.9375 0 3.015625 1.625q1.078125 1.609375 1.078125 4.3125q0 6.265625 -5.15625 6.265625q-2.859375 0 -4.140625 -2.171875q-0.609375 -1.03125 -0.609375 -1.75q0 -1.21875 1.078125 -1.21875q0.84375 0 1.390625 1.625q0.546875 1.609375 2.3125 1.609375q2.90625 0 2.90625 -4.4375q0 -4.09375 -2.25 -4.09375q-1.71875 0 -2.578125 2.34375q-0.28125 0.765625 -1.125 0.765625q-1.203125 0 -1.203125 -1.453125l0 -7.28125q0 -0.828125 0.578125 -1.40625q0.59375 -0.59375 1.421875 -0.59375l5.828125 0q1.125 0 1.125 0.96875q0 0.953125 -1.125 0.953125l-5.015625 0q-0.765625 -0.015625 -0.75 0.75l0 4.875zm27.171875 -6.203125l-0.1875 0.65625l-0.515625 1.59375l4.03125 0q0.890625 0 0.890625 0.78125q0 0.765625 -0.890625 0.765625l-14.765625 0q-0.890625 0 -0.890625 -0.765625q0 -0.78125 0.890625 -0.78125l3.296875 0l-0.1875 -0.5625l-0.15625 -0.59375l-0.1875 -0.53125l-0.171875 -0.5625l-1.515625 0q-0.890625 0 -0.890625 -0.765625q0 -0.78125 0.890625 -0.78125l4.96875 0l0 -1.078125q0 -0.890625 1.0 -0.890625q0.984375 0 0.984375 0.890625l0 1.078125l5.65625 0q0.890625 0 0.890625 0.78125q0 0.765625 -0.890625 0.765625l-2.25 0zm-1.921875 0l-5.140625 0l0.65625 2.125l0.046875 0.125l3.875 0l0.046875 -0.09375l0.515625 -2.15625zm-11.1875 2.03125l0 15.390625q0 1.140625 -0.953125 1.140625q-0.9375 0 -0.9375 -1.140625l0 -11.21875q-1.453125 2.84375 -2.046875 2.84375q-0.8125 0 -0.8125 -0.921875q0 -0.421875 0.53125 -1.28125q2.28125 -3.65625 3.734375 -9.125q0.328125 -1.234375 1.140625 -1.234375q0.9375 0 0.9375 0.9375q0 0.515625 -1.59375 4.609375zm13.40625 2.796875q1.875 0.015625 1.875 1.875l0 2.859375q0 1.875 -1.875 1.875l-9.0625 0q-1.859375 -0.03125 -1.859375 -1.8125l0 -2.953125q-0.015625 -1.84375 1.90625 -1.84375l9.015625 0zm-9.140625 3.90625l0 0.734375q0.03125 0.625 0.65625 0.65625l7.859375 0q0.625 -0.03125 0.65625 -0.6875l0 -0.703125l-9.171875 0zm0 -1.28125l9.171875 0l0 -0.640625q-0.03125 -0.65625 -0.65625 -0.671875l-7.859375 0q-0.65625 0.015625 -0.65625 0.65625l0 0.65625zm0.640625 5.859375q0 -1.078125 0.890625 -1.078125q0.859375 0 0.859375 1.078125l0 2.25q0.03125 0.578125 0.734375 0.609375l1.28125 0.046875l0.640625 0l1.75 -0.09375q0.515625 0.015625 0.5625 -0.609375l0 -0.5q0 -0.84375 0.921875 -0.84375q0.9375 0 0.9375 0.96875q0 1.8125 -0.9375 2.34375q-0.703125 0.40625 -4.484375 0.40625q-1.890625 0 -2.4375 -0.21875q-0.71875 -0.296875 -0.71875 -1.25l0 -3.109375zm-2.328125 -0.65625q0.828125 0 0.828125 0.84375q0 0.984375 -0.875 3.171875q-0.390625 1.0 -1.03125 1.0q-0.859375 0 -0.859375 -0.8125q0 -0.21875 0.203125 -0.59375q0.703125 -1.4375 0.9375 -2.84375q0.125 -0.765625 0.796875 -0.765625zm11.703125 -0.1875q0.609375 0 1.78125 1.796875q1.1875 2.0625 1.1875 2.296875q0 0.859375 -0.9375 0.859375q-0.5625 0 -1.03125 -0.921875q-0.8125 -1.5 -1.640625 -2.75q-0.234375 -0.328125 -0.234375 -0.5625q0 -0.71875 0.875 -0.71875zm-5.390625 -0.75q0.375 0 1.0625 0.765625q0.6875 0.75 0.6875 1.0625q0 0.765625 -0.84375 0.765625q-0.390625 0 -1.0625 -0.796875q-0.671875 -0.8125 -0.671875 -1.078125q0 -0.71875 0.828125 -0.71875z" fill-rule="nonzero"/><path fill="#49352a" d="m86.21051 337.5719l0.984375 0q1.140625 0 1.140625 0.9375q0 0.9375 -1.140625 0.9375l-0.984375 0l0 3.171875q0 1.25 -1.03125 1.25q-1.03125 0 -1.03125 -1.25l0 -3.171875l-5.140625 0q-1.421875 0 -1.421875 -1.375q0 -0.5 0.25 -0.984375l5.671875 -10.640625q0.515625 -0.984375 1.359375 -0.984375q1.34375 0 1.34375 1.59375l0 10.515625zm-6.546875 0l4.484375 0l0 -8.484375l-4.484375 8.484375z" fill-rule="nonzero"/><path fill="#49352a" d="m207.09042 330.61877q3.890625 1.515625 7.03125 3.4375q3.15625 1.921875 3.15625 2.765625q0 1.171875 -1.234375 1.171875q-0.515625 0 -1.40625 -0.71875q-3.609375 -2.984375 -7.546875 -4.453125l0 10.78125q0 1.359375 -1.109375 1.359375q-1.125 0 -1.125 -1.359375l0 -17.796875q0 -1.375 1.125 -1.375q1.109375 0 1.109375 1.375l0 4.8125zm9.421875 -5.65625q0 -0.890625 0.8125 -0.890625q0.828125 0 0.828125 0.890625l0 2.328125q0 0.84375 -0.828125 0.84375q-0.8125 0 -0.8125 -0.84375l0 -2.328125zm-2.65625 0q0 -0.890625 0.8125 -0.890625q0.828125 0 0.828125 0.890625l0 2.328125q0 0.84375 -0.828125 0.84375q-0.8125 0 -0.8125 -0.84375l0 -2.328125zm21.78125 6.703125l0 12.171875q0 1.40625 -1.15625 1.40625q-1.125 0 -1.125 -1.40625l0 -10.53125q-2.390625 1.625 -5.375 3.125q-2.984375 1.5 -3.90625 1.5q-1.046875 0 -1.046875 -1.15625q0 -0.4375 0.28125 -0.671875q0.234375 -0.21875 3.375 -1.5q7.328125 -3.375 11.8125 -8.609375q0.90625 -1.125 1.546875 -1.125q1.140625 0 1.140625 1.03125q0 1.34375 -5.546875 5.765625zm13.3125 -4.96875q0.890625 0 2.0625 2.15625q1.828125 3.375 1.828125 3.84375q0 1.109375 -1.15625 1.109375q-0.8125 0 -1.328125 -1.28125q-0.5 -1.28125 -2.046875 -3.765625q-0.46875 -0.75 -0.46875 -1.09375q0 -0.96875 1.109375 -0.96875zm6.390625 -0.765625q0.78125 0 2.1875 2.671875q1.40625 2.671875 1.40625 3.296875q0 1.078125 -1.15625 1.078125q-0.8125 0 -1.3125 -1.34375q-0.484375 -1.34375 -1.359375 -2.890625q-0.859375 -1.546875 -0.859375 -1.859375q0 -0.953125 1.09375 -0.953125zm10.40625 0.296875q1.171875 0 1.171875 1.15625q0 0.34375 -0.71875 3.390625q-0.703125 3.046875 -1.90625 5.3125q-1.1875 2.265625 -2.96875 4.03125q-1.765625 1.765625 -4.421875 3.234375q-2.65625 1.453125 -3.734375 1.453125q-0.5 0 -0.875 -0.375q-0.375 -0.375 -0.375 -0.828125q0 -0.796875 1.578125 -1.25q2.4375 -0.703125 5.15625 -2.875q4.5 -3.421875 5.875 -11.9375q0.21875 -1.3125 1.21875 -1.3125z" fill-rule="nonzero"/><path fill="#49352a" d="m423.39554 337.5719l0.984375 0q1.140625 0 1.140625 0.9375q0 0.9375 -1.140625 0.9375l-0.984375 0l0 3.171875q0 1.25 -1.03125 1.25q-1.03125 0 -1.03125 -1.25l0 -3.171875l-5.140625 0q-1.421875 0 -1.421875 -1.375q0 -0.5 0.25 -0.984375l5.671875 -10.640625q0.515625 -0.984375 1.359375 -0.984375q1.34375 0 1.34375 1.59375l0 10.515625zm-6.546875 0l4.484375 0l0 -8.484375l-4.484375 8.484375zm17.1875 -3.328125q3.140625 1.0625 3.140625 4.453125q0 2.28125 -1.375 3.734375q-1.375 1.4375 -3.859375 1.4375q-2.203125 0 -3.53125 -1.34375q-1.3125 -1.34375 -1.3125 -2.796875q0 -1.140625 1.1875 -1.140625q0.828125 0 1.34375 1.75q0.53125 1.734375 2.359375 1.734375q1.3125 0 2.125 -0.984375q0.828125 -1.0 0.828125 -2.53125q0 -2.390625 -1.78125 -3.09375q-0.703125 -0.296875 -2.4375 -0.296875q-0.890625 0 -0.890625 -0.984375q0 -0.96875 0.921875 -0.96875l1.21875 0.046875q2.71875 0 2.71875 -3.109375q0 -2.890625 -2.421875 -2.890625q-0.984375 0 -1.4375 0.46875q-0.4375 0.46875 -1.0 2.109375q-0.25 0.75 -1.046875 0.75q-1.03125 0 -1.03125 -1.0q0 -1.5 1.21875 -2.796875q1.21875 -1.3125 3.34375 -1.3125q2.1875 0 3.390625 1.3125q1.203125 1.296875 1.203125 3.171875q0 3.109375 -2.640625 4.1875l-0.234375 0.09375zm22.921875 -7.09375l-0.1875 0.65625l-0.515625 1.59375l4.03125 0q0.890625 0 0.890625 0.78125q0 0.765625 -0.890625 0.765625l-14.765625 0q-0.890625 0 -0.890625 -0.765625q0 -0.78125 0.890625 -0.78125l3.296875 0l-0.1875 -0.5625l-0.15625 -0.59375l-0.1875 -0.53125l-0.171875 -0.5625l-1.515625 0q-0.890625 0 -0.890625 -0.765625q0 -0.78125 0.890625 -0.78125l4.96875 0l0 -1.078125q0 -0.890625 1.0 -0.890625q0.984375 0 0.984375 0.890625l0 1.078125l5.65625 0q0.890625 0 0.890625 0.78125q0 0.765625 -0.890625 0.765625l-2.25 0zm-1.921875 0l-5.140625 0l0.65625 2.125l0.046875 0.125l3.875 0l0.046875 -0.09375l0.515625 -2.15625zm-11.1875 2.03125l0 15.390625q0 1.140625 -0.953125 1.140625q-0.9375 0 -0.9375 -1.140625l0 -11.21875q-1.453125 2.84375 -2.046875 2.84375q-0.8125 0 -0.8125 -0.921875q0 -0.421875 0.53125 -1.28125q2.28125 -3.65625 3.734375 -9.125q0.328125 -1.234375 1.140625 -1.234375q0.9375 0 0.9375 0.9375q0 0.515625 -1.59375 4.609375zm13.40625 2.796875q1.875 0.015625 1.875 1.875l0 2.859375q0 1.875 -1.875 1.875l-9.0625 0q-1.859375 -0.03125 -1.859375 -1.8125l0 -2.953125q-0.015625 -1.84375 1.90625 -1.84375l9.015625 0zm-9.140625 3.90625l0 0.734375q0.03125 0.625 0.65625 0.65625l7.859375 0q0.625 -0.03125 0.65625 -0.6875l0 -0.703125l-9.171875 0zm0 -1.28125l9.171875 0l0 -0.640625q-0.03125 -0.65625 -0.65625 -0.671875l-7.859375 0q-0.65625 0.015625 -0.65625 0.65625l0 0.65625zm0.640625 5.859375q0 -1.078125 0.890625 -1.078125q0.859375 0 0.859375 1.078125l0 2.25q0.03125 0.578125 0.734375 0.609375l1.28125 0.046875l0.640625 0l1.75 -0.09375q0.515625 0.015625 0.5625 -0.609375l0 -0.5q0 -0.84375 0.921875 -0.84375q0.9375 0 0.9375 0.96875q0 1.8125 -0.9375 2.34375q-0.703125 0.40625 -4.484375 0.40625q-1.890625 0 -2.4375 -0.21875q-0.71875 -0.296875 -0.71875 -1.25l0 -3.109375zm-2.328125 -0.65625q0.828125 0 0.828125 0.84375q0 0.984375 -0.875 3.171875q-0.390625 1.0 -1.03125 1.0q-0.859375 0 -0.859375 -0.8125q0 -0.21875 0.203125 -0.59375q0.703125 -1.4375 0.9375 -2.84375q0.125 -0.765625 0.796875 -0.765625zm11.703125 -0.1875q0.609375 0 1.78125 1.796875q1.1875 2.0625 1.1875 2.296875q0 0.859375 -0.9375 0.859375q-0.5625 0 -1.03125 -0.921875q-0.8125 -1.5 -1.640625 -2.75q-0.234375 -0.328125 -0.234375 -0.5625q0 -0.71875 0.875 -0.71875zm-5.390625 -0.75q0.375 0 1.0625 0.765625q0.6875 0.75 0.6875 1.0625q0 0.765625 -0.84375 0.765625q-0.390625 0 -1.0625 -0.796875q-0.671875 -0.8125 -0.671875 -1.078125q0 -0.71875 0.828125 -0.71875z" fill-rule="nonzero"/><path fill="#49352a" d="m80.601135 415.58676q1.296875 -1.6875 3.21875 -1.6875q1.9375 0 3.015625 1.625q1.078125 1.609375 1.078125 4.3125q0 6.265625 -5.15625 6.265625q-2.859375 0 -4.140625 -2.171875q-0.609375 -1.03125 -0.609375 -1.75q0 -1.21875 1.078125 -1.21875q0.84375 0 1.390625 1.625q0.546875 1.609375 2.3125 1.609375q2.90625 0 2.90625 -4.4375q0 -4.09375 -2.25 -4.09375q-1.71875 0 -2.578125 2.34375q-0.28125 0.765625 -1.125 0.765625q-1.203125 0 -1.203125 -1.453125l0 -7.28125q0 -0.828125 0.578125 -1.40625q0.59375 -0.59375 1.421875 -0.59375l5.828125 0q1.125 0 1.125 0.96875q0 0.953125 -1.125 0.953125l-5.015625 0q-0.765625 -0.015625 -0.75 0.75l0 4.875z" fill-rule="nonzero"/><path fill="#49352a" d="m199.6373 413.89926l0 12.171875q0 1.40625 -1.15625 1.40625q-1.125 0 -1.125 -1.40625l0 -10.53125q-2.390625 1.625 -5.375 3.125q-2.984375 1.5 -3.90625 1.5q-1.046875 0 -1.046875 -1.15625q0 -0.4375 0.28125 -0.671875q0.234375 -0.21875 3.375 -1.5q7.328125 -3.375 11.8125 -8.609375q0.90625 -1.125 1.546875 -1.125q1.140625 0 1.140625 1.03125q0 1.34375 -5.546875 5.765625zm20.3125 6.125l-8.390625 0.46875l-0.046875 0.015625q-0.328125 0.078125 -0.75 -0.109375q-0.53125 -0.265625 -0.53125 -0.9375q0 -0.96875 1.1875 -1.03125l8.375 -0.46875l-0.328125 -4.765625l-6.875 0.40625q-1.0 0 -1.0 -1.0625q0 -0.953125 1.1875 -1.03125l6.546875 -0.375l-0.265625 -3.625q0 -1.03125 1.109375 -1.03125q1.0 0 1.09375 1.265625l0.234375 3.25l7.25 -0.421875q1.078125 -0.046875 1.078125 1.0625q0 0.984375 -1.21875 1.046875l-6.96875 0.40625l0.328125 4.75l8.609375 -0.484375l0.046875 -0.03125l0.0625 0q0.265625 0 0.59375 0.3125q0.328125 0.296875 0.328125 0.75q0 0.984375 -1.171875 1.046875l-8.296875 0.46875l0.421875 6.09375l0 0.265625q-0.078125 1.15625 -1.09375 1.15625q-1.0 0 -1.09375 -1.265625l-0.421875 -6.125zm10.078125 -12.984375q0 -0.875 0.828125 -0.875q0.796875 0 0.796875 0.875l0 1.921875q0 0.859375 -0.796875 0.859375q-0.828125 0 -0.828125 -0.859375l0 -1.921875zm-2.671875 0q0 -0.875 0.8125 -0.875q0.828125 0 0.828125 0.875l0 1.921875q0 0.859375 -0.828125 0.859375q-0.8125 0 -0.8125 -0.859375l0 -1.921875zm24.015625 -0.421875q1.15625 0 1.15625 1.40625l0 6.0q0 5.078125 -1.40625 7.765625q-1.40625 2.6875 -6.0625 4.78125q-1.578125 0.703125 -2.375 0.703125q-1.1875 0 -1.1875 -1.15625q0 -0.78125 1.671875 -1.21875q1.671875 -0.453125 3.5625 -1.8125q1.890625 -1.359375 2.6875 -3.28125q0.8125 -1.921875 0.8125 -6.015625l0 -5.765625q0 -1.40625 1.140625 -1.40625zm-11.40625 12.203125q0 1.390625 -1.15625 1.390625q-1.140625 0 -1.140625 -1.25l0 -10.40625q0 -1.40625 1.140625 -1.40625q1.15625 0 1.15625 1.265625l0 10.40625zm31.828125 -0.890625q3.078125 2.28125 5.140625 4.328125q2.0625 2.03125 2.0625 2.640625q0 1.203125 -1.25 1.203125q-0.671875 0 -1.46875 -1.046875q-2.65625 -3.25 -5.84375 -5.546875q-3.390625 3.4375 -7.515625 5.578125q-1.953125 1.015625 -2.515625 1.015625q-1.140625 0 -1.140625 -1.140625q0 -0.71875 1.265625 -1.21875q3.15625 -1.21875 6.453125 -3.984375q3.296875 -2.78125 5.609375 -6.953125q0.734375 -1.3125 0.734375 -1.71875q0 -0.625 -0.828125 -0.625l-10.515625 0q-1.3125 0 -1.3125 -1.078125q0 -1.0625 1.3125 -1.0625l12.0 0q0.84375 0 1.40625 0.59375q0.5625 0.578125 0.5625 1.3125q0 1.828125 -2.953125 6.109375l-1.203125 1.59375z" fill-rule="nonzero"/><path fill="#49352a" d="m423.39554 419.8055l0.984375 0q1.140625 0 1.140625 0.9375q0 0.9375 -1.140625 0.9375l-0.984375 0l0 3.171875q0 1.25 -1.03125 1.25q-1.03125 0 -1.03125 -1.25l0 -3.171875l-5.140625 0q-1.421875 0 -1.421875 -1.375q0 -0.5 0.25 -0.984375l5.671875 -10.640625q0.515625 -0.984375 1.359375 -0.984375q1.34375 0 1.34375 1.59375l0 10.515625zm-6.546875 0l4.484375 0l0 -8.484375l-4.484375 8.484375zm12.9375 4.078125l6.09375 0q1.15625 0 1.15625 0.9375q0 0.9375 -1.15625 0.9375l-7.046875 0q-1.59375 0 -1.59375 -1.359375q0 -0.625 1.359375 -2.15625q3.65625 -4.125 5.21875 -6.90625q0.828125 -1.453125 0.828125 -3.0q0 -1.21875 -0.65625 -1.984375q-0.65625 -0.765625 -1.671875 -0.765625q-2.03125 0 -2.4375 2.515625q-0.203125 1.359375 -1.265625 1.359375q-1.140625 0 -1.140625 -1.15625q0 -0.75 0.484375 -1.828125q1.296875 -2.78125 4.453125 -2.78125q2.0625 0 3.34375 1.265625q1.28125 1.265625 1.28125 3.09375q0 3.109375 -4.3125 8.40625l-2.9375 3.421875zm27.171875 -14.5l-0.1875 0.65625l-0.515625 1.59375l4.03125 0q0.890625 0 0.890625 0.78125q0 0.765625 -0.890625 0.765625l-14.765625 0q-0.890625 0 -0.890625 -0.765625q0 -0.78125 0.890625 -0.78125l3.296875 0l-0.1875 -0.5625l-0.15625 -0.59375l-0.1875 -0.53125l-0.171875 -0.5625l-1.515625 0q-0.890625 0 -0.890625 -0.765625q0 -0.78125 0.890625 -0.78125l4.96875 0l0 -1.078125q0 -0.890625 1.0 -0.890625q0.984375 0 0.984375 0.890625l0 1.078125l5.65625 0q0.890625 0 0.890625 0.78125q0 0.765625 -0.890625 0.765625l-2.25 0zm-1.921875 0l-5.140625 0l0.65625 2.125l0.046875 0.125l3.875 0l0.046875 -0.09375l0.515625 -2.15625zm-11.1875 2.03125l0 15.390625q0 1.140625 -0.953125 1.140625q-0.9375 0 -0.9375 -1.140625l0 -11.21875q-1.453125 2.84375 -2.046875 2.84375q-0.8125 0 -0.8125 -0.921875q0 -0.421875 0.53125 -1.28125q2.28125 -3.65625 3.734375 -9.125q0.328125 -1.234375 1.140625 -1.234375q0.9375 0 0.9375 0.9375q0 0.515625 -1.59375 4.609375zm13.40625 2.796875q1.875 0.015625 1.875 1.875l0 2.859375q0 1.875 -1.875 1.875l-9.0625 0q-1.859375 -0.03125 -1.859375 -1.8125l0 -2.953125q-0.015625 -1.84375 1.90625 -1.84375l9.015625 0zm-9.140625 3.90625l0 0.734375q0.03125 0.625 0.65625 0.65625l7.859375 0q0.625 -0.03125 0.65625 -0.6875l0 -0.703125l-9.171875 0zm0 -1.28125l9.171875 0l0 -0.640625q-0.03125 -0.65625 -0.65625 -0.671875l-7.859375 0q-0.65625 0.015625 -0.65625 0.65625l0 0.65625zm0.640625 5.859375q0 -1.078125 0.890625 -1.078125q0.859375 0 0.859375 1.078125l0 2.25q0.03125 0.578125 0.734375 0.609375l1.28125 0.046875l0.640625 0l1.75 -0.09375q0.515625 0.015625 0.5625 -0.609375l0 -0.5q0 -0.84375 0.921875 -0.84375q0.9375 0 0.9375 0.96875q0 1.8125 -0.9375 2.34375q-0.703125 0.40625 -4.484375 0.40625q-1.890625 0 -2.4375 -0.21875q-0.71875 -0.296875 -0.71875 -1.25l0 -3.109375zm-2.328125 -0.65625q0.828125 0 0.828125 0.84375q0 0.984375 -0.875 3.171875q-0.390625 1.0 -1.03125 1.0q-0.859375 0 -0.859375 -0.8125q0 -0.21875 0.203125 -0.59375q0.703125 -1.4375 0.9375 -2.84375q0.125 -0.765625 0.796875 -0.765625zm11.703125 -0.1875q0.609375 0 1.78125 1.796875q1.1875 2.0625 1.1875 2.296875q0 0.859375 -0.9375 0.859375q-0.5625 0 -1.03125 -0.921875q-0.8125 -1.5 -1.640625 -2.75q-0.234375 -0.328125 -0.234375 -0.5625q0 -0.71875 0.875 -0.71875zm-5.390625 -0.75q0.375 0 1.0625 0.765625q0.6875 0.75 0.6875 1.0625q0 0.765625 -0.84375 0.765625q-0.390625 0 -1.0625 -0.796875q-0.671875 -0.8125 -0.671875 -1.078125q0 -0.71875 0.828125 -0.71875z" fill-rule="nonzero"/><path fill="#000000" fill-opacity="0.0" d="m259.97113 471.41733l269.7008 0l0 42.04721l-269.7008 0z" fill-rule="evenodd"/><path fill="#ffffff" d="m360.7344 480.41733l159.93753 0l0 16.0l-159.93753 0l0 -16.0z" fill-rule="nonzero"/><path fill="#000000" d="m327.95316 487.74857l0 4.734375l3.359375 0q0.5625 0 0.578125 -0.5625l0 -2.625q0 -0.703125 0.59375 -0.703125q0.5625 0 0.5625 0.71875l0 2.859375q0.03125 0.703125 -0.34375 1.109375q-0.390625 0.375 -1.109375 0.359375l-8.3125 0q-0.71875 0.015625 -1.109375 -0.359375q-0.375 -0.40625 -0.359375 -1.109375l0 -2.859375q0 -0.703125 0.578125 -0.703125q0.578125 0 0.578125 0.6875l0 2.625q0 0.5625 0.578125 0.5625l3.265625 0l0 -4.734375l-3.0625 0q-1.421875 0.078125 -1.328125 -1.328125l0 -2.609375q0 -0.703125 0.5625 -0.703125q0.578125 0 0.578125 0.640625l0 2.328125q0.015625 0.546875 0.578125 0.5625l2.671875 0l0 -3.90625q0 -0.703125 0.5625 -0.703125q0.578125 0 0.578125 0.703125l0 3.90625l2.796875 0q0.5625 -0.015625 0.5625 -0.5625l0 -2.328125q0 -0.640625 0.578125 -0.640625q0.578125 0 0.578125 0.703125l0 2.609375q0.09375 1.421875 -1.34375 1.328125l-3.171875 0zm7.671875 2.5625l0 -5.40625q-0.0625 -1.3125 1.21875 -1.234375l1.8125 0l0 -1.140625q0 -0.5 0.515625 -0.5q0.53125 0 0.53125 0.5l0 1.140625l1.953125 0l0 -1.140625q0 -0.5 0.515625 -0.5q0.515625 0 0.515625 0.5l0 1.140625l1.953125 0q1.296875 -0.078125 1.21875 1.234375l0 5.40625l0.5 0q0.515625 0 0.515625 0.53125q0 0.515625 -0.515625 0.515625l-11.234375 0q-0.515625 0 -0.515625 -0.515625q0 -0.53125 0.515625 -0.53125l0.5 0zm7.0625 0l2.109375 0l0 -2.4375l-2.109375 0l0 2.4375zm-1.03125 0l0 -2.4375l-1.953125 0l0 2.4375l1.953125 0zm-3.0 0l0 -2.4375l-1.96875 0l0 2.4375l1.96875 0zm4.03125 -3.421875l2.109375 0l0 -1.71875q-0.015625 -0.421875 -0.453125 -0.4375l-1.65625 0l0 2.15625zm-1.03125 0l0 -2.15625l-1.953125 0l0 2.15625l1.953125 0zm-3.0 0l0 -2.15625l-1.515625 0q-0.4375 0.015625 -0.453125 0.4375l0 1.71875l1.96875 0zm-0.125 4.828125q0.578125 0 0.578125 0.546875q0 0.3125 -0.65625 0.71875q-0.65625 0.40625 -1.859375 0.8125q-1.1875 0.421875 -1.421875 0.421875q-0.5625 0 -0.5625 -0.5625q0 -0.46875 0.640625 -0.609375q1.59375 -0.3125 2.8125 -1.140625q0.28125 -0.1875 0.46875 -0.1875zm4.375 -0.015625q0.171875 0 0.484375 0.203125q1.171875 0.734375 2.890625 1.078125q0.59375 0.125 0.59375 0.578125q0 0.625 -0.59375 0.625q-0.203125 0 -1.46875 -0.4375q-1.265625 -0.421875 -1.890625 -0.78125q-0.625 -0.375 -0.625 -0.703125q0 -0.5625 0.609375 -0.5625zm11.1875 -1.4375q0.375 0 0.640625 0.296875q0.28125 0.28125 0.28125 0.640625q0 0.40625 -0.28125 0.6875q-0.28125 0.265625 -0.65625 0.265625q-0.390625 0 -0.671875 -0.28125q-0.265625 -0.296875 -0.265625 -0.671875q0 -0.375 0.265625 -0.65625q0.28125 -0.28125 0.6875 -0.28125zm0 -6.125q0.359375 0 0.640625 0.28125q0.28125 0.265625 0.28125 0.65625q0 0.390625 -0.28125 0.671875q-0.28125 0.265625 -0.65625 0.265625q-0.390625 0 -0.671875 -0.28125q-0.265625 -0.28125 -0.265625 -0.65625q0 -0.390625 0.265625 -0.65625q0.28125 -0.28125 0.6875 -0.28125z" fill-rule="nonzero"/><path fill="#333333" d="m366.87503 483.2017l6.0 0q0.53125 0 0.53125 0.546875q0 0.515625 -0.53125 0.515625l-6.5 0l-0.0625 0.109375q-0.328125 0.625 -0.890625 1.359375q-0.5625 0.71875 -0.875 0.71875q-0.5625 0 -0.5625 -0.59375q0 -0.203125 0.28125 -0.5q0.984375 -1.0625 1.625 -2.75q0.21875 -0.578125 0.671875 -0.578125q0.5625 0 0.5625 0.421875q0 0.203125 -0.25 0.75zm5.5 6.09375l-0.03125 0.4375l-0.078125 1.734375l0.65625 0q0.484375 0 0.484375 0.484375q0 0.484375 -0.484375 0.484375l-0.734375 0q-0.140625 1.046875 -0.578125 1.421875q-0.4375 0.34375 -1.953125 0.421875l-0.140625 0q-0.53125 0 -0.53125 -0.5625q0 -0.359375 0.234375 -0.484375q0.109375 -0.046875 0.78125 -0.0625q0.671875 -0.015625 0.890625 -0.140625q0.15625 -0.09375 0.203125 -0.59375l-4.890625 0q-1.15625 0 -1.15625 -0.9375l0.1875 -1.828125l0.03125 -0.328125l0.015625 -0.046875l-0.609375 0q-0.546875 0 -0.546875 -0.46875q0 -0.484375 0.546875 -0.484375l0.703125 0l0.015625 -0.34375l0.125 -1.265625q0.015625 -1.5 1.21875 -1.46875l4.5625 0q1.171875 0 1.171875 1.03125l0 0.265625l-0.03125 0.84375l-0.046875 0.9375l0.578125 0q0.5625 0 0.5625 0.484375q0 0.46875 -0.5625 0.46875l-0.59375 0zm-1.078125 0l-2.0 0l-0.03125 0.46875l-0.03125 0.46875l-0.078125 1.234375l2.03125 0l0.109375 -2.171875zm-3.0 0l-1.953125 0l-0.125 1.234375l-0.0625 0.578125q0 0.359375 0.421875 0.359375l1.578125 0l0.140625 -2.171875zm-1.875 -0.953125l1.9375 0l0.125 -2.09375l-1.5 0q-0.390625 0 -0.4375 0.4375l-0.125 1.65625zm2.9375 0l1.96875 0l0.015625 -0.0625l0 -0.046875l0.046875 -1.390625l0.015625 -0.21875q0 -0.375 -0.421875 -0.375l-1.5 0l-0.015625 0.359375l-0.09375 1.53125l-0.015625 0.203125zm-7.203125 -2.609375q0.28125 0 1.359375 0.515625q0.515625 0.25 0.515625 0.640625q0 0.625 -0.609375 0.625q-0.171875 0 -0.484375 -0.15625q-0.296875 -0.15625 -0.6875 -0.328125q-0.703125 -0.296875 -0.703125 -0.703125q0 -0.59375 0.609375 -0.59375zm0.640625 -3.40625q0.28125 0 1.0625 0.40625q0.796875 0.40625 0.796875 0.8125q0 0.625 -0.625 0.625q-0.171875 0 -0.484375 -0.1875q-0.390625 -0.25 -0.75 -0.40625q-0.609375 -0.296875 -0.609375 -0.65625q0 -0.59375 0.609375 -0.59375zm0.828125 6.828125q0.578125 0 0.578125 0.578125q0 0.359375 -0.671875 2.09375q-0.65625 1.734375 -0.8125 1.9375q-0.171875 0.234375 -0.484375 0.234375q-0.640625 0 -0.640625 -0.65625q0 -0.15625 0.109375 -0.375q0.609375 -1.203125 1.25 -3.078125q0.234375 -0.734375 0.671875 -0.734375zm13.875 -4.0625q-1.515625 3.640625 -2.34375 3.640625q-0.5625 0 -0.5625 -0.609375q0 -0.171875 0.203125 -0.421875q1.5625 -2.09375 2.265625 -5.171875q0.140625 -0.515625 0.625 -0.515625q0.5625 0 0.5625 0.484375q0 0.171875 -0.375 1.453125l2.0625 0q1.078125 0 1.078125 0.9375l-0.0625 0.71875q0.140625 -0.3125 0.421875 -0.3125q0.21875 0 0.703125 0.71875l0.609375 0.78125l0 -4.078125q0 -0.671875 0.578125 -0.671875q0.578125 0 0.578125 0.671875l0 5.28125q1.109375 1.0 2.59375 1.828125q0.4375 0.234375 0.4375 0.625q0 0.640625 -0.546875 0.640625q-0.6875 0 -2.484375 -1.640625l0 4.1875q0 0.640625 -0.578125 0.640625q-0.578125 0 -0.578125 -0.640625l0 -5.34375q-1.8125 -1.96875 -1.78125 -2.4375q-0.484375 3.109375 -1.765625 4.9375q-1.265625 1.828125 -3.15625 2.828125q-0.4375 0.234375 -0.640625 0.234375q-0.5625 0 -0.5625 -0.640625q0 -0.390625 0.953125 -0.875q1.65625 -0.828125 2.859375 -2.796875q-0.625 -0.65625 -1.5 -1.265625q-0.34375 -0.25 -0.34375 -0.5q0 -0.59375 0.546875 -0.59375q0.46875 0 1.84375 1.265625q0.6875 -1.75 0.6875 -2.953125q0 -0.40625 -0.484375 -0.40625l-1.84375 0zm18.203125 2.203125l0 -1.1875l-1.015625 0q-0.484375 0 -0.484375 -0.421875q0 -0.4375 0.484375 -0.4375l1.015625 0l0 -0.875q0 -0.453125 0.453125 -0.453125q0.46875 0 0.46875 0.453125l0 0.875l1.015625 0q0.46875 0 0.46875 0.4375q0 0.421875 -0.46875 0.421875l-1.015625 0l0 1.1875l1.1875 0q0.484375 0 0.484375 0.4375q0 0.4375 -0.484375 0.4375l-3.296875 0q-0.46875 0 -0.46875 -0.4375q0 -0.4375 0.46875 -0.4375l1.1875 0zm3.953125 -3.375l0 8.859375q0.0625 1.40625 -1.328125 1.421875l-0.6875 0q-0.546875 0 -0.546875 -0.515625q0 -0.53125 0.546875 -0.53125l0.453125 0q0.546875 -0.015625 0.5625 -0.5625l0 -8.40625q-0.015625 -0.5625 -0.578125 -0.578125l-3.78125 0q-0.5625 0 -0.5625 0.609375l0 0.375l0.015625 0.984375q0 4.75 -0.359375 6.671875q-0.34375 1.90625 -1.046875 1.90625q-0.546875 0 -0.546875 -0.515625q0 -0.109375 0.265625 -0.734375q0.28125 -0.640625 0.4375 -1.328125q0.15625 -0.6875 0.203125 -2.015625q0.0625 -1.328125 0.0625 -3.46875l-0.03125 -2.234375q0 -1.25 1.25 -1.25l4.375 0q1.34375 -0.046875 1.296875 1.3125zm-1.75 7.578125q0 1.0 -0.984375 1.0l-1.53125 0q-0.984375 0 -0.984375 -1.0l0 -1.515625q0 -1.0 0.984375 -1.0l1.53125 0q0.984375 0 0.984375 1.0l0 1.515625zm-2.25 -1.640625q-0.40625 0 -0.421875 0.40625l0 0.96875q0.015625 0.390625 0.421875 0.390625l0.984375 0q0.40625 0 0.421875 -0.390625l0 -0.96875q-0.015625 -0.40625 -0.421875 -0.40625l-0.984375 0zm-4.859375 -0.09375q1.078125 0 1.078125 1.078125l0 1.84375q0 1.0625 -1.078125 1.0625l-1.3125 0q-1.078125 0 -1.078125 -1.0625l0 -1.84375q0 -1.078125 1.078125 -1.078125l1.3125 0zm0.171875 2.765625l0 -1.53125q-0.015625 -0.359375 -0.34375 -0.375l-0.953125 0q-0.34375 0.015625 -0.359375 0.375l0 1.53125q0.015625 0.34375 0.359375 0.34375l0.953125 0q0.328125 0 0.34375 -0.34375zm-2.078125 -8.984375q-0.578125 0 -0.578125 -0.46875q0 -0.46875 0.578125 -0.46875l2.484375 0q0.578125 0 0.578125 0.46875q0 0.46875 -0.578125 0.46875l-2.484375 0zm-0.390625 1.8125q-0.578125 0 -0.578125 -0.46875q0 -0.46875 0.578125 -0.46875l3.28125 0q0.5625 0 0.5625 0.46875q0 0.46875 -0.5625 0.46875l-3.28125 0zm0.421875 1.765625q-0.546875 0 -0.546875 -0.453125q0 -0.453125 0.546875 -0.453125l2.421875 0q0.546875 0 0.546875 0.453125q0 0.453125 -0.546875 0.453125l-2.421875 0zm0 1.78125q-0.546875 0 -0.546875 -0.453125q0 -0.453125 0.546875 -0.453125l2.421875 0q0.546875 0 0.546875 0.453125q0 0.453125 -0.546875 0.453125l-2.421875 0zm19.375 -4.609375q2.03125 1.78125 4.71875 2.5625q0.5 0.140625 0.5 0.546875q0 0.59375 -0.5625 0.59375q-0.453125 0 -2.09375 -0.859375q-1.640625 -0.875 -3.0 -2.140625l0 1.875q0 0.53125 -0.53125 0.53125q-0.515625 0 -0.515625 -0.53125l0 -1.90625q-0.765625 0.703125 -1.96875 1.53125q-1.1875 0.828125 -1.9375 1.21875q-0.75 0.390625 -1.078125 0.390625q-0.578125 0 -0.578125 -0.578125q0 -0.34375 0.4375 -0.515625q2.515625 -1.078125 4.609375 -2.71875l-4.03125 0q-0.640625 0 -0.640625 -0.515625q0 -0.5 0.640625 -0.5l4.546875 0l0 -0.71875q0 -0.53125 0.53125 -0.53125q0.515625 0 0.515625 0.53125l0 0.71875l4.65625 0q0.640625 0 0.640625 0.515625q0 0.5 -0.640625 0.5l-4.21875 0zm-5.125 8.5625l0 -4.046875q-0.078125 -1.265625 1.171875 -1.1875l6.078125 0q1.25 -0.078125 1.171875 1.1875l0 4.046875l1.34375 0q0.59375 0 0.59375 0.46875q0 0.484375 -0.59375 0.484375l-11.109375 0q-0.59375 0 -0.59375 -0.484375q0 -0.46875 0.59375 -0.46875l1.34375 0zm1.09375 -1.78125l6.234375 0l0 -0.859375l-6.234375 0l0 0.859375zm0 0.859375l0 0.921875l6.234375 0l0 -0.921875l-6.234375 0zm0 -2.578125l6.234375 0l0 -0.40625q-0.015625 -0.4375 -0.46875 -0.453125l-5.296875 0q-0.453125 0.015625 -0.46875 0.453125l0 0.40625zm14.28125 3.296875l2.78125 -0.171875l2.390625 -0.21875l-0.890625 -0.90625q-0.234375 -0.234375 -0.234375 -0.4375q0 -0.453125 0.546875 -0.453125q0.34375 0 1.078125 0.703125q2.140625 2.078125 2.140625 2.5q0 0.5625 -0.65625 0.5625q-0.359375 0 -0.75 -0.515625l-0.421875 -0.53125l-0.296875 0.015625l-3.3125 0.359375l-5.0 0.390625q-0.6875 0 -0.6875 -0.625q0 -0.5625 0.8125 -0.5625l1.078125 -0.046875l0.15625 0l0.09375 -0.171875q0.640625 -1.109375 1.15625 -2.359375l0.0625 -0.203125l-3.125 0q-0.671875 0 -0.671875 -0.546875q0 -0.546875 0.671875 -0.546875l10.484375 0q0.671875 0 0.671875 0.546875q0 0.546875 -0.671875 0.546875l-5.984375 0q-1.171875 2.25 -1.421875 2.671875zm2.703125 -9.90625l0.03125 0.046875q2.46875 2.34375 4.96875 3.25q0.59375 0.21875 0.59375 0.640625q0 0.25 -0.203125 0.46875q-0.1875 0.203125 -0.421875 0.203125q-0.71875 0 -2.515625 -1.1875q-1.796875 -1.203125 -3.078125 -2.609375q-1.0 1.234375 -2.90625 2.59375q-1.890625 1.359375 -2.5625 1.359375q-0.578125 0 -0.578125 -0.640625q0 -0.34375 0.90625 -0.765625q2.734375 -1.34375 4.265625 -3.359375q0.578125 -0.71875 0.96875 -0.71875q0.625 0 0.625 0.46875q0 0.109375 -0.09375 0.25zm-3.5 4.671875q-0.65625 0 -0.65625 -0.515625q0 -0.53125 0.625 -0.53125l5.875 0q0.65625 0 0.65625 0.53125q0 0.515625 -0.65625 0.515625l-5.84375 0zm13.28125 1.0q0.125 -0.234375 0.390625 -0.234375q0.234375 0 1.03125 0.8125q0.796875 0.8125 0.796875 1.078125q0 0.53125 -0.53125 0.53125q-0.25 0 -0.515625 -0.3125l-1.015625 -1.25l-0.15625 -0.1875l0 4.765625q0 0.671875 -0.546875 0.671875q-0.546875 0 -0.546875 -0.671875l0 -4.4375l-0.03125 0.015625q-1.203125 1.359375 -1.53125 1.359375q-0.46875 0 -0.46875 -0.578125q0 -0.3125 0.515625 -0.703125q1.5625 -1.40625 2.890625 -3.328125l0.28125 -0.4375q0.09375 -0.125 0.09375 -0.1875q0 -0.140625 -0.15625 -0.140625l-2.953125 0q-0.625 0 -0.625 -0.515625q0 -0.53125 0.625 -0.53125l1.359375 0l0 -1.4375q0 -0.671875 0.546875 -0.671875q0.5625 0 0.5625 0.671875l0 1.4375l1.234375 0q0.859375 0 0.859375 0.609375q0 0.59375 -2.078125 3.125l-0.03125 0.046875l0 0.5zm4.71875 4.125l0 -5.546875l-2.25 0q-0.671875 0 -0.671875 -0.5625q0 -0.578125 0.671875 -0.578125l2.25 0l0 -3.125q0 -0.671875 0.59375 -0.671875q0.578125 0 0.578125 0.671875l0 3.125l2.171875 0q0.6875 0 0.6875 0.578125q0 0.5625 -0.6875 0.5625l-2.171875 0l0 5.546875l2.5625 0q0.6875 0 0.6875 0.578125q0 0.5625 -0.6875 0.5625l-6.75 0q-0.703125 0 -0.703125 -0.5625q0 -0.578125 0.703125 -0.578125l3.015625 0zm9.90625 -1.6875l0 -7.078125q0 -0.734375 0.578125 -0.734375q0.59375 0 0.59375 0.734375l0 8.546875q0 0.921875 -0.734375 0.921875q-0.515625 0 -0.78125 -0.65625l-2.890625 -7.09375l0 7.046875q0 0.703125 -0.59375 0.703125q-0.59375 0 -0.59375 -0.703125l0 -8.578125q0 -0.921875 0.734375 -0.921875q0.484375 0 0.75 0.65625l2.9375 7.15625zm3.4609375 -0.890625l0 0.109375q0 2.1875 1.6875 2.1875q1.125 0 1.453125 -1.03125q0.1875 -0.546875 0.65625 -0.546875q0.578125 0 0.578125 0.53125q0 0.6875 -0.734375 1.375q-0.71875 0.671875 -1.921875 0.671875q-1.390625 0 -2.171875 -0.96875q-0.765625 -0.96875 -0.765625 -2.609375q0 -1.609375 0.71875 -2.59375q0.734375 -0.984375 2.09375 -0.984375q1.34375 0 2.0625 0.84375q0.71875 0.84375 0.71875 2.1875q0 0.828125 -0.84375 0.828125l-3.53125 0zm0.03125 -1.03125l2.953125 0q0.15625 0 0.15625 -0.140625q0 -0.640625 -0.390625 -1.15625q-0.375 -0.53125 -1.140625 -0.53125q-1.390625 0 -1.578125 1.828125zm6.8671875 2.21875l0.671875 -4.34375q0.109375 -0.703125 0.671875 -0.703125q0.578125 0 0.6875 0.703125l0.65625 4.34375l0.75 -4.53125q0.078125 -0.515625 0.484375 -0.515625q0.484375 0 0.484375 0.46875l-0.015625 0.203125l-0.984375 5.84375q-0.109375 0.625 -0.625 0.625q-0.515625 0 -0.625 -0.625l-0.8125 -4.984375l-0.796875 4.96875q-0.109375 0.640625 -0.640625 0.640625q-0.53125 0 -0.625 -0.640625l-1.0 -5.828125l0 -0.21875q0 -0.453125 0.46875 -0.453125q0.421875 0 0.5 0.515625l0.75 4.53125zm9.0859375 -3.78125l-3.046875 0q-0.640625 0 -0.640625 -0.53125q0 -0.53125 0.640625 -0.53125l3.59375 0q0.9375 0 0.9375 0.75q0 0.28125 -0.25 0.59375l-3.578125 4.359375l3.328125 0q0.65625 0 0.65625 0.53125q0 0.53125 -0.65625 0.53125l-3.8125 0q-0.953125 0 -0.953125 -0.78125q0 -0.296875 0.265625 -0.640625l3.515625 -4.28125zm5.6484375 -1.265625q1.25 0 2.015625 0.90625q0.78125 0.90625 0.78125 2.6875q0 3.546875 -2.859375 3.546875q-2.84375 0 -2.84375 -3.5625q0 -3.578125 2.90625 -3.578125zm-0.078125 1.0625q-1.625 0 -1.625 2.71875q0 2.296875 1.640625 2.296875q1.625 0 1.625 -2.46875q0 -2.546875 -1.640625 -2.546875zm6.7421875 -1.0625q1.25 0 2.015625 0.90625q0.78125 0.90625 0.78125 2.6875q0 3.546875 -2.859375 3.546875q-2.84375 0 -2.84375 -3.5625q0 -3.578125 2.90625 -3.578125zm-0.078125 1.0625q-1.625 0 -1.625 2.71875q0 2.296875 1.640625 2.296875q1.625 0 1.625 -2.46875q0 -2.546875 -1.640625 -2.546875zm9.0078125 -5.140625q0.46875 0 0.46875 0.453125q0 0.234375 -0.40625 0.5625q-1.078125 0.828125 -1.75 2.203125q-0.65625 1.375 -0.65625 2.9375q0 3.125 2.5 5.15625q0.3125 0.28125 0.3125 0.46875q0 0.46875 -0.453125 0.46875q-0.6875 0 -2.0 -1.875q-1.296875 -1.875 -1.296875 -4.265625q0 -2.515625 1.515625 -4.546875q1.171875 -1.5625 1.765625 -1.5625zm3.0390625 10.0l3.390625 0q0.625 0 0.625 0.53125q0 0.515625 -0.625 0.515625l-3.921875 0q-0.890625 0 -0.890625 -0.75q0 -0.359375 0.75 -1.203125q2.03125 -2.296875 2.90625 -3.84375q0.453125 -0.796875 0.453125 -1.65625q0 -0.6875 -0.359375 -1.109375q-0.359375 -0.421875 -0.921875 -0.421875q-1.140625 0 -1.359375 1.390625q-0.109375 0.765625 -0.703125 0.765625q-0.640625 0 -0.640625 -0.640625q0 -0.421875 0.28125 -1.015625q0.71875 -1.546875 2.46875 -1.546875q1.15625 0 1.859375 0.703125q0.703125 0.703125 0.703125 1.71875q0 1.71875 -2.390625 4.671875l-1.625 1.890625zm8.0234375 -8.984375q1.53125 0 2.109375 1.359375q0.59375 1.359375 0.59375 3.78125q0 2.703125 -0.671875 3.890625q-0.65625 1.171875 -2.09375 1.171875q-1.421875 0 -2.09375 -1.1875q-0.65625 -1.203125 -0.65625 -3.84375q0 -2.59375 0.609375 -3.875q0.625 -1.296875 2.203125 -1.296875zm-0.078125 1.0625q-1.484375 0 -1.484375 4.046875q0 4.046875 1.5 4.046875q1.5 0 1.5 -4.078125q0 -4.015625 -1.515625 -4.015625zm6.5859375 0.796875q-0.65625 0.765625 -1.09375 0.765625q-0.625 0 -0.625 -0.625q0 -0.359375 0.453125 -0.609375q0.515625 -0.34375 1.265625 -1.15625q0.203125 -0.234375 0.515625 -0.234375q0.734375 0 0.734375 0.765625l0 8.671875q0 0.765625 -0.625 0.765625q-0.625 0 -0.625 -0.765625l0 -7.578125zm7.9140625 -0.25l0.03125 -0.109375q0 -0.171875 -0.21875 -0.171875l-3.0 0q-0.703125 0 -0.703125 -0.5625q0 -0.578125 0.703125 -0.578125l3.8750305 0q0.8125 0 0.8125 0.78125q0 0.203125 -0.09375 0.4375l-3.1562805 8.25q-0.203125 0.5625 -0.65625 0.5625q-0.59375 0 -0.59375 -0.546875q0 -0.15625 0.078125 -0.375l2.921875 -7.6875zm3.179718 -2.625q0.6875 0 1.984375 1.890625q1.296875 1.875 1.296875 4.21875q0 2.515625 -1.5 4.546875q-1.1875 1.59375 -1.796875 1.59375q-0.453125 0 -0.453125 -0.453125q0 -0.234375 0.421875 -0.5625q1.046875 -0.8125 1.71875 -2.203125q0.671875 -1.390625 0.671875 -2.921875q0 -3.203125 -2.5 -5.1875q-0.3125 -0.25 -0.3125 -0.46875q0 -0.453125 0.46875 -0.453125z" fill-rule="nonzero"/><path fill="#ffffff" d="m394.05472 496.41733l126.61722 0l0 15.9999695l-126.61722 0l0 -15.9999695z" fill-rule="nonzero"/><path fill="#333333" d="m395.83597 503.3892q0.953125 -1.28125 2.234375 -1.28125q2.015625 0 2.046875 2.34375l0 4.09375q0 0.703125 -0.59375 0.703125q-0.59375 0 -0.59375 -0.703125l0 -3.890625q0 -1.484375 -1.09375 -1.484375q-0.84375 0 -1.421875 0.640625q-0.578125 0.625 -0.578125 1.21875l0 3.515625q0 0.703125 -0.59375 0.703125q-0.59375 0 -0.59375 -0.703125l0 -8.78125q0 -0.71875 0.609375 -0.71875q0.578125 0 0.578125 0.71875l0 3.625zm7.4140625 -1.078125l0 -1.765625q0 -0.71875 0.609375 -0.71875q0.578125 0 0.578125 0.71875l0 1.765625l1.140625 0q0.640625 0 0.640625 0.515625q0 0.515625 -0.640625 0.515625l-1.140625 0l0 3.828125q0.015625 0.65625 0.25 0.765625q0.140625 0.078125 0.796875 0.078125q0.65625 0 0.65625 0.53125q0 0.53125 -0.578125 0.53125l-0.703125 0q-0.984375 0 -1.3125 -0.375q-0.296875 -0.375 -0.296875 -1.359375l0 -4.0l-0.9375 0q-0.65625 0 -0.65625 -0.515625q0 -0.515625 0.65625 -0.515625l0.9375 0zm6.6640625 0l0 -1.765625q0 -0.71875 0.609375 -0.71875q0.578125 0 0.578125 0.71875l0 1.765625l1.140625 0q0.640625 0 0.640625 0.515625q0 0.515625 -0.640625 0.515625l-1.140625 0l0 3.828125q0.015625 0.65625 0.25 0.765625q0.140625 0.078125 0.796875 0.078125q0.65625 0 0.65625 0.53125q0 0.53125 -0.578125 0.53125l-0.703125 0q-0.984375 0 -1.3125 -0.375q-0.296875 -0.375 -0.296875 -1.359375l0 -4.0l-0.9375 0q-0.65625 0 -0.65625 -0.515625q0 -0.515625 0.65625 -0.515625l0.9375 0zm5.9296875 0.859375q0.734375 -1.0625 1.859375 -1.0625q1.15625 0 1.84375 0.9375q0.703125 0.921875 0.703125 2.40625q0 1.578125 -0.65625 2.53125q-0.65625 0.953125 -1.875 0.953125q-1.15625 0 -1.875 -1.015625l0 2.171875q0 0.71875 -0.59375 0.71875q-0.59375 0 -0.59375 -0.71875l0 -7.390625q0 -0.59375 0.59375 -0.59375q0.59375 0 0.59375 0.546875l0 0.515625zm0 3.046875q0 0.546875 0.46875 1.109375q0.484375 0.546875 1.234375 0.546875q1.46875 0 1.46875 -2.390625q0 -2.3125 -1.5 -2.3125q-0.703125 0 -1.1875 0.578125q-0.46875 0.5625 -0.484375 1.15625l0 1.3125zm10.8828125 1.0625q0 0.875 -0.65625 1.421875q-0.640625 0.546875 -1.90625 0.546875q-1.3125 0 -2.0625 -0.578125q-0.734375 -0.578125 -0.734375 -1.21875q0 -0.53125 0.578125 -0.53125q0.359375 0 0.796875 0.65625q0.453125 0.65625 1.390625 0.65625q1.328125 0 1.328125 -0.9375q0 -0.59375 -0.90625 -0.953125l-1.390625 -0.546875q-1.65625 -0.640625 -1.65625 -1.796875q0 -0.84375 0.6875 -1.359375q0.6875 -0.53125 1.75 -0.53125q1.15625 0 1.859375 0.5625q0.703125 0.5625 0.703125 1.109375q0 0.5 -0.578125 0.5q-0.421875 0 -0.78125 -0.5625q-0.34375 -0.578125 -1.1875 -0.578125q-1.1875 0 -1.1875 0.84375q0 0.546875 0.96875 0.921875l1.453125 0.546875q1.53125 0.59375 1.53125 1.828125zm3.9921875 0.15625q0.359375 0 0.625 0.265625q0.28125 0.265625 0.28125 0.640625q0 0.375 -0.28125 0.640625q-0.265625 0.265625 -0.640625 0.265625q-0.375 0 -0.640625 -0.265625q-0.265625 -0.265625 -0.265625 -0.65625q0 -0.359375 0.265625 -0.625q0.265625 -0.265625 0.65625 -0.265625zm0 -5.328125q0.359375 0 0.625 0.265625q0.28125 0.265625 0.28125 0.65625q0 0.375 -0.28125 0.640625q-0.265625 0.265625 -0.640625 0.265625q-0.375 0 -0.640625 -0.265625q-0.265625 -0.265625 -0.265625 -0.65625q0 -0.375 0.265625 -0.640625q0.265625 -0.265625 0.65625 -0.265625zm8.9453125 -4.078125q0.46875 0 0.46875 0.4375q0 0.109375 -0.078125 0.296875l-4.5 11.125q-0.15625 0.390625 -0.46875 0.390625q-0.46875 0 -0.46875 -0.4375q0 -0.125 0.0625 -0.296875l4.5 -11.125q0.15625 -0.390625 0.484375 -0.390625zm6.6640625 0q0.46875 0 0.46875 0.4375q0 0.109375 -0.078125 0.296875l-4.5 11.125q-0.15625 0.390625 -0.46875 0.390625q-0.46875 0 -0.46875 -0.4375q0 -0.125 0.0625 -0.296875l4.5 -11.125q0.15625 -0.390625 0.484375 -0.390625zm2.8203125 5.34375q0.953125 -1.265625 2.234375 -1.265625q2.015625 0 2.046875 2.34375l0 4.09375q0 0.703125 -0.59375 0.703125q-0.59375 0 -0.59375 -0.703125l0 -3.890625q0 -1.484375 -1.09375 -1.484375q-0.84375 0 -1.421875 0.640625q-0.578125 0.625 -0.578125 1.203125l0 3.53125q0 0.703125 -0.59375 0.703125q-0.59375 0 -0.59375 -0.703125l0 -5.765625q0 -0.671875 0.59375 -0.671875q0.59375 0 0.59375 0.65625l0 0.609375zm6.6328125 2.59375l0 0.109375q0 2.1875 1.6875 2.1875q1.125 0 1.453125 -1.03125q0.1875 -0.546875 0.65625 -0.546875q0.578125 0 0.578125 0.53125q0 0.6875 -0.734375 1.375q-0.71875 0.671875 -1.921875 0.671875q-1.390625 0 -2.171875 -0.96875q-0.765625 -0.96875 -0.765625 -2.609375q0 -1.609375 0.71875 -2.59375q0.734375 -0.984375 2.09375 -0.984375q1.34375 0 2.0625 0.84375q0.71875 0.84375 0.71875 2.1875q0 0.828125 -0.84375 0.828125l-3.53125 0zm0.03125 -1.03125l2.953125 0q0.15625 0 0.15625 -0.140625q0 -0.640625 -0.390625 -1.15625q-0.375 -0.53125 -1.140625 -0.53125q-1.390625 0 -1.578125 1.828125zm6.8671875 2.21875l0.671875 -4.34375q0.109375 -0.703125 0.671875 -0.703125q0.578125 0 0.6875 0.703125l0.65625 4.34375l0.75 -4.53125q0.078125 -0.515625 0.484375 -0.515625q0.484375 0 0.484375 0.46875l-0.015625 0.203125l-0.984375 5.84375q-0.109375 0.625 -0.625 0.625q-0.515625 0 -0.625 -0.625l-0.8125 -4.984375l-0.796875 4.96875q-0.109375 0.640625 -0.640625 0.640625q-0.53125 0 -0.625 -0.640625l-1.0 -5.828125l0 -0.21875q0 -0.453125 0.46875 -0.453125q0.421875 0 0.5 0.515625l0.75 4.53125zm9.0859375 -3.78125l-3.046875 0q-0.640625 0 -0.640625 -0.53125q0 -0.53125 0.640625 -0.53125l3.59375 0q0.9375 0 0.9375 0.75q0 0.28125 -0.25 0.59375l-3.578125 4.359375l3.328125 0q0.65625 0 0.65625 0.53125q0 0.53125 -0.65625 0.53125l-3.8125 0q-0.953125 0 -0.953125 -0.78125q0 -0.296875 0.265625 -0.640625l3.515625 -4.28125zm5.6484375 -1.265625q1.25 0 2.015625 0.90625q0.78125 0.90625 0.78125 2.6875q0 3.546875 -2.859375 3.546875q-2.84375 0 -2.84375 -3.5625q0 -3.578125 2.90625 -3.578125zm-0.078125 1.0625q-1.625 0 -1.625 2.71875q0 2.296875 1.640625 2.296875q1.625 0 1.625 -2.46875q0 -2.546875 -1.640625 -2.546875zm6.7421875 -1.0625q1.25 0 2.015625 0.90625q0.78125 0.90625 0.78125 2.6875q0 3.546875 -2.859375 3.546875q-2.84375 0 -2.84375 -3.5625q0 -3.578125 2.90625 -3.578125zm-0.078125 1.0625q-1.625 0 -1.625 2.71875q0 2.296875 1.640625 2.296875q1.625 0 1.625 -2.46875q0 -2.546875 -1.640625 -2.546875zm5.0234375 3.6875q0.390625 0 0.671875 0.296875q0.28125 0.28125 0.28125 0.671875q0 0.40625 -0.28125 0.6875q-0.28125 0.28125 -0.671875 0.28125q-0.4375 0 -0.71875 -0.3125q-0.25 -0.296875 -0.25 -0.671875q0 -0.375 0.28125 -0.65625q0.28125 -0.296875 0.6875 -0.296875zm8.4921875 -4.75q1.109375 0 1.828125 0.671875q0.71875 0.65625 0.71875 1.3125q0 0.5625 -0.609375 0.5625q-0.46875 0 -0.71875 -0.640625q-0.328125 -0.84375 -1.28125 -0.84375q-1.6875 0 -1.6875 2.5q0 2.515625 1.734375 2.515625q1.03125 0 1.390625 -1.15625q0.15625 -0.578125 0.671875 -0.578125q0.59375 0 0.59375 0.5625q0 0.765625 -0.71875 1.5q-0.703125 0.734375 -1.9375 0.734375q-1.4375 0 -2.203125 -0.96875q-0.75 -0.984375 -0.75 -2.640625q0 -1.65625 0.796875 -2.59375q0.796875 -0.9375 2.171875 -0.9375zm6.5546875 0q1.25 0 2.015625 0.90625q0.78125 0.90625 0.78125 2.6875q0 3.546875 -2.859375 3.546875q-2.84375 0 -2.84375 -3.5625q0 -3.578125 2.90625 -3.578125zm-0.078125 1.0625q-1.625 0 -1.625 2.71875q0 2.296875 1.640625 2.296875q1.625 0 1.625 -2.46875q0 -2.546875 -1.640625 -2.546875zm7.1171875 -0.203125q0.5 -0.859375 1.2187805 -0.859375q1.203125 0 1.21875 1.796875l0 4.703125q0 0.640625 -0.5625 0.640625q-0.546875 0 -0.546875 -0.640625l0 -4.625q0 -0.9375 -0.390625 -0.9375q-0.34378052 0 -0.5781555 0.453125q-0.234375 0.4375 -0.234375 0.6875l0 4.421875q0 0.640625 -0.5625 0.640625q-0.546875 0 -0.546875 -0.640625l0 -4.53125q0 -1.03125 -0.359375 -1.03125q-0.265625 0 -0.5625 0.421875q-0.28125 0.40625 -0.28125 0.765625l0 4.375q0 0.640625 -0.5625 0.640625q-0.546875 0 -0.546875 -0.640625l0 -5.96875q0 -0.53125 0.5625 -0.53125q0.546875 0 0.546875 0.46875l0 0.359375q0.546875 -0.828125 1.1875 -0.828125q0.75 0 1.0 0.859375zm8.523468 -4.9375q0.46875 0 0.46875 0.4375q0 0.109375 -0.078125 0.296875l-4.5 11.125q-0.15625 0.390625 -0.46875 0.390625q-0.46875 0 -0.46875 -0.4375q0 -0.125 0.0625 -0.296875l4.5 -11.125q0.15625 -0.390625 0.484375 -0.390625z" fill-rule="nonzero"/><path fill="#000000" fill-opacity="0.0" d="m46.328083 471.41733l269.70078 0l0 42.04721l-269.70078 0z" fill-rule="evenodd"/><path fill="#000000" d="m65.29684 484.7473q0.515625 -0.75 0.90625 -1.625q0.40625 -0.890625 0.828125 -0.890625q0.65625 0 0.65625 0.625q0 0.46875 -1.140625 1.890625l0.34375 0q1.359375 -0.03125 1.28125 1.3125l0 3.3125q0.078125 1.34375 -1.28125 1.296875l-3.6875038 0l0 1.203125l5.500004 0q0.6875 0 0.6875 0.59375q0 0.578125 -0.6875 0.578125l-5.500004 0l0 1.875q0 0.75 -0.609375 0.75q-0.59375 0 -0.59375 -0.75l0 -1.875l-5.375 0q-0.703125 0 -0.703125 -0.578125q0 -0.59375 0.703125 -0.59375l5.375 0l0 -1.203125l-3.546875 0q-1.359375 0.03125 -1.28125 -1.296875l0 -3.3125q-0.078125 -1.34375 1.28125 -1.3125l6.843754 0zm-3.2968788 3.4375l-3.625 0l0 0.859375q0.015625 0.546875 0.5625 0.5625l3.0625 0l0 -1.421875zm1.203125 0l0 1.421875l3.2031288 0q0.546875 -0.015625 0.5625 -0.5625l0 -0.859375l-3.7656288 0zm-1.203125 -1.015625l0 -1.34375l-3.0625 0q-0.546875 0.015625 -0.5625 0.5625l0 0.78125l3.625 0zm1.203125 0l3.7656288 0l0 -0.78125q-0.015625 -0.546875 -0.5625 -0.5625l-3.2031288 0l0 1.34375zm-5.640625 -4.9375q0.3125 0 1.09375 0.9375q0.4375 0.578125 0.4375 0.765625q0 0.625 -0.640625 0.625q-0.359375 0 -0.734375 -0.53125q-0.359375 -0.546875 -0.5625 -0.8125q-0.203125 -0.265625 -0.203125 -0.40625q0 -0.578125 0.609375 -0.578125zm4.21875 -0.046875q0.359375 0 0.921875 0.78125q0.5625 0.765625 0.5625 0.984375q0 0.625 -0.640625 0.625q-0.390625 0 -0.703125 -0.5q-0.296875 -0.5 -0.484375 -0.75q-0.265625 -0.375 -0.265625 -0.546875q0 -0.59375 0.609375 -0.59375zm11.906254 3.46875l0 9.28125q0 0.734375 -0.609375 0.734375q-0.59375 0 -0.59375 -0.734375l0 -6.875l-0.109375 0.1875q-0.921875 1.640625 -1.265625 1.640625q-0.53125 0 -0.53125 -0.6875q0 -0.234375 0.484375 -1.03125q1.5 -2.421875 2.40625 -5.234375q0.1875 -0.75 0.6875 -0.75q0.6875 0 0.6875 0.59375q0 0.25 -1.140625 2.828125l-0.015625 0.046875zm4.59375 -0.71875l0 -1.84375q0 -0.828125 0.671875 -0.828125q0.65625 0 0.65625 0.828125l0 1.84375l3.5 0q0.703125 0 0.703125 0.640625q0 0.625 -0.703125 0.625l-7.96875 0q-0.703125 0 -0.703125 -0.625q0 -0.640625 0.703125 -0.640625l3.140625 0zm1.453125 8.78125l0.046875 -0.265625q0.53125 -2.125 0.953125 -4.65625q0.21875 -1.3125 0.34375 -1.625q0.125 -0.328125 0.59375 -0.328125q0.671875 0 0.671875 0.65625l-0.046875 0.34375q-0.53125 2.90625 -1.3125 5.703125l-0.0625 0.171875l2.4375 0q0.6875 0 0.6875 0.625q0 0.625 -0.6875 0.625l-8.484375 0q-0.6875 0 -0.6875 -0.625q0 -0.625 0.6875 -0.625l4.859375 0zm-3.5625 -6.359375q0.421875 0 0.625 0.53125q0.203125 0.53125 0.4375 1.546875l0.5 2.40625q0.09375 0.296875 0.09375 0.46875q0 0.640625 -0.671875 0.640625q-0.484375 0 -0.609375 -0.484375l-0.515625 -2.4375l-0.5 -2.09375q0 -0.578125 0.640625 -0.578125zm15.828125 3.890625q0.40625 0 0.703125 0.3125q0.3125 0.3125 0.3125 0.71875q0 0.4375 -0.3125 0.75q-0.3125 0.296875 -0.734375 0.296875q-0.421875 0 -0.734375 -0.3125q-0.296875 -0.3125 -0.296875 -0.734375q0 -0.421875 0.296875 -0.71875q0.3125 -0.3125 0.765625 -0.3125zm0 -6.734375q0.390625 0 0.703125 0.3125q0.3125 0.296875 0.3125 0.734375q0 0.421875 -0.3125 0.71875q-0.3125 0.296875 -0.734375 0.296875q-0.421875 0 -0.734375 -0.3125q-0.296875 -0.3125 -0.296875 -0.71875q0 -0.421875 0.296875 -0.71875q0.3125 -0.3125 0.765625 -0.3125zm18.796875 -0.171875l-0.125 0.390625l-0.3125 0.984375l2.46875 0q0.53125 0 0.53125 0.46875q0 0.46875 -0.53125 0.46875l-9.015625 0q-0.546875 0 -0.546875 -0.46875q0 -0.46875 0.546875 -0.46875l2.015625 0l-0.125 -0.34375l-0.09375 -0.359375l-0.109375 -0.328125l-0.109375 -0.34375l-0.921875 0q-0.546875 0 -0.546875 -0.46875q0 -0.484375 0.546875 -0.484375l3.03125 0l0 -0.65625q0 -0.546875 0.609375 -0.546875q0.609375 0 0.609375 0.546875l0 0.65625l3.4375 0q0.546875 0 0.546875 0.484375q0 0.46875 -0.546875 0.46875l-1.359375 0zm-1.1875 0l-3.125 0l0.390625 1.296875l0.03125 0.078125l2.359375 0l0.03125 -0.0625l0.3125 -1.3125zm-6.8125 1.234375l0 9.390625q0 0.703125 -0.59375 0.703125q-0.578125 0 -0.578125 -0.703125l0 -6.84375q-0.875 1.734375 -1.234375 1.734375q-0.5 0 -0.5 -0.5625q0 -0.25 0.328125 -0.78125q1.375 -2.234375 2.265625 -5.5625q0.203125 -0.765625 0.703125 -0.765625q0.578125 0 0.578125 0.578125q0 0.3125 -0.96875 2.8125zm8.171875 1.703125q1.15625 0.015625 1.15625 1.15625l0 1.734375q0 1.15625 -1.15625 1.15625l-5.53125 0q-1.125 -0.015625 -1.125 -1.109375l0 -1.796875q-0.015625 -1.140625 1.15625 -1.140625l5.5 0zm-5.578125 2.390625l0 0.453125q0.015625 0.375 0.40625 0.390625l4.796875 0q0.375 -0.015625 0.390625 -0.40625l0 -0.4375l-5.59375 0zm0 -0.78125l5.59375 0l0 -0.390625q-0.015625 -0.390625 -0.390625 -0.40625l-4.796875 0q-0.40625 0.015625 -0.40625 0.390625l0 0.40625zm0.390625 3.578125q0 -0.65625 0.546875 -0.65625q0.53125 0 0.53125 0.65625l0 1.375q0.015625 0.359375 0.4375 0.375l0.78125 0.03125l0.390625 0l1.078125 -0.0625q0.3125 0.015625 0.34375 -0.375l0 -0.296875q0 -0.515625 0.5625 -0.515625q0.5625 0 0.5625 0.578125q0 1.109375 -0.5625 1.4375q-0.4375 0.25 -2.734375 0.25q-1.171875 0 -1.5 -0.140625q-0.4375 -0.1875 -0.4375 -0.75l0 -1.90625zm-1.421875 -0.40625q0.5 0 0.5 0.515625q0 0.609375 -0.53125 1.9375q-0.234375 0.609375 -0.625 0.609375q-0.53125 0 -0.53125 -0.5q0 -0.125 0.125 -0.359375q0.4375 -0.875 0.578125 -1.71875q0.078125 -0.484375 0.484375 -0.484375zm7.140625 -0.109375q0.375 0 1.09375 1.09375q0.734375 1.265625 0.734375 1.40625q0 0.515625 -0.578125 0.515625q-0.34375 0 -0.625 -0.546875q-0.5 -0.921875 -1.0 -1.6875q-0.15625 -0.1875 -0.15625 -0.34375q0 -0.4375 0.53125 -0.4375zm-3.28125 -0.453125q0.21875 0 0.640625 0.46875q0.421875 0.453125 0.421875 0.640625q0 0.46875 -0.515625 0.46875q-0.234375 0 -0.640625 -0.484375q-0.40625 -0.5 -0.40625 -0.65625q0 -0.4375 0.5 -0.4375zm13.578125 -2.34375l0 5.734375q0 0.78125 -0.640625 0.78125q-0.640625 0 -0.640625 -0.78125l0 -5.84375q-1.328125 2.140625 -3.046875 3.6875q-1.71875 1.546875 -2.234375 1.546875q-0.6875 0 -0.6875 -0.71875q0 -0.40625 0.546875 -0.703125q1.515625 -0.828125 2.9375 -2.203125q1.421875 -1.375 2.171875 -2.78125l-4.796875 0q-0.765625 0 -0.765625 -0.625q0 -0.640625 0.765625 -0.640625l5.109375 0l0 -3.625q0 -0.796875 0.65625 -0.796875q0.625 0 0.625 0.796875l0 3.625l5.359375 0q0.75 0 0.75 0.640625q0 0.625 -0.75 0.625l-5.09375 0q1.8125 3.203125 5.28125 4.828125q0.6718674 0.328125 0.6718674 0.78125q0 0.296875 -0.21874237 0.53125q-0.21875 0.21875 -0.46875 0.21875q-0.453125 0 -1.40625 -0.640625q-2.71875 -1.765625 -4.125 -4.4375zm-5.0625 -6.0625q0.359375 0 1.046875 0.984375q0.703125 0.984375 0.703125 1.28125q0 0.65625 -0.671875 0.65625q-0.359375 0 -0.578125 -0.359375l-0.671875 -1.125q-0.46875 -0.65625 -0.46875 -0.84375q0 -0.59375 0.640625 -0.59375zm8.9375 -0.09375q0.640625 0 0.640625 0.65625q0 0.3125 -0.765625 1.390625q-0.765625 1.078125 -1.125 1.078125q-0.625 0 -0.625 -0.59375q0 -0.21875 0.140625 -0.390625q0.390625 -0.46875 1.09375 -1.703125q0.25 -0.4375 0.640625 -0.4375zm10.703117 3.234375l0 1.828125l2.265625 0q0.625 0 0.625 0.546875q0 0.515625 -0.625 0.515625l-2.265625 0l0 2.453125l3.359375 0q0.625 0 0.625 0.546875q0 0.546875 -0.625 0.546875l-7.484375 0q-0.625 0 -0.625 -0.546875q0 -0.546875 0.625 -0.546875l2.953125 0l0 -2.453125l-2.078125 0q-0.625 0 -0.625 -0.53125q0 -0.53125 0.625 -0.53125l2.078125 0l0 -1.828125l-2.5625 0q-0.609375 0 -0.609375 -0.546875q0 -0.546875 0.609375 -0.546875l6.609375 0q0.625 0 0.625 0.546875q0 0.546875 -0.625 0.546875l-2.875 0zm1.953125 3.234375q0.265625 0 0.59375 0.484375q0.328125 0.46875 0.328125 0.71875q0 0.46875 -0.59375 0.46875q-0.296875 0 -0.5 -0.359375q-0.1875 -0.359375 -0.3125 -0.578125q-0.09375 -0.15625 -0.09375 -0.25q0 -0.484375 0.578125 -0.484375zm2.3125 5.640625l-9.21875 0q-1.671875 0.09375 -1.5625 -1.578125l0 -9.1875q-0.09375 -1.6875 1.5625 -1.59375l9.21875 0q1.671875 -0.09375 1.5625 1.59375l0 9.1875q0.09375 1.671875 -1.5625 1.578125zm-0.40625 -1.140625q0.75 0 0.75 -0.75l0 -8.5625q0 -0.765625 -0.75 -0.765625l-8.40625 0q-0.75 0 -0.75 0.765625l0 8.5625q0 0.75 0.75 0.75l8.40625 0zm9.140625 -7.515625q2.375 0.9375 4.296875 2.109375q1.9375 1.171875 1.9375 1.6875q0 0.71875 -0.765625 0.71875q-0.3125 0 -0.859375 -0.453125q-2.203125 -1.8125 -4.609375 -2.71875l0 6.59375q0 0.828125 -0.671875 0.828125q-0.6875 0 -0.6875 -0.828125l0 -10.875q0 -0.84375 0.6875 -0.84375q0.671875 0 0.671875 0.84375l0 2.9375zm5.75 -3.453125q0 -0.53125 0.5 -0.53125q0.5 0 0.5 0.53125l0 1.421875q0 0.515625 -0.5 0.515625q-0.5 0 -0.5 -0.515625l0 -1.421875zm-1.609375 0q0 -0.53125 0.5 -0.53125q0.5 0 0.5 0.53125l0 1.421875q0 0.515625 -0.5 0.515625q-0.5 0 -0.5 -0.515625l0 -1.421875zm13.359375 9.8125q0.5 0 1.765625 -1.421875q1.28125 -1.4375 2.0 -3.96875q0.15625 -0.5 0.640625 -0.5q0.609375 0 0.609375 0.609375q0 0.765625 -0.875 2.625q-0.875 1.84375 -2.34375 3.125q-1.46875 1.265625 -2.28125 1.265625q-0.453125 0 -0.78125 -0.34375q-0.28125 -0.3125 -0.28125 -0.75l0 -9.75q0 -0.8125 0.671875 -0.8125q0.65625 0 0.65625 0.8125l0 8.8125q0 0.296875 0.21875 0.296875zm-4.765625 -9.421875q0.359375 0 0.515625 0.234375q0.15625 0.21875 0.15625 1.390625q0 3.515625 -0.4375 5.40625q-0.421875 1.890625 -1.984375 3.46875q-0.59375 0.578125 -0.96875 0.578125q-0.671875 0 -0.671875 -0.6875q0 -0.34375 0.5625 -0.84375q1.25 -1.109375 1.703125 -2.609375q0.46875 -1.515625 0.46875 -5.625l-0.015625 -0.4375q0 -0.875 0.671875 -0.875z" fill-rule="nonzero"/></g></svg>