<svg version="1.1" viewBox="0.0 0.0 879.6167979002624 100.0" fill="none" stroke="none" stroke-linecap="square" stroke-miterlimit="10" xmlns:xlink="http://www.w3.org/1999/xlink" xmlns="http://www.w3.org/2000/svg"><clipPath id="p.0"><path d="m0 0l879.6168 0l0 100.0l-879.6168 0l0 -100.0z" clip-rule="nonzero"/></clipPath><g clip-path="url(#p.0)"><path fill="#000000" fill-opacity="0.0" d="m0 0l879.6168 0l0 100.0l-879.6168 0z" fill-rule="evenodd"/><g filter="url(#shadowFilter-p.1)"><use xlink:href="#p.1" transform="matrix(1.0 0.0 0.0 1.0 0.0 2.0)"/></g><defs><filter id="shadowFilter-p.1" filterUnits="userSpaceOnUse"><feGaussianBlur in="SourceAlpha" stdDeviation="2.0" result="blur"/><feComponentTransfer in="blur" color-interpolation-filters="sRGB"><feFuncR type="linear" slope="0" intercept="0.0"/><feFuncG type="linear" slope="0" intercept="0.0"/><feFuncB type="linear" slope="0" intercept="0.0"/><feFuncA type="linear" slope="0.5" intercept="0"/></feComponentTransfer></filter></defs><g id="p.1"><path fill="#000000" fill-opacity="0.0" d="m8.0 21.199474l259.43307 0l28.188965 28.188976l-28.188965 28.18898l-259.43307 0z" fill-rule="evenodd"/><path stroke="#c97e83" stroke-width="4.0" stroke-linejoin="round" stroke-linecap="butt" d="m8.0 21.199474l259.43307 0l28.188965 28.188976l-28.188965 28.18898l-259.43307 0z" fill-rule="evenodd"/></g><g filter="url(#shadowFilter-p.2)"><use xlink:href="#p.2" transform="matrix(1.0 0.0 0.0 1.0 0.0 2.0)"/></g><defs><filter id="shadowFilter-p.2" filterUnits="userSpaceOnUse"><feGaussianBlur in="SourceAlpha" stdDeviation="2.0" result="blur"/><feComponentTransfer in="blur" color-interpolation-filters="sRGB"><feFuncR type="linear" slope="0" intercept="0.0"/><feFuncG type="linear" slope="0" intercept="0.0"/><feFuncB type="linear" slope="0" intercept="0.0"/><feFuncA type="linear" slope="0.5" intercept="0"/></feComponentTransfer></filter></defs><g id="p.2"><path fill="#c97e83" d="m295.4357 22.423725l259.811 0l28.189026 28.188976l-28.189026 28.18898l-259.811 0l28.188995 -28.18898z" fill-rule="evenodd"/><path stroke="#c97e83" stroke-width="3.0" stroke-linejoin="round" stroke-linecap="butt" d="m295.4357 22.423725l259.811 0l28.189026 28.188976l-28.189026 28.18898l-259.811 0l28.188995 -28.18898z" fill-rule="evenodd"/></g><g filter="url(#shadowFilter-p.3)"><use xlink:href="#p.3" transform="matrix(1.0 0.0 0.0 1.0 0.0 2.0)"/></g><defs><filter id="shadowFilter-p.3" filterUnits="userSpaceOnUse"><feGaussianBlur in="SourceAlpha" stdDeviation="2.0" result="blur"/><feComponentTransfer in="blur" color-interpolation-filters="sRGB"><feFuncR type="linear" slope="0" intercept="0.0"/><feFuncG type="linear" slope="0" intercept="0.0"/><feFuncB type="linear" slope="0" intercept="0.0"/><feFuncA type="linear" slope="0.5" intercept="0"/></feComponentTransfer></filter></defs><g id="p.3"><path fill="#000000" fill-opacity="0.0" d="m583.2494 22.423725l259.81097 0l28.189026 28.188976l-28.189026 28.18898l-259.81097 0l28.188965 -28.18898z" fill-rule="evenodd"/><path stroke="#c97e83" stroke-width="4.0" stroke-linejoin="round" stroke-linecap="butt" d="m583.2494 22.423725l259.81097 0l28.189026 28.188976l-28.189026 28.18898l-259.81097 0l28.188965 -28.18898z" fill-rule="evenodd"/></g><path fill="#000000" fill-opacity="0.0" d="m22.629911 32.179707l221.51181 0l0 36.85039l-221.51181 0z" fill-rule="evenodd"/><path fill="#49352a" d="m98.32332 44.486153l0 1.609375l6.375 0q0.96875 0 0.96875 0.859375q0 0.859375 -0.96875 0.859375l-15.0 0q-0.953125 0 -0.953125 -0.859375q0 -0.859375 0.953125 -0.859375l6.5625 0l0 -1.609375l-4.21875 0q-0.9375 0 -0.9375 -0.8125q0 -0.8125 0.9375 -0.8125l4.21875 0l0 -1.53125l-5.515625 0q-0.9375 0 -0.9375 -0.859375q0 -0.859375 0.9375 -0.859375l5.515625 0l0 -0.78125q0 -1.03125 1.046875 -1.03125q1.015625 0 1.015625 1.03125l0 0.78125l5.671875 0q1.015625 0 1.015625 0.859375q0 0.859375 -1.015625 0.859375l-5.671875 0l0 1.53125l4.53125 0q0.953125 0 0.953125 0.8125q0 0.8125 -0.953125 0.8125l-4.53125 0zm-5.4375 12.625l0 3.984375q0 1.140625 -1.046875 1.140625q-1.046875 0 -1.046875 -1.140625l0 -9.796875q-0.125 -2.390625 2.265625 -2.234375l8.390625 0q2.390625 -0.125 2.234375 2.234375l0 8.15625q0.1875 2.8125 -2.53125 2.671875l-1.5 0q-1.0625 0 -1.0625 -1.109375q0 -1.078125 1.0625 -1.078125l1.171875 0q0.71875 -0.015625 0.75 -0.75l0 -2.078125l-8.6875 0zm0 -4.84375l8.6875 0l0 -0.8125q0 -0.75 -0.75 -0.78125l-7.15625 0q-0.78125 0.03125 -0.78125 0.78125l0 0.8125zm0 1.578125l0 1.671875l8.6875 0l0 -1.671875l-8.6875 0zm-5.84375 7.34375q0 1.15625 -1.046875 1.15625q-1.03125 0 -1.03125 -1.15625l0 -22.21875q0 -1.15625 1.03125 -1.15625q1.046875 0 1.046875 1.15625l0 22.21875zm1.09375 -19.671875q0.46875 0 1.34375 1.28125q0.875 1.265625 0.875 1.65625q0 0.90625 -0.90625 0.90625q-0.546875 0 -0.84375 -0.59375l-1.1875 -2.3125l-0.0625 -0.234375q0 -0.703125 0.78125 -0.703125zm-5.515625 0.078125q0.890625 0 0.890625 1.015625l0 0.3125l-0.046875 1.875q-0.03125 3.984375 -0.375 5.234375q-0.234375 0.75 -0.984375 0.75q-0.96875 0 -0.96875 -0.984375l0.15625 -0.96875q0.375 -1.453125 0.375 -5.078125q0 -2.15625 0.953125 -2.15625zm45.84375 15.640625q1.296875 1.359375 2.578125 2.125q1.28125 0.765625 1.28125 1.4375q0 1.171875 -1.046875 1.171875q-1.375 0 -4.09375 -3.046875q-2.640625 3.046875 -3.453125 3.046875q-1.015625 0 -1.015625 -1.171875q0 -0.40625 0.515625 -0.859375q1.90625 -1.578125 2.65625 -2.578125q-1.03125 -1.421875 -1.78125 -3.21875q-0.734375 -1.796875 -0.734375 -2.734375q0 -0.890625 0.984375 -0.890625q0.78125 0 0.984375 1.0q0.453125 2.125 1.828125 4.125q0.75 -1.140625 1.546875 -2.9375q0.796875 -1.8125 0.796875 -2.5q0 -0.4375 -0.546875 -0.4375l-6.375 0l0 11.25q0 1.25 -1.046875 1.25q-1.0625 0 -1.0625 -1.203125l0 -19.859375q-0.140625 -2.46875 2.3125 -2.3125l6.1875 0q2.53125 -0.15625 2.375 2.390625l0 2.546875q0 1.640625 -1.171875 2.234375q-1.25 0.6875 -4.03125 0.6875q-1.375 0 -1.375 -1.09375q0 -0.703125 0.484375 -0.9375q0.15625 -0.109375 1.625 -0.125q1.46875 -0.03125 1.890625 -0.21875q0.421875 -0.1875 0.4375 -1.28125l0 -1.296875q-0.015625 -0.828125 -0.828125 -0.859375l-4.9375 0q-0.84375 0.03125 -0.859375 0.859375l0 5.984375l7.171875 0q1.953125 0 1.953125 1.4375q0 1.171875 -0.96875 3.625q-0.953125 2.4375 -2.28125 4.390625zm-13.6875 -12.28125l4.0 0q1.125 0 1.125 0.96875q0 0.953125 -1.125 0.953125l-0.953125 0l0 0.078125l-0.765625 3.5625l1.546875 0q1.140625 0 1.140625 0.96875q0 0.984375 -1.140625 0.984375l-3.828125 0l0 2.609375l3.21875 0q1.125 0 1.125 0.984375q0 0.96875 -1.125 0.96875l-3.21875 0l0 4.15625q0 1.15625 -1.046875 1.15625q-1.015625 0 -1.015625 -1.15625l0 -4.15625l-3.203125 0q-1.109375 0 -1.109375 -0.96875q0 -0.984375 1.109375 -0.984375l3.203125 0l0 -2.609375l-3.6875 0q-1.125 0 -1.125 -0.984375q0 -0.96875 1.125 -0.96875l1.296875 0l-0.65625 -3.375l-0.046875 -0.265625l-0.734375 0q-1.109375 0 -1.109375 -0.953125q0 -0.96875 1.109375 -0.96875l3.828125 0l0 -2.5l-2.9375 0q-1.125 0 -1.125 -0.96875q0 -0.96875 1.125 -0.96875l2.9375 0l0 -1.578125q0 -1.140625 1.015625 -1.140625q1.046875 0 1.046875 1.140625l0 1.578125l2.984375 0q1.15625 0 1.15625 0.96875q0 0.96875 -1.15625 0.96875l-2.984375 0l0 2.5zm0.40625 5.5625q0.46875 -2.109375 0.65625 -3.640625l-4.296875 0l0.0625 0.1875l0.59375 3.28125l0.03125 0.171875l2.953125 0zm31.6875 -2.78125q-1.25 3.46875 -2.890625 6.125q-1.640625 2.640625 -4.421875 5.3125q-2.78125 2.671875 -3.9375 2.671875q-1.171875 0 -1.171875 -1.328125q0 -0.515625 0.390625 -0.890625l1.796875 -1.34375q6.75 -5.0 9.421875 -14.640625l-0.046875 -1.171875q-0.046875 -1.265625 -1.015625 -1.296875l-3.515625 0q-1.453125 0 -1.453125 -1.25q0 -1.21875 1.453125 -1.21875l4.40625 0q2.515625 -0.078125 2.4375 2.90625q0.078125 5.453125 2.640625 9.921875q2.796875 4.71875 7.046875 7.421875q0.96875 0.65625 0.96875 1.375q0 1.40625 -1.25 1.40625q-1.125 0 -4.09375 -2.734375q-4.765625 -4.390625 -6.765625 -11.265625zm25.71875 -4.953125l8.4375 0q3.0625 0 3.0625 2.65625l-0.015625 0.578125q-0.140625 4.1875 -0.453125 8.15625q-0.3125 3.96875 -0.75 5.25q-0.828125 2.453125 -5.953125 2.453125q-1.59375 0 -1.59375 -1.40625q0 -0.546875 0.328125 -0.921875q0.328125 -0.390625 1.828125 -0.40625q2.265625 -0.109375 2.6875 -0.6875q0.625 -0.546875 1.015625 -6.1875l0.3125 -5.75q0 -1.3125 -1.3125 -1.3125l-7.71875 0q-0.390625 6.515625 -2.5 10.078125q-2.09375 3.5625 -5.671875 5.734375q-1.3125 0.78125 -1.90625 0.78125q-1.28125 0 -1.28125 -1.40625q0 -0.734375 0.890625 -1.203125q4.71875 -2.375 6.65625 -6.796875q0.9375 -2.28125 1.28125 -7.109375l0 -0.078125l-6.5625 0q-1.484375 0 -1.484375 -1.21875q0 -1.203125 1.484375 -1.203125l6.671875 0l0.046875 -3.578125q0 -1.390625 1.25 -1.390625q1.296875 0 1.296875 1.5625l-0.046875 3.40625z" fill-rule="nonzero"/><path fill="#000000" fill-opacity="0.0" d="m351.37268 31.574802l164.25195 0l0 36.85039l-164.25195 0z" fill-rule="evenodd"/><path fill="#49352a" d="m424.74866 47.00625l0.6875 -1.625q0.59375 -1.5 1.328125 -1.5q0.984375 0 0.984375 0.828125q0 0.578125 -1.046875 2.296875l4.34375 0q1.046875 0 1.046875 0.90625q0 0.90625 -1.046875 0.90625l-4.234375 0l0 2.1875l3.484375 0q0.9375 0 0.9375 0.8125q0 0.8125 -0.9375 0.8125l-3.484375 0l0 2.171875l3.484375 0q0.9375 0 0.9375 0.8125q0 0.8125 -0.9375 0.8125l-3.484375 0l0 2.625l4.546875 0q1.078125 0 1.078125 0.90625q0 0.921875 -1.078125 0.921875l-9.90625 0q-2.140625 0 -2.140625 -2.140625l0 -8.203125l-0.109375 0.140625q-1.140625 1.34375 -1.5625 1.34375q-0.796875 0 -0.796875 -1.109375q0 -0.53125 0.828125 -1.28125q2.84375 -2.703125 4.421875 -7.5l-2.078125 0q-0.8125 0.03125 -0.828125 0.828125l0 1.71875q0 1.015625 -1.015625 1.015625q-1.0 0 -1.0 -1.015625l0 -2.3125q-0.125 -2.3125 2.1875 -2.1875l3.28125 0l0.34375 -1.734375q0.1875 -1.234375 1.203125 -1.234375q1.09375 0 1.09375 0.9375l-0.34375 1.453125l-0.109375 0.5l-0.015625 0.078125l4.890625 0q2.390625 -0.125 2.234375 2.21875l0 2.234375q0 1.0625 -1.046875 1.0625q-1.03125 0 -1.03125 -1.0625l0 -1.640625q-0.03125 -0.828125 -0.859375 -0.859375l-4.796875 0q-0.875 2.625 -2.28125 4.875l2.828125 0zm0.140625 4.0l0 -2.1875l-3.15625 0q-0.4375 0 -0.4375 0.453125l0 1.734375l3.59375 0zm0 1.625l-3.59375 0l0 2.171875l3.59375 0l0 -2.171875zm0 3.796875l-3.59375 0l0 1.8125q0.015625 0.78125 0.796875 0.8125l2.796875 0l0 -2.625zm-14.5 -5.359375q-1.015625 2.203125 -1.59375 2.203125q-0.890625 0 -0.890625 -1.09375q0 -0.359375 0.421875 -1.03125q2.421875 -4.25 3.015625 -10.3125l-1.96875 0q-1.3125 0 -1.3125 -1.046875q0 -1.0625 1.3125 -1.0625l6.375 0q1.265625 0 1.265625 1.0625q0 1.046875 -1.265625 1.046875l-2.296875 0l-0.046875 0.359375q-0.546875 3.4375 -1.375 5.78125q0.28125 -0.046875 2.59375 -0.046875q2.15625 0 2.15625 2.125l0 8.15625q0 2.15625 -2.15625 2.15625l-2.046875 0q-2.1875 0 -2.1875 -2.15625l0 -6.140625zm4.46875 5.5625l0 -7.0q-0.03125 -0.734375 -0.75 -0.734375l-1.296875 0q-0.5 0 -0.5 0.46875l0 7.265625q0.03125 0.734375 0.75 0.75l1.046875 0q0.71875 -0.015625 0.75 -0.75zm35.71875 -12.390625q2.96875 1.59375 2.96875 2.3125q0 1.046875 -1.0625 1.046875q-0.421875 0 -2.5625 -1.4375q-0.875 1.859375 -2.515625 3.234375q-1.625 1.359375 -2.5 1.359375q-1.125 0 -1.125 -1.078125q0 -0.515625 1.4375 -1.296875q2.078125 -1.140625 2.984375 -3.25l-2.203125 -1.171875q-0.96875 -0.453125 -0.96875 -0.96875q0 -0.90625 0.9375 -0.90625q0.34375 0 2.734375 1.140625l0.078125 0.046875q0.203125 -1.09375 0.265625 -2.59375l-3.59375 0q-1.234375 0 -1.234375 -1.0q0 -1.0 1.234375 -1.0l9.984375 0q2.375 0 2.375 2.046875l-0.078125 1.59375l-0.109375 1.40625q-0.203125 4.0 -0.796875 5.25q-0.703125 1.515625 -3.59375 1.515625q-1.296875 0 -1.296875 -1.171875q0 -1.0625 2.046875 -1.125q1.09375 -0.015625 1.28125 -1.71875q0.328125 -3.296875 0.328125 -5.0q0 -0.796875 -0.875 -0.796875l-3.640625 0q-0.109375 1.640625 -0.5 3.5625zm-3.078125 9.0q0 -1.234375 1.015625 -1.234375q1.0 0 1.0 1.234375l0 4.90625q0 0.640625 0.3125 0.78125q0.28125 0.125 1.5 0.203125q1.59375 -0.109375 1.796875 -0.4375q0.234375 -0.453125 0.234375 -1.546875q0 -1.09375 0.96875 -1.09375q1.03125 0 1.03125 1.171875q0 2.484375 -0.828125 3.1875q-0.734375 0.640625 -2.5 0.640625q-3.09375 0 -3.75 -0.359375q-0.78125 -0.46875 -0.78125 -1.90625l0 -5.546875zm-6.96875 -0.609375q2.15625 0 2.15625 2.125l0 3.78125q0 2.125 -2.15625 2.125l-2.78125 0q-2.171875 0 -2.171875 -2.078125l0 -3.828125q0 -2.125 2.171875 -2.125l2.78125 0zm0.328125 5.59375l0 -3.15625q-0.015625 -0.703125 -0.6875 -0.734375l-2.0625 0q-0.671875 0.03125 -0.703125 0.734375l0 3.15625q0.03125 0.703125 0.703125 0.703125l2.0625 0q0.671875 0 0.6875 -0.703125zm-4.28125 -17.921875q-1.171875 0 -1.171875 -0.953125q0 -0.96875 1.171875 -0.96875l5.21875 0q1.171875 0 1.171875 0.96875q0 0.953125 -1.171875 0.953125l-5.21875 0zm-0.859375 3.625q-1.15625 0 -1.15625 -0.953125q0 -0.96875 1.15625 -0.96875l6.8125 0q1.140625 0 1.140625 0.96875q0 0.953125 -1.140625 0.953125l-6.8125 0zm0.90625 3.484375q-1.09375 0 -1.09375 -0.90625q0 -0.90625 1.09375 -0.90625l5.234375 0q1.109375 0 1.109375 0.90625q0 0.90625 -1.109375 0.90625l-5.234375 0zm0 3.546875q-1.09375 0 -1.09375 -0.90625q0 -0.921875 1.09375 -0.921875l5.234375 0q1.109375 0 1.109375 0.921875q0 0.90625 -1.109375 0.90625l-5.234375 0zm8.71875 2.03125q0.859375 0 0.859375 0.859375q0 1.6875 -0.890625 4.734375q-0.390625 1.359375 -1.1875 1.359375q-0.96875 0 -0.96875 -0.921875q0 -0.203125 0.234375 -0.78125q0.703125 -1.8125 0.9375 -3.90625q0.15625 -1.34375 1.015625 -1.34375zm10.40625 0q0.609375 0 1.0 0.625q2.28125 3.609375 2.28125 4.6875q0 1.109375 -1.09375 1.109375q-0.703125 0 -0.984375 -0.71875q-1.125 -2.734375 -1.953125 -4.21875q-0.203125 -0.375 -0.203125 -0.609375q0 -0.875 0.953125 -0.875zm-4.90625 -2.609375q0.40625 0 1.484375 1.046875q1.09375 1.046875 1.09375 1.578125q0 0.96875 -1.046875 0.96875q-0.515625 0 -1.609375 -1.34375q-0.9375 -1.125 -0.9375 -1.359375q0 -0.890625 1.015625 -0.890625z" fill-rule="nonzero"/><path fill="#000000" fill-opacity="0.0" d="m655.6116 32.18635l143.27557 0l0 36.85039l-143.27557 0z" fill-rule="evenodd"/><path fill="#49352a" d="m717.7181 53.102173l0 5.15625q0 0.8125 0.46875 0.984375q0.46875 0.15625 2.34375 0.15625q1.84375 0 2.296875 -0.203125q0.59375 -0.4375 0.703125 -1.890625q0.125 -1.46875 1.296875 -1.46875q1.28125 0 1.28125 1.28125q0 2.265625 -0.890625 3.40625q-0.890625 1.140625 -4.109375 1.140625l-1.125 -0.015625q-1.609375 0 -2.96875 -0.1875q-1.609375 -0.390625 -1.609375 -2.578125l0 -5.78125l-3.9375 0q-0.328125 3.5625 -1.921875 5.5625q-1.59375 1.984375 -4.578125 3.0625q-1.171875 0.40625 -1.84375 0.40625q-1.234375 0 -1.234375 -1.25q0 -0.953125 1.90625 -1.453125q4.96875 -1.40625 5.28125 -6.328125l-5.484375 0q-1.3125 0 -1.3125 -1.03125q0 -1.078125 1.3125 -1.078125l20.6875 0q1.28125 0 1.28125 1.078125q0 1.03125 -1.28125 1.03125l-6.5625 0zm-5.171875 -12.5l0 -1.578125q0 -1.21875 1.21875 -1.21875q1.25 0 1.25 1.21875l0 1.578125l8.046875 0q1.25 0 1.953125 0.65625q0.703125 0.734375 0.640625 2.0625l0 2.359375q0 1.3125 -1.140625 1.3125q-1.171875 0 -1.171875 -1.3125l0 -1.921875q0.03125 -1.0625 -1.046875 -1.046875l-16.75 0q-1.078125 -0.015625 -1.046875 1.046875l0 1.921875q0 1.3125 -1.140625 1.3125q-1.171875 0 -1.171875 -1.3125l0 -2.359375q-0.21875 -2.921875 2.703125 -2.71875l7.65625 0zm-5.828125 7.171875q-1.25 0 -1.25 -1.046875q0 -1.046875 1.25 -1.046875l14.40625 0q1.3125 0 1.3125 1.046875q0 1.046875 -1.3125 1.046875l-14.40625 0zm43.0 -8.4375q2.109375 0 2.109375 1.53125q0 0.671875 -2.953125 2.546875q-2.953125 1.859375 -5.875 3.3125q-1.203125 0.59375 -1.203125 1.296875l0 10.9375q0.234375 3.390625 -3.125 3.15625l-2.34375 0q-1.640625 0 -1.640625 -1.359375q0 -1.328125 1.640625 -1.328125l1.75 0q1.171875 0.03125 1.140625 -1.140625l0 -10.625q0.03125 -1.0625 0.453125 -1.5625q0.4375 -0.5 2.28125 -1.359375q1.859375 -0.859375 3.703125 -1.890625l1.171875 -0.6875q0.203125 -0.125 0.203125 -0.203125q0 -0.15625 -0.171875 -0.15625l-16.09375 0q-1.515625 0 -1.515625 -1.21875q0 -1.25 1.515625 -1.25l18.953125 0z" fill-rule="nonzero"/></g></svg>