<svg version="1.1" viewBox="0.0 0.0 902.4120734908137 105.80314960629921" fill="none" stroke="none" stroke-linecap="square" stroke-miterlimit="10" xmlns:xlink="http://www.w3.org/1999/xlink" xmlns="http://www.w3.org/2000/svg"><clipPath id="p.0"><path d="m0 0l902.41205 0l0 105.80315l-902.41205 0l0 -105.80315z" clip-rule="nonzero"/></clipPath><g clip-path="url(#p.0)"><path fill="#000000" fill-opacity="0.0" d="m0 0l902.41205 0l0 105.80315l-902.41205 0z" fill-rule="evenodd"/><g filter="url(#shadowFilter-p.1)"><use xlink:href="#p.1" transform="matrix(1.0 0.0 0.0 1.0 0.0 2.0)"/></g><defs><filter id="shadowFilter-p.1" filterUnits="userSpaceOnUse"><feGaussianBlur in="SourceAlpha" stdDeviation="2.0" result="blur"/><feComponentTransfer in="blur" color-interpolation-filters="sRGB"><feFuncR type="linear" slope="0" intercept="0.0"/><feFuncG type="linear" slope="0" intercept="0.0"/><feFuncB type="linear" slope="0" intercept="0.0"/><feFuncA type="linear" slope="0.5" intercept="0"/></feComponentTransfer></filter></defs><g id="p.1"><path fill="#000000" fill-opacity="0.0" d="m11.7979 9.745407l267.07086 0l40.86612 40.866142l-40.86612 40.866142l-267.07086 0z" fill-rule="evenodd"/><path stroke="#c97e83" stroke-width="3.0" stroke-linejoin="round" stroke-linecap="butt" d="m11.7979 9.745407l267.07086 0l40.86612 40.866142l-40.86612 40.866142l-267.07086 0z" fill-rule="evenodd"/></g><g filter="url(#shadowFilter-p.2)"><use xlink:href="#p.2" transform="matrix(1.0 0.0 0.0 1.0 0.0 2.0)"/></g><defs><filter id="shadowFilter-p.2" filterUnits="userSpaceOnUse"><feGaussianBlur in="SourceAlpha" stdDeviation="2.0" result="blur"/><feComponentTransfer in="blur" color-interpolation-filters="sRGB"><feFuncR type="linear" slope="0" intercept="0.0"/><feFuncG type="linear" slope="0" intercept="0.0"/><feFuncB type="linear" slope="0" intercept="0.0"/><feFuncA type="linear" slope="0.5" intercept="0"/></feComponentTransfer></filter></defs><g id="p.2"><path fill="#000000" fill-opacity="0.0" d="m299.4226 11.520194l267.07086 0l40.86615 40.866142l-40.86615 40.866142l-267.07086 0l40.86615 -40.866142z" fill-rule="evenodd"/><path stroke="#c97e83" stroke-width="3.0" stroke-linejoin="round" stroke-linecap="butt" d="m299.4226 11.520194l267.07086 0l40.86615 40.866142l-40.86615 40.866142l-267.07086 0l40.86615 -40.866142z" fill-rule="evenodd"/></g><g filter="url(#shadowFilter-p.3)"><use xlink:href="#p.3" transform="matrix(1.0 0.0 0.0 1.0 0.0 2.0)"/></g><defs><filter id="shadowFilter-p.3" filterUnits="userSpaceOnUse"><feGaussianBlur in="SourceAlpha" stdDeviation="2.0" result="blur"/><feComponentTransfer in="blur" color-interpolation-filters="sRGB"><feFuncR type="linear" slope="0" intercept="0.0"/><feFuncG type="linear" slope="0" intercept="0.0"/><feFuncB type="linear" slope="0" intercept="0.0"/><feFuncA type="linear" slope="0.5" intercept="0"/></feComponentTransfer></filter></defs><g id="p.3"><path fill="#c97e83" d="m587.0473 11.520194l267.07086 0l40.86615 40.866142l-40.86615 40.866142l-267.07086 0l40.86615 -40.866142z" fill-rule="evenodd"/><path stroke="#c97e83" stroke-width="3.0" stroke-linejoin="round" stroke-linecap="butt" d="m587.0473 11.520194l267.07086 0l40.86615 40.866142l-40.86615 40.866142l-267.07086 0l40.86615 -40.866142z" fill-rule="evenodd"/></g><path fill="#000000" fill-opacity="0.0" d="m40.293957 25.676683l221.5118 0l0 53.417328l-221.5118 0z" fill-rule="evenodd"/><path fill="#49352a" d="m98.44048 43.191593l0 2.421875l9.5625 0q1.453125 0 1.453125 1.296875q0 1.28125 -1.453125 1.28125l-22.5 0q-1.4375 0 -1.4375 -1.28125q0 -1.296875 1.4375 -1.296875l9.84375 0l0 -2.421875l-6.328125 0q-1.40625 0 -1.40625 -1.203125q0 -1.21875 1.40625 -1.21875l6.328125 0l0 -2.3125l-8.28125 0q-1.40625 0 -1.40625 -1.28125q0 -1.296875 1.40625 -1.296875l8.28125 0l0 -1.171875q0 -1.5625 1.5625 -1.5625q1.53125 0 1.53125 1.5625l0 1.171875l8.515625 0q1.515625 0 1.515625 1.296875q0 1.28125 -1.515625 1.28125l-8.515625 0l0 2.3125l6.796875 0q1.4375 0 1.4375 1.21875q0 1.203125 -1.4375 1.203125l-6.796875 0zm-8.171875 18.9375l0 5.984371q0 1.71875 -1.5625 1.71875q-1.5625 0 -1.5625 -1.71875l0 -14.687496q-0.1875 -3.59375 3.40625 -3.359375l12.578125 0q3.59375 -0.203125 3.359375 3.359375l0 12.218746q0.265625 4.234375 -3.796875 4.03125l-2.265625 0q-1.59375 0 -1.59375 -1.671875q0 -1.609375 1.59375 -1.609375l1.765625 0q1.09375 -0.046875 1.125 -1.140625l0 -3.1249962l-13.046875 0zm0 -7.265625l13.046875 0l0 -1.203125q0 -1.140625 -1.125 -1.171875l-10.75 0q-1.171875 0.03125 -1.171875 1.171875l0 1.203125zm0 2.390625l0 2.5l13.046875 0l0 -2.5l-13.046875 0zm-8.75 11.015621q0 1.71875 -1.5625 1.71875q-1.5625 0 -1.5625 -1.71875l0 -33.35937q0 -1.71875 1.5625 -1.71875q1.5625 0 1.5625 1.71875l0 33.35937zm1.640625 -29.531246q0.703125 0 2.015625 1.921875q1.3125 1.90625 1.3125 2.484375q0 1.375 -1.375 1.375q-0.8125 0 -1.25 -0.90625l-1.796875 -3.46875l-0.078125 -0.359375q0 -1.046875 1.171875 -1.046875zm-8.28125 0.109375q1.328125 0 1.328125 1.53125l0 0.46875l-0.078125 2.8125q-0.03125 5.96875 -0.546875 7.84375q-0.34375 1.140625 -1.484375 1.140625q-1.4375 0 -1.4375 -1.484375l0.234375 -1.453125q0.546875 -2.1875 0.546875 -7.609375q0 -3.25 1.4375 -3.25zm68.79688 23.484375q1.953125 2.0312462 3.859375 3.1874962q1.921875 1.140625 1.921875 2.171875q0 1.75 -1.5625 1.75q-2.078125 0 -6.140625 -4.578125q-3.984375 4.578125 -5.1875 4.578125q-1.53125 0 -1.53125 -1.75q0 -0.625 0.78125 -1.296875q2.859375 -2.390625 3.984375 -3.8749962q-1.5625 -2.140625 -2.671875 -4.828125q-1.109375 -2.703125 -1.109375 -4.109375q0 -1.328125 1.484375 -1.328125q1.171875 0 1.484375 1.484375q0.65625 3.203125 2.734375 6.203125q1.125 -1.71875 2.3125 -4.421875q1.203125 -2.71875 1.203125 -3.734375q0 -0.671875 -0.828125 -0.671875l-9.5625 0l0 16.890621q0 1.875 -1.5625 1.875q-1.609375 0 -1.609375 -1.796875l0 -29.812496q-0.1875 -3.71875 3.484375 -3.484375l9.296875 0q3.78125 -0.234375 3.546875 3.59375l0 3.828125q0 2.46875 -1.75 3.359375q-1.875 1.015625 -6.0625 1.015625q-2.0625 0 -2.0625 -1.640625q0 -1.046875 0.734375 -1.40625q0.234375 -0.15625 2.4375 -0.1875q2.21875 -0.046875 2.84375 -0.3125q0.625 -0.28125 0.65625 -1.921875l0 -1.953125q-0.03125 -1.25 -1.25 -1.28125l-7.421875 0q-1.25 0.03125 -1.28125 1.28125l0 8.984375l10.78125 0q2.921875 0 2.921875 2.15625q0 1.75 -1.453125 5.421875q-1.4375 3.671875 -3.421875 6.609375zm-20.546883 -18.4375l6.0156326 0q1.671875 0 1.671875 1.453125q0 1.4375 -1.671875 1.4375l-1.4531326 0l0 0.109375l-1.125 5.359375l2.2968826 0q1.71875 0 1.71875 1.4375q0 1.484375 -1.71875 1.484375l-5.7343826 0l0 3.90625l4.84375 0q1.6718826 0 1.6718826 1.484375q0 1.453125 -1.6718826 1.453125l-4.84375 0l0 6.249996q0 1.71875 -1.5625 1.71875q-1.53125 0 -1.53125 -1.71875l0 -6.249996l-4.796875 0q-1.6875 0 -1.6875 -1.453125q0 -1.484375 1.6875 -1.484375l4.796875 0l0 -3.90625l-5.546875 0q-1.671875 0 -1.671875 -1.484375q0 -1.4375 1.671875 -1.4375l1.953125 0l-0.96875 -5.078125l-0.078125 -0.390625l-1.09375 0q-1.6875 0 -1.6875 -1.4375q0 -1.453125 1.6875 -1.453125l5.734375 0l0 -3.75l-4.40625 0q-1.6875 0 -1.6875 -1.4375q0 -1.453125 1.6875 -1.453125l4.40625 0l0 -2.390625q0 -1.71875 1.53125 -1.71875q1.5625 0 1.5625 1.71875l0 2.390625l4.484375 0q1.7187576 0 1.7187576 1.453125q0 1.4375 -1.7187576 1.4375l-4.484375 0l0 3.75zm0.625 8.359375q0.703125 -3.171875 0.96875 -5.46875l-6.4375 0l0.078125 0.265625l0.890625 4.921875l0.046875 0.28125l4.453125 0zm47.531258 -4.1875q-1.875 5.203125 -4.34375 9.1875q-2.453125 3.984375 -6.640625 7.999996q-4.171875 4.0 -5.890625 4.0q-1.75 0 -1.75 -2.0q0 -0.78125 0.578125 -1.328125l2.703125 -2.0312462q10.109375 -7.5 14.140625 -21.953125l-0.078125 -1.765625q-0.078125 -1.90625 -1.53125 -1.953125l-5.265625 0q-2.1875 0 -2.1875 -1.875q0 -1.828125 2.1875 -1.828125l6.59375 0q3.796875 -0.125 3.671875 4.375q0.125 8.15625 3.953125 14.875q4.21875 7.078125 10.578125 11.140621q1.453125 0.96875 1.453125 2.078125q0 2.109375 -1.875 2.109375q-1.6875 0 -6.140625 -4.109375q-7.140625 -6.609371 -10.15625 -16.921871zm38.59375 -7.421875l12.65625 0q4.609375 0 4.609375 3.984375l-0.03125 0.859375q-0.203125 6.296875 -0.671875 12.25q-0.46875 5.953125 -1.125 7.874996q-1.25 3.671875 -8.953125 3.671875q-2.375 0 -2.375 -2.109375q0 -0.828125 0.484375 -1.390625q0.484375 -0.5625 2.75 -0.609375q3.40625 -0.15625 4.03125 -1.015625q0.9375 -0.8124962 1.515625 -9.296871l0.46875 -8.625q0 -1.953125 -1.953125 -1.953125l-11.59375 0q-0.59375 9.765625 -3.734375 15.125q-3.140625 5.343746 -8.53125 8.593746q-1.953125 1.171875 -2.859375 1.171875q-1.90625 0 -1.90625 -2.109375q0 -1.109375 1.328125 -1.8125q7.0625 -3.5468712 10.0 -10.187496q1.40625 -3.4375 1.90625 -10.671875l0 -0.109375l-9.84375 0q-2.21875 0 -2.21875 -1.84375q0 -1.796875 2.21875 -1.796875l10.0 0l0.078125 -5.390625q0 -2.0625 1.875 -2.0625q1.953125 0 1.953125 2.34375l-0.078125 5.109375z" fill-rule="nonzero"/><path fill="#000000" fill-opacity="0.0" d="m336.29388 25.676683l221.51184 0l0 53.417328l-221.51184 0z" fill-rule="evenodd"/><path fill="#49352a" d="m433.9248 47.879093l1.015625 -2.421875q0.90625 -2.265625 2.0 -2.265625q1.484375 0 1.484375 1.25q0 0.859375 -1.5625 3.4375l6.515625 0q1.5625 0 1.5625 1.375q0 1.359375 -1.5625 1.359375l-6.359375 0l0 3.28125l5.234375 0q1.40625 0 1.40625 1.21875q0 1.203125 -1.40625 1.203125l-5.234375 0l0 3.28125l5.234375 0q1.40625 0 1.40625 1.21875q0 1.203125 -1.40625 1.203125l-5.234375 0l0 3.9374962l6.828125 0q1.609375 0 1.609375 1.375q0 1.375 -1.609375 1.375l-14.875 0q-3.203125 0 -3.203125 -3.21875l0 -12.296871l-0.15625 0.1875q-1.71875 2.03125 -2.34375 2.03125q-1.21875 0 -1.21875 -1.671875q0 -0.78125 1.25 -1.921875q4.265625 -4.0625 6.640625 -11.25l-3.125 0q-1.203125 0.046875 -1.25 1.25l0 2.578125q0 1.53125 -1.515625 1.53125q-1.484375 0 -1.484375 -1.53125l0 -3.46875q-0.203125 -3.484375 3.28125 -3.28125l4.921875 0l0.5 -2.625q0.28125 -1.828125 1.796875 -1.828125q1.640625 0 1.640625 1.40625l-0.5 2.1875l-0.15625 0.734375l-0.046875 0.125l7.34375 0q3.59375 -0.203125 3.359375 3.3125l0 3.359375q0 1.609375 -1.5625 1.609375q-1.5625 0 -1.5625 -1.609375l0 -2.453125q-0.03125 -1.25 -1.28125 -1.296875l-7.1875 0q-1.328125 3.953125 -3.4375 7.3125l4.25 0zm0.203125 6.015625l0 -3.28125l-4.734375 0q-0.65625 0 -0.65625 0.65625l0 2.625l5.390625 0zm0 2.421875l-5.390625 0l0 3.28125l5.390625 0l0 -3.28125zm0 5.703125l-5.390625 0l0 2.7343712q0.03125 1.171875 1.203125 1.203125l4.1875 0l0 -3.9374962zm-21.765625 -8.046875q-1.515625 3.3125 -2.375 3.3125q-1.328125 0 -1.328125 -1.640625q0 -0.546875 0.625 -1.5625q3.625 -6.359375 4.53125 -15.46875l-2.96875 0q-1.953125 0 -1.953125 -1.5625q0 -1.59375 1.953125 -1.59375l9.5625 0q1.921875 0 1.921875 1.59375q0 1.5625 -1.921875 1.5625l-3.4375 0l-0.078125 0.546875q-0.8125 5.15625 -2.0625 8.671875q0.421875 -0.078125 3.90625 -0.078125q3.234375 0 3.234375 3.203125l0 12.234375q0 3.2343712 -3.234375 3.2343712l-3.09375 0q-3.28125 0 -3.28125 -3.2343712l0 -9.21875zm6.71875 8.359375l0 -10.515625q-0.03125 -1.09375 -1.125 -1.09375l-1.953125 0q-0.75 0 -0.75 0.703125l0 10.90625q0.046875 1.09375 1.140625 1.125l1.5625 0q1.09375 -0.03125 1.125 -1.125zm53.59375 -18.59375q4.453125 2.375 4.453125 3.46875q0 1.5625 -1.59375 1.5625q-0.625 0 -3.828125 -2.140625q-1.328125 2.765625 -3.78125 4.828125q-2.4375 2.046875 -3.765625 2.046875q-1.671875 0 -1.671875 -1.609375q0 -0.78125 2.140625 -1.953125q3.125 -1.71875 4.5 -4.875l-3.328125 -1.765625q-1.4375 -0.65625 -1.4375 -1.4375q0 -1.375 1.40625 -1.375q0.5 0 4.09375 1.71875l0.125 0.078125q0.3125 -1.640625 0.390625 -3.90625l-5.390625 0q-1.84375 0 -1.84375 -1.484375q0 -1.515625 1.84375 -1.515625l15.0 0q3.546875 0 3.546875 3.078125l-0.109375 2.390625l-0.15625 2.109375q-0.3125 6.015625 -1.21875 7.890625q-1.046875 2.265625 -5.390625 2.265625q-1.953125 0 -1.953125 -1.765625q0 -1.59375 3.09375 -1.671875q1.640625 -0.046875 1.90625 -2.578125q0.515625 -4.96875 0.515625 -7.5q0 -1.21875 -1.328125 -1.21875l-5.46875 0q-0.15625 2.46875 -0.75 5.359375zm-4.609375 13.515625q0 -1.875 1.53125 -1.875q1.484375 0 1.484375 1.875l0 7.343746q0 0.96875 0.46875 1.171875q0.421875 0.1875 2.265625 0.3125q2.375 -0.15625 2.6875 -0.671875q0.359375 -0.65625 0.359375 -2.2968712q0 -1.640625 1.4375 -1.640625q1.5625 0 1.5625 1.75q0 3.7187462 -1.25 4.781246q-1.09375 0.96875 -3.75 0.96875q-4.640625 0 -5.625 -0.546875q-1.171875 -0.703125 -1.171875 -2.859375l0 -8.312496zm-10.46875 -0.9375q3.25 0 3.25 3.203125l0 5.656246q0 3.21875 -3.25 3.21875l-4.171875 0q-3.25 0 -3.25 -3.140625l0 -5.734371q0 -3.203125 3.25 -3.203125l4.171875 0zm0.515625 8.390621l0 -4.718746q-0.046875 -1.0625 -1.0625 -1.09375l-3.078125 0q-1.015625 0.03125 -1.0625 1.09375l0 4.718746q0.046875 1.0625 1.0625 1.0625l3.078125 0q1.015625 0 1.0625 -1.0625zm-6.453125 -26.874996q-1.75 0 -1.75 -1.4375q0 -1.453125 1.75 -1.453125l7.859375 0q1.75 0 1.75 1.453125q0 1.4375 -1.75 1.4375l-7.859375 0zm-1.28125 5.4375q-1.71875 0 -1.71875 -1.4375q0 -1.453125 1.71875 -1.453125l10.234375 0q1.71875 0 1.71875 1.453125q0 1.4375 -1.71875 1.4375l-10.234375 0zm1.359375 5.234375q-1.640625 0 -1.640625 -1.359375q0 -1.375 1.640625 -1.375l7.859375 0q1.671875 0 1.671875 1.375q0 1.359375 -1.671875 1.359375l-7.859375 0zm0 5.3125q-1.640625 0 -1.640625 -1.359375q0 -1.375 1.640625 -1.375l7.859375 0q1.671875 0 1.671875 1.375q0 1.359375 -1.671875 1.359375l-7.859375 0zm13.078125 3.046875q1.296875 0 1.296875 1.28125q0 2.546875 -1.328125 7.109371q-0.578125 2.046875 -1.796875 2.046875q-1.4375 0 -1.4375 -1.375q0 -0.3125 0.34375 -1.171875q1.0625 -2.7343712 1.40625 -5.859371q0.234375 -2.03125 1.515625 -2.03125zm15.640625 0q0.890625 0 1.484375 0.9375q3.4375 5.421875 3.4375 7.031246q0 1.671875 -1.640625 1.671875q-1.0625 0 -1.484375 -1.09375q-1.6875 -4.093746 -2.9375 -6.328121q-0.3125 -0.546875 -0.3125 -0.890625q0 -1.328125 1.453125 -1.328125zm-7.390625 -3.90625q0.625 0 2.25 1.5625q1.625 1.5625 1.625 2.375q0 1.453125 -1.5625 1.453125q-0.78125 0 -2.421875 -2.03125q-1.40625 -1.6875 -1.40625 -2.03125q0 -1.328125 1.515625 -1.328125z" fill-rule="nonzero"/><path fill="#000000" fill-opacity="0.0" d="m632.2938 25.676683l221.51178 0l0 53.417328l-221.51178 0z" fill-rule="evenodd"/><path fill="#49352a" d="m728.75287 56.11347l0 7.734375q0 1.2187462 0.703125 1.4687462q0.703125 0.25 3.515625 0.25q2.78125 0 3.4375 -0.3125q0.90625 -0.65625 1.078125 -2.8437462q0.171875 -2.1875 1.9375 -2.1875q1.90625 0 1.90625 1.90625q0 3.4062462 -1.328125 5.124996q-1.328125 1.71875 -6.171875 1.71875l-1.671875 -0.03125q-2.421875 0 -4.453125 -0.28125q-2.421875 -0.578125 -2.421875 -3.875l0 -8.671871l-5.90625 0q-0.5 5.359375 -2.890625 8.359371q-2.375 2.984375 -6.875 4.578125q-1.75 0.625 -2.765625 0.625q-1.84375 0 -1.84375 -1.875q0 -1.453125 2.859375 -2.1875q7.453125 -2.1093712 7.921875 -9.499996l-8.234375 0q-1.953125 0 -1.953125 -1.5625q0 -1.59375 1.953125 -1.59375l31.046875 0q1.921875 0 1.921875 1.59375q0 1.5625 -1.921875 1.5625l-9.84375 0zm-7.765625 -18.75l0 -2.375q0 -1.84375 1.828125 -1.84375q1.875 0 1.875 1.84375l0 2.375l12.078125 0q1.875 0 2.921875 0.984375q1.0625 1.09375 0.984375 3.078125l0 3.5625q0 1.953125 -1.71875 1.953125q-1.765625 0 -1.765625 -1.953125l0 -2.890625q0.046875 -1.609375 -1.5625 -1.5625l-25.15625 0q-1.59375 -0.046875 -1.5625 1.5625l0 2.890625q0 1.953125 -1.71875 1.953125q-1.75 0 -1.75 -1.953125l0 -3.5625q-0.3125 -4.375 4.0625 -4.0625l11.484375 0zm-8.75 10.75q-1.875 0 -1.875 -1.5625q0 -1.5625 1.875 -1.5625l21.640625 0q1.953125 0 1.953125 1.5625q0 1.5625 -1.953125 1.5625l-21.640625 0zm64.53125 -12.65625q3.15625 0 3.15625 2.296875q0 1.015625 -4.4375 3.8125q-4.421875 2.796875 -8.796875 4.984375q-1.796875 0.890625 -1.796875 1.953125l0 16.406246q0.34375 5.078125 -4.6875 4.734375l-3.515625 0q-2.46875 0 -2.46875 -2.03125q0 -2.0 2.46875 -2.0l2.609375 0q1.765625 0.03125 1.71875 -1.7187462l0 -15.9375q0.046875 -1.609375 0.671875 -2.34375q0.65625 -0.75 3.421875 -2.03125q2.78125 -1.296875 5.5625 -2.859375l1.75 -1.015625q0.3125 -0.1875 0.3125 -0.3125q0 -0.234375 -0.265625 -0.234375l-24.140625 0q-2.265625 0 -2.265625 -1.828125q0 -1.875 2.265625 -1.875l28.4375 0z" fill-rule="nonzero"/></g></svg>