<svg version="1.1" viewBox="0.0 0.0 576.0 540.0" fill="none" stroke="none" stroke-linecap="square" stroke-miterlimit="10" xmlns:xlink="http://www.w3.org/1999/xlink" xmlns="http://www.w3.org/2000/svg"><clipPath id="g45853021cf_0_19.0"><path d="m0 0l576.0 0l0 540.0l-576.0 0l0 -540.0z" clip-rule="nonzero"/></clipPath><g clip-path="url(#g45853021cf_0_19.0)"><path fill="#ffffff" d="m0 0l576.0 0l0 540.0l-576.0 0z" fill-rule="evenodd"/><path shape-rendering="crispEdges" fill="#f3f3f3" d="m19.498688 71.32546l66.1601 0l0 83.0525l-66.1601 0l0 -83.0525z" fill-rule="nonzero"/><path shape-rendering="crispEdges" fill="#f3f3f3" d="m85.65879 71.32546l165.22836 0l0 83.0525l-165.22836 0l0 -83.0525z" fill-rule="nonzero"/><path shape-rendering="crispEdges" fill="#f3f3f3" d="m250.88715 71.32546l101.8714 0l0 83.0525l-101.8714 0l0 -83.0525z" fill-rule="nonzero"/><path shape-rendering="crispEdges" fill="#f3f3f3" d="m352.75854 71.32546l112.002625 0l0 83.0525l-112.002625 0l0 -83.0525z" fill-rule="nonzero"/><path shape-rendering="crispEdges" fill="#f3f3f3" d="m464.76117 71.32546l91.74017 0l0 83.0525l-91.74017 0l0 -83.0525z" fill-rule="nonzero"/><path shape-rendering="crispEdges" fill="#f3f3f3" d="m19.498688 154.37796l66.1601 0l0 54.43306l-66.1601 0l0 -54.43306z" fill-rule="nonzero"/><path shape-rendering="crispEdges" fill="#f3f3f3" d="m85.65879 154.37796l165.22836 0l0 54.43306l-165.22836 0l0 -54.43306z" fill-rule="nonzero"/><path shape-rendering="crispEdges" fill="#f3f3f3" d="m250.88715 154.37796l101.8714 0l0 54.43306l-101.8714 0l0 -54.43306z" fill-rule="nonzero"/><path shape-rendering="crispEdges" fill="#f3f3f3" d="m352.75854 154.37796l112.002625 0l0 54.43306l-112.002625 0l0 -54.43306z" fill-rule="nonzero"/><path shape-rendering="crispEdges" fill="#f3f3f3" d="m464.76117 154.37796l91.74017 0l0 54.43306l-91.74017 0l0 -54.43306z" fill-rule="nonzero"/><path shape-rendering="crispEdges" fill="#fdb2b7" d="m19.498688 208.81102l66.1601 0l0 54.43306l-66.1601 0l0 -54.43306z" fill-rule="nonzero"/><path shape-rendering="crispEdges" fill="#fdb2b7" d="m85.65879 208.81102l165.22836 0l0 54.43306l-165.22836 0l0 -54.43306z" fill-rule="nonzero"/><path shape-rendering="crispEdges" fill="#fdb2b7" d="m250.88715 208.81102l101.8714 0l0 54.43306l-101.8714 0l0 -54.43306z" fill-rule="nonzero"/><path shape-rendering="crispEdges" fill="#fdb2b7" d="m352.75854 208.81102l112.002625 0l0 54.43306l-112.002625 0l0 -54.43306z" fill-rule="nonzero"/><path shape-rendering="crispEdges" fill="#fdb2b7" d="m464.76117 208.81102l91.74017 0l0 54.43306l-91.74017 0l0 -54.43306z" fill-rule="nonzero"/><path shape-rendering="crispEdges" fill="#f3f3f3" d="m19.498688 263.24408l66.1601 0l0 54.433075l-66.1601 0l0 -54.433075z" fill-rule="nonzero"/><path shape-rendering="crispEdges" fill="#f3f3f3" d="m85.65879 263.24408l165.22836 0l0 54.433075l-165.22836 0l0 -54.433075z" fill-rule="nonzero"/><path shape-rendering="crispEdges" fill="#f3f3f3" d="m250.88715 263.24408l101.8714 0l0 54.433075l-101.8714 0l0 -54.433075z" fill-rule="nonzero"/><path shape-rendering="crispEdges" fill="#f3f3f3" d="m352.75854 263.24408l112.002625 0l0 54.433075l-112.002625 0l0 -54.433075z" fill-rule="nonzero"/><path shape-rendering="crispEdges" fill="#f3f3f3" d="m464.76117 263.24408l91.74017 0l0 54.433075l-91.74017 0l0 -54.433075z" fill-rule="nonzero"/><path shape-rendering="crispEdges" fill="#f3f3f3" d="m19.498688 317.67715l66.1601 0l0 54.433075l-66.1601 0l0 -54.433075z" fill-rule="nonzero"/><path shape-rendering="crispEdges" fill="#f3f3f3" d="m85.65879 317.67715l165.22836 0l0 54.433075l-165.22836 0l0 -54.433075z" fill-rule="nonzero"/><path shape-rendering="crispEdges" fill="#f3f3f3" d="m250.88715 317.67715l101.8714 0l0 54.433075l-101.8714 0l0 -54.433075z" fill-rule="nonzero"/><path shape-rendering="crispEdges" fill="#f3f3f3" d="m352.75854 317.67715l112.002625 0l0 54.433075l-112.002625 0l0 -54.433075z" fill-rule="nonzero"/><path shape-rendering="crispEdges" fill="#f3f3f3" d="m464.76117 317.67715l91.74017 0l0 54.433075l-91.74017 0l0 -54.433075z" fill-rule="nonzero"/><path shape-rendering="crispEdges" fill="#f3f3f3" d="m19.498688 372.11023l66.1601 0l0 54.433075l-66.1601 0l0 -54.433075z" fill-rule="nonzero"/><path shape-rendering="crispEdges" fill="#f3f3f3" d="m85.65879 372.11023l165.22836 0l0 54.433075l-165.22836 0l0 -54.433075z" fill-rule="nonzero"/><path shape-rendering="crispEdges" fill="#f3f3f3" d="m250.88715 372.11023l101.8714 0l0 54.433075l-101.8714 0l0 -54.433075z" fill-rule="nonzero"/><path shape-rendering="crispEdges" fill="#f3f3f3" d="m352.75854 372.11023l112.002625 0l0 54.433075l-112.002625 0l0 -54.433075z" fill-rule="nonzero"/><path shape-rendering="crispEdges" fill="#f3f3f3" d="m464.76117 372.11023l91.74017 0l0 54.433075l-91.74017 0l0 -54.433075z" fill-rule="nonzero"/><path stroke="#ffffff" stroke-width="1.0" stroke-linecap="butt" d="m19.498688 70.826775l0 137.48557" fill-rule="nonzero"/><path stroke="#000000" stroke-width="1.0" stroke-linecap="butt" d="m19.498688 208.31233l0 54.43306" fill-rule="nonzero"/><path stroke="#ffffff" stroke-width="1.0" stroke-linecap="butt" d="m19.498688 262.7454l0 164.2966" fill-rule="nonzero"/><path stroke="#ffffff" stroke-width="1.0" stroke-linecap="butt" d="m85.65879 70.826775l0 137.48557" fill-rule="nonzero"/><path stroke="#000000" stroke-width="1.0" stroke-linecap="butt" d="m85.65879 208.31233l0 54.43306" fill-rule="nonzero"/><path stroke="#ffffff" stroke-width="1.0" stroke-linecap="butt" d="m85.65879 262.7454l0 164.2966" fill-rule="nonzero"/><path stroke="#ffffff" stroke-width="1.0" stroke-linecap="butt" d="m250.88715 70.826775l0 137.48557" fill-rule="nonzero"/><path stroke="#000000" stroke-width="1.0" stroke-linecap="butt" d="m250.88715 208.31233l0 54.43306" fill-rule="nonzero"/><path stroke="#ffffff" stroke-width="1.0" stroke-linecap="butt" d="m250.88715 262.7454l0 164.2966" fill-rule="nonzero"/><path stroke="#ffffff" stroke-width="1.0" stroke-linecap="butt" d="m352.75854 70.826775l0 137.48557" fill-rule="nonzero"/><path stroke="#000000" stroke-width="1.0" stroke-linecap="butt" d="m352.75854 208.31233l0 54.43306" fill-rule="nonzero"/><path stroke="#ffffff" stroke-width="1.0" stroke-linecap="butt" d="m352.75854 262.7454l0 164.2966" fill-rule="nonzero"/><path stroke="#ffffff" stroke-width="1.0" stroke-linecap="butt" d="m464.76117 70.826775l0 137.48557" fill-rule="nonzero"/><path stroke="#000000" stroke-width="1.0" stroke-linecap="butt" d="m464.76117 208.31233l0 54.43306" fill-rule="nonzero"/><path stroke="#ffffff" stroke-width="1.0" stroke-linecap="butt" d="m464.76117 262.7454l0 164.2966" fill-rule="nonzero"/><path stroke="#ffffff" stroke-width="1.0" stroke-linecap="butt" d="m556.50134 70.826775l0 137.48557" fill-rule="nonzero"/><path stroke="#000000" stroke-width="1.0" stroke-linecap="butt" d="m556.50134 208.31233l0 54.43306" fill-rule="nonzero"/><path stroke="#ffffff" stroke-width="1.0" stroke-linecap="butt" d="m556.50134 262.7454l0 164.2966" fill-rule="nonzero"/><path stroke="#ffffff" stroke-width="1.0" stroke-linecap="butt" d="m19.0 71.32546l538.0 0" fill-rule="nonzero"/><path stroke="#ffffff" stroke-width="1.0" stroke-linecap="butt" d="m19.0 154.37796l538.0 0" fill-rule="nonzero"/><path stroke="#000000" stroke-width="1.0" stroke-linecap="butt" d="m19.0 208.81102l538.0 0" fill-rule="nonzero"/><path stroke="#000000" stroke-width="1.0" stroke-linecap="butt" d="m19.0 263.24408l538.0 0" fill-rule="nonzero"/><path stroke="#ffffff" stroke-width="1.0" stroke-linecap="butt" d="m19.0 317.67715l538.0 0" fill-rule="nonzero"/><path stroke="#ffffff" stroke-width="1.0" stroke-linecap="butt" d="m19.0 372.11023l538.0 0" fill-rule="nonzero"/><path stroke="#ffffff" stroke-width="1.0" stroke-linecap="butt" d="m19.0 426.5433l538.0 0" fill-rule="nonzero"/><path fill="#49352a" d="m44.07874 104.17296l0 -0.0625l0.328125 -2.046875l-2.984375 0q-1.046875 0 -1.046875 -0.859375q0 -0.875 1.046875 -0.875l9.078125 0q1.0468788 0 1.0468788 0.875q0 0.859375 -1.0468788 0.859375l-4.15625 0l-0.015625 0.078125l-0.5 1.96875l-0.015625 0.0625l2.734375 0q2.015625 -0.109375 1.90625 1.921875l0 8.46875q0.109375 2.0625 -1.90625 1.921875l-5.40625 0q-1.875 0 -1.875 -1.90625l0 -8.5q0 -1.875 1.828125 -1.90625l0.984375 0zm-1.078125 8.578125l0 1.359375q0.015625 0.703125 0.75 0.734375l4.171875 0q0.71875 -0.03125 0.75 -0.734375l0 -1.359375l-5.671875 0zm0 -1.515625l5.671875 0l0 -2.0l-5.671875 0l0 2.0zm0 -3.515625l5.671875 0l0 -1.15625q0 -0.71875 -0.75 -0.75l-4.171875 0q-0.734375 0.03125 -0.75 0.734375l0 1.171875zm-6.921875 8.3125q0 0.96875 -0.875 0.96875q-0.859375 0 -0.859375 -0.96875l0 -14.484375q0 -0.953125 0.859375 -0.953125q0.875 0 0.875 0.953125l0 14.484375zm3.609375 2.109375q0 1.0625 -0.875 1.0625q-0.859375 0 -0.859375 -0.984375l0 -17.625q0 -1.015625 0.859375 -1.015625q0.875 0 0.875 1.015625l0 17.546875zm-7.078125 -10.09375q0 5.671875 -0.53125 8.53125q-0.5156231 2.84375 -1.5781231 2.84375q-0.953125 0 -0.953125 -0.859375q0 -0.203125 0.34375 -1.09375q0.9375 -2.390625 0.984375 -8.0l0 -3.84375l0 -1.828125l-0.015625 -1.984375l0 -0.734375q0 -1.140625 0.890625 -1.140625q0.8593731 0 0.8593731 1.140625l0 6.96875zm14.71875 8.8125q0.3125 0 0.75 0.390625q1.25 1.0625 2.765625 1.875q0.7812538 0.4375 0.7812538 1.0q0 0.953125 -0.9218788 0.953125q-0.703125 0 -2.46875 -1.359375q-1.765625 -1.34375 -1.765625 -2.015625q0 -0.84375 0.859375 -0.84375zm-3.703125 0.015625q0.96875 0 0.96875 0.921875q0 0.671875 -2.0625 2.015625q-2.046875 1.359375 -2.71875 1.359375q-0.875 0 -0.875 -0.953125q0 -0.5625 1.125 -1.09375q1.125 -0.53125 2.859375 -1.9375q0.375 -0.3125 0.703125 -0.3125zm23.015629 -10.09375l0.46875 0.34375q3.140625 2.328125 7.296875 3.140625q1.21875 0.234375 1.21875 1.03125q0 1.109375 -0.9375 1.109375q-1.203125 0 -4.125 -1.46875q-2.90625 -1.484375 -5.140625 -3.3125l0 2.625q0 0.890625 -0.9375 0.890625q-0.9375 0 -0.9375 -0.890625l0 -2.5625q-2.546875 2.046875 -5.453125 3.421875q-2.890625 1.359375 -3.6875 1.359375q-0.859375 0 -0.859375 -1.03125q0 -0.71875 1.0 -1.0q4.71875 -1.34375 7.8125 -3.65625l-7.53125 0q-1.0 0 -1.0 -0.859375q0 -0.875 1.0 -0.875l3.609375 0l-0.625 -1.40625q-0.234375 -0.421875 -0.234375 -0.703125q0 -0.734375 0.90625 -0.734375q0.796875 0 1.921875 2.84375l3.140625 0l0 -3.234375l-0.0625 0.015625l-7.765625 0.21875q-1.140625 0 -1.140625 -0.9375q0 -0.9375 1.234375 -0.9375l1.875 0l2.09375 0.015625l3.015625 -0.109375l6.1875 -0.40625l3.3125 -0.4375q1.0 0 1.0 1.046875q0 0.734375 -1.125 0.890625q-1.125 0.140625 -4.546875 0.40625l-2.125 0.140625l-0.078125 0l0 3.328125l2.84375 0l1.140625 -2.53125l0.21875 -0.3125q0.25 -0.328125 0.84375 -0.328125q0.890625 0 0.890625 0.703125q0 0.40625 -1.25 2.46875l4.21875 0q1.015625 0 1.015625 0.875q0 0.859375 -1.015625 0.859375l-7.6875 0zm4.21875 13.875l-12.578125 0q-2.4375 0.140625 -2.296875 -2.328125l0 -4.5625q-0.171875 -2.46875 2.25 -2.296875l12.625 0q2.46875 -0.171875 2.328125 2.296875l0 4.5625q0.140625 2.5 -2.328125 2.328125zm0.40625 -5.4375l0 -1.390625q-0.03125 -0.671875 -0.734375 -0.703125l-5.15625 0l0 2.09375l5.890625 0zm0 1.5625l-5.890625 0l0 2.203125l5.0 0q0.859375 -0.015625 0.890625 -0.890625l0 -1.3125zm-7.6875 -3.65625l-4.96875 0q-0.6875 0.03125 -0.703125 0.703125l0 1.390625l5.671875 0l0 -2.09375zm0 5.859375l0 -2.203125l-5.671875 0l0 1.3125q0.015625 0.875 0.890625 0.890625l4.78125 0z" fill-rule="nonzero"/><path fill="#49352a" d="m149.78859 113.90733l12.953125 0q2.4375 -0.125 2.28125 2.296875l0 2.078125q0.15625 2.375 -2.28125 2.265625l-12.953125 0q-2.421875 0.109375 -2.25 -2.265625l0 -2.078125q-0.171875 -2.421875 2.25 -2.296875zm0.890625 4.875l11.203125 0q0.984375 -0.03125 1.0 -0.9375l0 -1.265625q-0.015625 -0.921875 -1.0 -0.9375l-11.203125 0q-0.984375 0.015625 -1.015625 0.9375l0 1.265625q0.03125 0.90625 1.015625 0.9375zm-2.015625 -9.921875q-0.984375 0 -0.984375 -0.84375q0 -0.84375 0.984375 -0.84375l15.234375 0q0.984375 0 0.984375 0.84375q0 0.84375 -0.984375 0.84375l-15.234375 0zm0 3.375q-0.984375 0 -0.984375 -0.84375q0 -0.84375 0.984375 -0.84375l15.234375 0q0.984375 0 0.984375 0.84375q0 0.84375 -0.984375 0.84375l-15.234375 0zm-2.328125 -6.765625q-1.09375 0 -1.09375 -0.921875q0 -0.890625 1.09375 -0.890625l19.875 0q1.109375 0 1.109375 0.921875q0 0.890625 -1.109375 0.890625l-19.875 0zm2.34375 -3.46875q-1.0 0 -1.0 -0.890625q0 -0.875 1.0 -0.875l15.1875 0q1.015625 0 1.015625 0.890625q0 0.875 -1.015625 0.875l-15.1875 0zm31.875 7.515625l0.640625 -3.28125l-1.484375 0q-0.9375 0 -0.9375 -0.84375q0 -0.84375 0.9375 -0.84375l1.734375 0l0.28125 -1.96875l0.03125 -0.34375l-2.578125 0q-1.0625 0 -1.0625 -0.890625q0 -0.875 1.0625 -0.875l10.46875 0q1.078125 0 1.078125 0.890625q0 0.875 -1.078125 0.875l-5.96875 0l-0.046875 0.28125l-0.3125 2.03125l3.5625 0q2.25 -0.109375 2.109375 2.09375l0 2.875l1.453125 0q0.875 0 0.875 0.890625q0 0.875 -0.875 0.875l-11.921875 0q-1.0625 0 -1.0625 -0.890625q0 -0.875 1.0625 -0.875l2.03125 0zm1.859375 0l4.703125 0l0 -2.5q-0.015625 -0.75 -0.75 -0.78125l-3.328125 0l-0.625 3.28125zm-1.296875 3.453125l6.828125 0q2.203125 -0.125 2.0625 2.078125l0 3.40625q0.140625 2.234375 -2.0625 2.09375l-6.828125 0q-2.171875 0.109375 -2.03125 -2.078125l0 -3.46875q-0.140625 -2.171875 2.03125 -2.03125zm0.59375 5.828125l5.59375 0q0.75 -0.015625 0.78125 -0.765625l0 -2.5625q-0.03125 -0.75 -0.78125 -0.765625l-5.59375 0q-0.734375 0.015625 -0.75 0.75l0 2.59375q0.015625 0.734375 0.75 0.75zm-6.59375 -5.625q1.96875 0 1.96875 1.921875l0 3.28125q0 1.9375 -1.96875 1.9375l-2.90625 0q-1.96875 0 -1.96875 -1.890625l0 -3.328125q0 -1.921875 1.96875 -1.921875l2.90625 0zm0.234375 4.90625l0 -2.671875q-0.015625 -0.640625 -0.625 -0.640625l-2.109375 0q-0.609375 0 -0.640625 0.640625l0 2.671875q0.03125 0.625 0.640625 0.625l2.109375 0q0.609375 0 0.625 -0.625zm-4.21875 -16.0625q-1.03125 0 -1.03125 -0.859375q0 -0.875 1.03125 -0.875l5.015625 0q1.0625 0 1.0625 0.875q0 0.859375 -1.0625 0.859375l-5.015625 0zm-0.84375 3.265625q-1.046875 0 -1.046875 -0.859375q0 -0.875 1.046875 -0.875l6.640625 0q1.046875 0 1.046875 0.875q0 0.859375 -1.046875 0.859375l-6.640625 0zm0.921875 3.15625q-1.015625 0 -1.015625 -0.84375q0 -0.8125 1.015625 -0.8125l4.875 0q1.0 0 1.0 0.84375q0 0.8125 -1.0 0.8125l-4.875 0zm0.046875 3.21875q-1.0625 0 -1.0625 -0.828125q0 -0.84375 1.015625 -0.84375l4.875 0q1.0 0 1.0 0.84375q0 0.828125 -1.0 0.828125l-4.828125 0z" fill-rule="nonzero"/><path fill="#49352a" d="m276.02597 110.68858q0.46875 0 3.296875 1.734375l0.703125 0.453125q0.734375 0.46875 0.734375 0.953125q0 1.0625 -1.0625 1.0625q-0.296875 0 -0.8125 -0.359375l-2.90625 -1.875q-0.9375 -0.53125 -0.9375 -1.03125q0 -0.9375 0.984375 -0.9375zm0.015625 -7.703125q0.40625 0 2.40625 1.203125q2.0 1.1875 2.0 1.671875q0 1.03125 -1.046875 1.03125q-0.28125 0 -0.78125 -0.328125l-2.265625 -1.421875q-1.3125 -0.78125 -1.3125 -1.21875q0 -0.9375 1.0 -0.9375zm-6.484375 4.875l0.046875 -0.5625l0.28125 -4.8125q0.203125 -2.34375 2.453125 -2.34375l11.34375 0q1.34375 0 1.984375 0.53125q0.640625 0.53125 0.640625 2.5l-0.15625 4.6875l1.59375 0q1.125 0 1.125 1.0q0 0.984375 -1.125 0.984375l-1.640625 0l-0.078125 1.34375l-0.1875 4.546875l1.671875 0q1.078125 0 1.078125 1.0q0 0.984375 -1.078125 0.984375l-1.8125 0q-0.140625 2.09375 -0.96875 2.84375q-0.8125 0.75 -3.953125 0.75q-1.328125 0 -1.328125 -1.03125q0 -0.96875 1.046875 -1.015625l0.96875 -0.015625q1.078125 -0.03125 1.53125 -0.28125q0.453125 -0.265625 0.53125 -1.25l-12.359375 0q-2.25 0 -2.25 -1.890625l0.078125 -0.703125l0.421875 -5.28125l-1.53125 0q-1.09375 0 -1.09375 -1.0q0 -0.984375 1.09375 -0.984375l1.671875 0zm2.109375 0l12.375 0l0.109375 -4.71875q-0.015625 -1.0 -1.140625 -1.0l-9.96875 0q-1.078125 0 -1.125 1.21875q-0.046875 1.21875 -0.234375 3.9375l-0.015625 0.5625zm12.296875 1.984375l-12.4375 0l-0.40625 4.921875q0 0.96875 1.0625 0.96875l11.5 0l0.28125 -5.390625l0 -0.5zm18.59375 -4.0l0 3.0l3.703125 0q1.0 0 1.0 0.890625q0 0.859375 -1.0 0.859375l-3.703125 0l0 4.015625l5.484375 0q1.03125 0 1.03125 0.890625q0 0.890625 -1.03125 0.890625l-12.265625 0q-1.0 0 -1.0 -0.890625q0 -0.890625 1.0 -0.890625l4.859375 0l0 -4.015625l-3.421875 0q-1.015625 0 -1.015625 -0.890625q0 -0.859375 1.015625 -0.859375l3.421875 0l0 -3.0l-4.203125 0q-1.0 0 -1.0 -0.890625q0 -0.890625 1.0 -0.890625l10.8125 0q1.03125 0 1.03125 0.890625q0 0.890625 -1.03125 0.890625l-4.6875 0zm3.1875 5.296875q0.4375 0 0.96875 0.78125q0.53125 0.78125 0.53125 1.1875q0 0.765625 -0.96875 0.765625q-0.484375 0 -0.8125 -0.578125q-0.3125 -0.59375 -0.515625 -0.9375q-0.140625 -0.265625 -0.140625 -0.421875q0 -0.796875 0.9375 -0.796875zm3.796875 9.265625l-15.125 0q-2.71875 0.140625 -2.546875 -2.609375l0 -15.046875q-0.140625 -2.75 2.546875 -2.609375l15.125 0q2.71875 -0.140625 2.546875 2.609375l0 15.046875q0.140625 2.75 -2.546875 2.609375zm-0.6875 -1.890625q1.25 0 1.25 -1.21875l0 -14.03125q0 -1.25 -1.25 -1.25l-13.75 0q-1.25 0 -1.25 1.25l0 14.03125q0 1.21875 1.25 1.21875l13.75 0zm17.25 -9.0l0.640625 -3.28125l-1.484375 0q-0.9375 0 -0.9375 -0.84375q0 -0.84375 0.9375 -0.84375l1.734375 0l0.28125 -1.96875l0.03125 -0.34375l-2.578125 0q-1.0625 0 -1.0625 -0.890625q0 -0.875 1.0625 -0.875l10.46875 0q1.078125 0 1.078125 0.890625q0 0.875 -1.078125 0.875l-5.96875 0l-0.046875 0.28125l-0.3125 2.03125l3.5625 0q2.25 -0.109375 2.109375 2.09375l0 2.875l1.453125 0q0.875 0 0.875 0.890625q0 0.875 -0.875 0.875l-11.921875 0q-1.0625 0 -1.0625 -0.890625q0 -0.875 1.0625 -0.875l2.03125 0zm1.859375 0l4.703125 0l0 -2.5q-0.015625 -0.75 -0.75 -0.78125l-3.328125 0l-0.625 3.28125zm-1.296875 3.453125l6.828125 0q2.203125 -0.125 2.0625 2.078125l0 3.40625q0.140625 2.234375 -2.0625 2.09375l-6.828125 0q-2.171875 0.109375 -2.03125 -2.078125l0 -3.46875q-0.140625 -2.171875 2.03125 -2.03125zm0.59375 5.828125l5.59375 0q0.75 -0.015625 0.78125 -0.765625l0 -2.5625q-0.03125 -0.75 -0.78125 -0.765625l-5.59375 0q-0.734375 0.015625 -0.75 0.75l0 2.59375q0.015625 0.734375 0.75 0.75zm-6.59375 -5.625q1.96875 0 1.96875 1.921875l0 3.28125q0 1.9375 -1.96875 1.9375l-2.90625 0q-1.96875 0 -1.96875 -1.890625l0 -3.328125q0 -1.921875 1.96875 -1.921875l2.90625 0zm0.234375 4.90625l0 -2.671875q-0.015625 -0.640625 -0.625 -0.640625l-2.109375 0q-0.609375 0 -0.640625 0.640625l0 2.671875q0.03125 0.625 0.640625 0.625l2.109375 0q0.609375 0 0.625 -0.625zm-4.21875 -16.0625q-1.03125 0 -1.03125 -0.859375q0 -0.875 1.03125 -0.875l5.015625 0q1.0625 0 1.0625 0.875q0 0.859375 -1.0625 0.859375l-5.015625 0zm-0.84375 3.265625q-1.046875 0 -1.046875 -0.859375q0 -0.875 1.046875 -0.875l6.640625 0q1.046875 0 1.046875 0.875q0 0.859375 -1.046875 0.859375l-6.640625 0zm0.921875 3.15625q-1.015625 0 -1.015625 -0.84375q0 -0.8125 1.015625 -0.8125l4.875 0q1.0 0 1.0 0.84375q0 0.8125 -1.0 0.8125l-4.875 0zm0.046875 3.21875q-1.0625 0 -1.0625 -0.828125q0 -0.84375 1.015625 -0.84375l4.875 0q1.0 0 1.0 0.84375q0 0.828125 -1.0 0.828125l-4.828125 0z" fill-rule="nonzero"/><path fill="#49352a" d="m372.0411 99.28233l-1.015625 0.796875q-1.796875 1.46875 -4.578125 2.734375q-2.78125 1.25 -3.6875 1.25q-1.015625 0 -1.015625 -1.03125q0 -0.46875 0.359375 -0.734375q0.15625 -0.140625 1.171875 -0.390625q4.03125 -1.0625 7.609375 -3.78125l-5.671875 0q-1.890625 0 -1.890625 -1.375l0.046875 -0.5625l0.09375 -0.65625q0.1875 -1.921875 0.71875 -2.34375q0.421875 -0.3125 1.3125 -0.328125l6.515625 0l0 -2.0l-7.890625 0q-0.96875 0 -0.96875 -0.84375q0 -0.8125 0.96875 -0.8125l15.953125 0q2.046875 -0.09375 1.90625 1.921875l0 1.453125q0.109375 2.03125 -1.90625 1.9375l-6.140625 0l0 1.953125l7.109375 0q2.03125 0 2.03125 1.640625q0 1.5 -0.421875 3.0625q-0.421875 1.546875 -1.421875 2.109375q-0.984375 0.578125 -3.234375 0.578125q-1.3125 0 -1.3125 -1.09375q0 -1.03125 1.171875 -1.03125l0.375 0l0.671875 0.03125q1.390625 0 1.75 -1.046875q0.359375 -1.046875 0.359375 -2.0q0 -0.59375 -0.71875 -0.59375l-6.328125 0l0 5.46875q0 1.203125 -0.96875 1.203125q-0.953125 0 -0.953125 -1.203125l0 -4.3125zm1.890625 -6.421875l5.421875 0q0.703125 -0.03125 0.71875 -0.703125l0 -0.59375q-0.015625 -0.671875 -0.71875 -0.703125l-5.421875 0l0 2.0zm-1.921875 1.65625l-5.921875 0q-0.75 0 -0.75 1.3125l-0.03125 0.125q0 0.515625 0.65625 0.515625l6.046875 0l0 -1.953125zm-4.65625 -8.125l-1.78125 0q-1.859375 2.265625 -2.703125 2.265625q-0.9375 0 -0.9375 -0.90625q0 -0.40625 0.875 -1.15625q1.125 -0.984375 2.625 -3.234375q0.421875 -0.625 1.03125 -0.625q0.984375 0 0.984375 0.671875q0 0.3125 -0.65625 1.3125l4.84375 0q0.96875 0 0.96875 0.84375q0 0.828125 -0.96875 0.828125l-2.5 0q0.578125 1.3125 0.578125 1.78125q0 0.703125 -0.859375 0.703125q-0.828125 0 -1.15625 -1.390625l-0.34375 -1.09375zm8.765625 -1.671875l6.5625 0q0.953125 0 0.953125 0.84375q0 0.828125 -0.953125 0.828125l-3.609375 0l0.53125 1.375l0.046875 0.328125q0 0.75 -0.9375 0.75q-0.765625 0 -1.171875 -1.40625l-0.328125 -1.046875l-2.109375 0q-1.515625 2.21875 -2.359375 2.21875q-0.84375 0 -0.84375 -0.859375q0 -0.328125 0.484375 -0.828125q1.3125 -1.328125 2.28125 -3.46875q0.34375 -0.71875 1.0 -0.71875q0.9375 0 0.9375 0.765625q0 0.359375 -0.484375 1.21875zm13.609375 2.4375q-1.375 0 -1.375 -1.171875q0 -1.140625 1.375 -1.140625l14.0625 0q1.40625 0 1.40625 1.171875q0 1.140625 -1.40625 1.140625l-14.0625 0zm-2.59375 15.515625q-1.40625 0 -1.40625 -1.171875q0 -1.140625 1.40625 -1.140625l19.265625 0q1.40625 0 1.40625 1.140625q0 1.171875 -1.40625 1.171875l-19.265625 0zm27.140625 -5.265625l12.953125 0q2.4375 -0.125 2.28125 2.296875l0 2.078125q0.15625 2.375 -2.28125 2.265625l-12.953125 0q-2.421875 0.109375 -2.25 -2.265625l0 -2.078125q-0.171875 -2.421875 2.25 -2.296875zm0.890625 4.875l11.203125 0q0.984375 -0.03125 1.0 -0.9375l0 -1.265625q-0.015625 -0.921875 -1.0 -0.9375l-11.203125 0q-0.984375 0.015625 -1.015625 0.9375l0 1.265625q0.03125 0.90625 1.015625 0.9375zm-2.015625 -9.921875q-0.984375 0 -0.984375 -0.84375q0 -0.84375 0.984375 -0.84375l15.234375 0q0.984375 0 0.984375 0.84375q0 0.84375 -0.984375 0.84375l-15.234375 0zm0 3.375q-0.984375 0 -0.984375 -0.84375q0 -0.84375 0.984375 -0.84375l15.234375 0q0.984375 0 0.984375 0.84375q0 0.84375 -0.984375 0.84375l-15.234375 0zm-2.328125 -6.765625q-1.09375 0 -1.09375 -0.921875q0 -0.890625 1.09375 -0.890625l19.875 0q1.109375 0 1.109375 0.921875q0 0.890625 -1.109375 0.890625l-19.875 0zm2.34375 -3.46875q-1.0 0 -1.0 -0.890625q0 -0.875 1.0 -0.875l15.1875 0q1.015625 0 1.015625 0.890625q0 0.875 -1.015625 0.875l-15.1875 0zm31.875 7.515625l0.640625 -3.28125l-1.484375 0q-0.9375 0 -0.9375 -0.84375q0 -0.84375 0.9375 -0.84375l1.734375 0l0.28125 -1.96875l0.03125 -0.34375l-2.578125 0q-1.0625 0 -1.0625 -0.890625q0 -0.875 1.0625 -0.875l10.46875 0q1.078125 0 1.078125 0.890625q0 0.875 -1.078125 0.875l-5.96875 0l-0.046875 0.28125l-0.3125 2.03125l3.5625 0q2.25 -0.109375 2.109375 2.09375l0 2.875l1.453125 0q0.875 0 0.875 0.890625q0 0.875 -0.875 0.875l-11.921875 0q-1.0625 0 -1.0625 -0.890625q0 -0.875 1.0625 -0.875l2.03125 0zm1.859375 0l4.703125 0l0 -2.5q-0.015625 -0.75 -0.75 -0.78125l-3.328125 0l-0.625 3.28125zm-1.296875 3.453125l6.828125 0q2.203125 -0.125 2.0625 2.078125l0 3.40625q0.140625 2.234375 -2.0625 2.09375l-6.828125 0q-2.171875 0.109375 -2.03125 -2.078125l0 -3.46875q-0.140625 -2.171875 2.03125 -2.03125zm0.59375 5.828125l5.59375 0q0.75 -0.015625 0.78125 -0.765625l0 -2.5625q-0.03125 -0.75 -0.78125 -0.765625l-5.59375 0q-0.734375 0.015625 -0.75 0.75l0 2.59375q0.015625 0.734375 0.75 0.75zm-6.59375 -5.625q1.96875 0 1.96875 1.921875l0 3.28125q0 1.9375 -1.96875 1.9375l-2.90625 0q-1.96875 0 -1.96875 -1.890625l0 -3.328125q0 -1.921875 1.96875 -1.921875l2.90625 0zm0.234375 4.90625l0 -2.671875q-0.015625 -0.640625 -0.625 -0.640625l-2.109375 0q-0.609375 0 -0.640625 0.640625l0 2.671875q0.03125 0.625 0.640625 0.625l2.109375 0q0.609375 0 0.625 -0.625zm-4.21875 -16.0625q-1.03125 0 -1.03125 -0.859375q0 -0.875 1.03125 -0.875l5.015625 0q1.0625 0 1.0625 0.875q0 0.859375 -1.0625 0.859375l-5.015625 0zm-0.84375 3.265625q-1.046875 0 -1.046875 -0.859375q0 -0.875 1.046875 -0.875l6.640625 0q1.046875 0 1.046875 0.875q0 0.859375 -1.046875 0.859375l-6.640625 0zm0.921875 3.15625q-1.015625 0 -1.015625 -0.84375q0 -0.8125 1.015625 -0.8125l4.875 0q1.0 0 1.0 0.84375q0 0.8125 -1.0 0.8125l-4.875 0zm0.046875 3.21875q-1.0625 0 -1.0625 -0.828125q0 -0.84375 1.015625 -0.84375l4.875 0q1.0 0 1.0 0.84375q0 0.828125 -1.0 0.828125l-4.828125 0z" fill-rule="nonzero"/><path fill="#49352a" d="m387.90048 128.06358l0 -3.703125l-4.5625 0q-1.15625 0 -1.15625 -0.9375q0 -0.96875 1.15625 -0.96875l4.5625 0l0 -3.671875q-2.953125 0.328125 -4.3125 0.328125q-1.125 0 -1.125 -1.015625q0 -0.578125 0.421875 -0.765625q0.328125 -0.171875 1.859375 -0.234375q6.203125 -0.3125 7.984375 -0.9375l1.03125 -0.21875q1.078125 0 1.078125 1.109375q0 0.796875 -1.453125 1.0625q-1.453125 0.25 -3.484375 0.484375l0 3.859375l4.75 0q1.15625 0 1.15625 0.96875q0 0.9375 -1.15625 0.9375l-4.75 0l0 3.703125l2.390625 0q2.53125 -0.1875 2.34375 2.34375l0 4.234375q0.15625 2.546875 -2.34375 2.359375l-6.59375 0q-2.5 0.15625 -2.3125 -2.359375l0 -4.234375q-0.171875 -2.53125 2.3125 -2.34375l2.203125 0zm-1.46875 7.046875l5.078125 0q1.15625 0.03125 1.125 -1.125l0 -2.921875q0.03125 -1.15625 -1.125 -1.125l-5.078125 0q-1.15625 -0.03125 -1.125 1.125l0 2.921875q-0.03125 1.15625 1.125 1.125zm-6.828125 -5.4375q1.96875 0 1.96875 1.921875l0 3.28125q0 1.9375 -1.96875 1.9375l-2.90625 0q-1.96875 0 -1.96875 -1.890625l0 -3.328125q0 -1.921875 1.96875 -1.921875l2.90625 0zm0.234375 4.90625l0 -2.671875q-0.015625 -0.640625 -0.625 -0.640625l-2.109375 0q-0.609375 0 -0.640625 0.640625l0 2.671875q0.03125 0.625 0.640625 0.625l2.109375 0q0.609375 0 0.625 -0.625zm-4.21875 -16.0625q-1.03125 0 -1.03125 -0.859375q0 -0.875 1.03125 -0.875l5.015625 0q1.0625 0 1.0625 0.875q0 0.859375 -1.0625 0.859375l-5.015625 0zm-0.84375 3.265625q-1.046875 0 -1.046875 -0.859375q0 -0.875 1.046875 -0.875l6.640625 0q1.046875 0 1.046875 0.875q0 0.859375 -1.046875 0.859375l-6.640625 0zm0.921875 3.15625q-1.015625 0 -1.015625 -0.84375q0 -0.8125 1.015625 -0.8125l4.875 0q1.0 0 1.0 0.8125q0 0.84375 -1.0 0.84375l-4.875 0zm0.046875 3.21875q-1.0625 0 -1.0625 -0.84375q0 -0.828125 1.015625 -0.828125l4.875 0q1.0 0 1.0 0.84375q0 0.828125 -1.0 0.828125l-4.828125 0zm31.546875 -3.421875l-8.421875 0q-1.171875 0 -1.171875 -0.96875q0 -0.9375 1.171875 -0.9375l7.203125 0l0 -2.765625l-5.0625 0q-1.15625 0 -1.15625 -0.9375q0 -0.953125 1.15625 -0.953125l5.0625 0l0 -1.40625q0 -1.0625 1.03125 -1.0625q1.03125 0 1.03125 1.0625l0 1.40625l4.046875 0q1.15625 0 1.15625 0.9375q0 0.953125 -1.15625 0.953125l-4.046875 0l0 2.765625l1.75 0q3.359375 -2.625 5.53125 -5.125q0.59375 -0.6875 1.109375 -0.6875q1.046875 0 1.046875 0.96875q0 0.984375 -4.875 4.84375l5.9375 0q1.171875 0 1.171875 0.96875q0 0.9375 -1.171875 0.9375l-8.390625 0l-3.046875 2.109375l7.59375 0q2.546875 -0.171875 2.390625 2.390625l0 5.4375q0.140625 2.53125 -2.390625 2.375l-10.203125 0q-2.546875 0.140625 -2.390625 -2.375l0 -4.859375q-3.015625 1.625 -3.5625 1.625q-0.9375 0 -0.9375 -1.015625q0 -0.671875 0.84375 -1.0q3.875 -1.453125 8.75 -4.6875zm-3.078125 6.28125l10.875 0l0 -1.53125q-0.015625 -0.859375 -0.90625 -0.890625l-9.328125 0q-0.609375 0.03125 -0.640625 0.609375l0 1.8125zm0 1.6875l0 1.640625q0.03125 0.890625 0.921875 0.90625l9.046875 0q0.890625 -0.015625 0.90625 -0.90625l0 -1.640625l-10.875 0zm31.125 -8.484375l-0.046875 0.0625q-1.0 1.78125 -1.515625 1.78125q-0.65625 0 -0.875 -0.703125q-0.1875 0.65625 -0.765625 0.65625q-0.328125 0 -1.03125 -0.609375l-1.953125 -1.453125l-0.1875 -0.234375l0 2.015625q0 0.96875 -0.90625 0.96875q-0.890625 0 -0.890625 -0.96875l0 -2.671875q-3.140625 3.609375 -4.484375 3.609375q-0.796875 0 -0.796875 -0.890625q0 -0.53125 0.96875 -1.046875q2.21875 -1.21875 3.8125 -3.171875l-3.890625 0q-0.84375 0 -0.84375 -0.8125q0 -0.84375 0.84375 -0.84375l4.390625 0l0 -3.1875q0 -0.984375 0.90625 -0.984375q0.890625 0 0.890625 0.984375l0 3.1875l3.984375 0q0.84375 0 0.84375 0.84375q0 0.8125 -0.84375 0.8125l-3.984375 0l0 1.640625q0.21875 -0.4375 0.6875 -0.4375q0.234375 0 1.375 0.71875l0.640625 0.40625q1.078125 0.625 1.21875 0.984375q0.0625 -0.265625 0.578125 -1.015625q1.765625 -2.875 2.765625 -6.984375q0.28125 -1.140625 1.0625 -1.140625q1.046875 0 1.046875 0.9375q0 0.484375 -1.234375 3.796875l5.71875 0q0.984375 0 0.984375 0.984375q0 1.0 -0.984375 1.0l-0.921875 0q-0.28125 6.890625 -2.390625 10.21875q1.296875 1.53125 3.28125 2.515625q1.015625 0.484375 1.015625 1.25q0 0.46875 -0.328125 0.8125q-0.328125 0.359375 -0.65625 0.359375q-0.703125 0 -2.234375 -1.234375q-1.515625 -1.234375 -2.25 -2.15625q-1.078125 1.203125 -2.6875 2.328125q-1.59375 1.125 -2.328125 1.125q-1.03125 0 -1.03125 -1.078125q0 -0.625 0.78125 -1.03125q2.78125 -1.3125 4.140625 -2.953125q-1.5625 -2.90625 -1.875 -8.390625zm1.5 -1.765625l0 0.078125q0.453125 6.140625 1.53125 8.359375q1.5 -2.828125 1.609375 -8.4375l-3.140625 0zm-4.796875 7.6875q-0.453125 1.765625 -1.484375 3.453125q2.28125 0.9375 2.28125 1.59375q0 0.9375 -0.921875 0.9375q-0.296875 0 -1.125 -0.484375q-0.8125 -0.484375 -1.375 -0.71875q-1.3125 1.15625 -3.125 1.796875q-1.796875 0.65625 -3.09375 0.65625q-1.0 0 -1.0 -0.9375q0 -0.78125 1.40625 -0.953125q2.59375 -0.28125 4.078125 -1.3125q-1.296875 -0.53125 -2.4375 -0.84375q-1.359375 -0.375 -1.359375 -1.265625q0 -0.28125 0.328125 -0.859375q0.328125 -0.59375 0.5625 -1.0625l-2.09375 0q-0.953125 0 -0.953125 -0.84375q0 -0.8125 0.953125 -0.8125l2.84375 0l0.09375 -0.1875q0.671875 -1.71875 1.3125 -1.71875q0.953125 0 0.953125 0.78125q0 0.34375 -0.375 1.125l5.984375 0q0.90625 0 0.90625 0.8125q0 0.84375 -0.90625 0.84375l-1.453125 0zm-1.90625 0l-3.390625 0l-0.6875 1.296875q-0.109375 0.234375 -0.109375 0.390625q0 0.1875 0.484375 0.3125l2.515625 0.8125q0.859375 -1.125 1.1875 -2.8125zm-6.34375 -13.734375q0.53125 0 1.109375 0.90625q0.578125 0.90625 0.578125 1.15625q0 0.875 -0.9375 0.875q-0.515625 0 -1.03125 -0.96875l-0.28125 -0.484375q-0.328125 -0.515625 -0.328125 -0.703125q0 -0.78125 0.890625 -0.78125zm8.53125 -0.0625q0.859375 0 0.859375 0.84375q0 0.4375 -0.59375 1.359375q-0.578125 0.90625 -1.015625 0.90625q-0.921875 0 -0.921875 -0.765625q0 -0.21875 0.40625 -0.921875l0.34375 -0.625q0.359375 -0.796875 0.921875 -0.796875z" fill-rule="nonzero"/><path fill="#49352a" d="m499.59998 100.42296l0.1875 0.1875q1.421875 1.546875 3.875 3.109375q2.453125 1.5625 4.953125 2.453125q1.0625 0.375 1.0625 1.1875q0 1.21875 -1.109375 1.21875q-1.28125 0 -4.5625 -2.203125q-3.28125 -2.203125 -5.53125 -4.453125q-1.3125 1.53125 -3.328125 3.171875q-2.015625 1.640625 -4.015625 2.765625q-1.984375 1.125 -2.546875 1.125q-0.984375 0 -0.984375 -1.15625q0 -0.5625 0.421875 -0.828125q0.4375 -0.265625 1.734375 -0.875q4.21875 -2.109375 7.328125 -5.984375q0.75 -0.90625 1.5 -0.90625q1.125 0 1.125 0.796875q0 0.15625 -0.109375 0.390625zm4.796875 20.078125l-11.53125 0q-2.859375 0.15625 -2.6875 -2.734375l0 -3.515625q-0.171875 -2.90625 2.6875 -2.71875l11.53125 0q2.90625 -0.1875 2.71875 2.71875l0 3.515625q0.171875 2.890625 -2.71875 2.734375zm-0.703125 -1.984375q1.25 0 1.25 -1.21875l0 -2.578125q0 -1.21875 -1.25 -1.21875l-10.09375 0q-1.25 0 -1.25 1.21875l0 2.578125q0 1.21875 1.25 1.21875l10.09375 0zm-10.703125 -9.515625q-1.0625 0 -1.0625 -0.9375q0 -0.953125 1.0625 -0.953125l11.40625 0q1.078125 0 1.078125 0.953125q0 0.9375 -1.078125 0.9375l-11.40625 0zm35.40625 -2.21875l4.125 0q1.15625 0 1.15625 1.046875q0 1.03125 -1.15625 1.03125l-4.125 0l0 11.125q0 1.328125 -1.078125 1.328125q-1.046875 0 -1.046875 -1.328125l0 -11.125l-4.3125 0q-1.171875 0 -1.171875 -1.046875q0 -1.03125 1.171875 -1.03125l4.3125 0l0 -6.265625q0 -1.3125 1.046875 -1.3125q1.078125 0 1.078125 1.3125l0 6.265625zm-8.265625 11.78125q0 1.90625 -1.90625 1.90625l-3.625 0q-1.90625 0 -1.90625 -1.90625l0 -3.515625q0 -1.890625 1.90625 -1.890625l3.625 0q1.90625 0 1.90625 1.890625l0 3.515625zm-5.0 0.234375l2.5625 0q0.65625 -0.015625 0.671875 -0.671875l0 -2.625q-0.015625 -0.65625 -0.671875 -0.6875l-2.5625 0q-0.65625 0.03125 -0.671875 0.6875l0 2.625q0.015625 0.65625 0.671875 0.671875zm-2.578125 -13.5q-0.953125 0 -0.953125 -0.859375q0 -0.890625 0.953125 -0.890625l7.6875 0q0.984375 0 0.984375 0.890625q0 0.859375 -0.984375 0.859375l-7.6875 0zm0.96875 3.171875q-0.9375 0 -0.9375 -0.84375q0 -0.84375 0.9375 -0.84375l5.6875 0q0.9375 0 0.9375 0.84375q0 0.84375 -0.9375 0.84375l-5.6875 0zm0 3.203125q-0.9375 0 -0.9375 -0.84375q0 -0.84375 0.9375 -0.84375l5.765625 0q0.9375 0 0.9375 0.84375q0 0.84375 -0.9375 0.84375l-5.765625 0zm-0.09375 -9.625q-0.96875 0 -0.96875 -0.890625q0 -0.875 0.96875 -0.875l5.828125 0q0.96875 0 0.96875 0.890625q0 0.875 -0.96875 0.875l-5.828125 0z" fill-rule="nonzero"/><path fill="#49352a" d="m52.344368 172.91574q-1.8906288 1.859375 -3.2031288 1.859375q-1.171875 0 -1.171875 -1.125q0 -0.421875 0.25 -0.6875q0.140625 -0.15625 1.28125 -0.765625q1.140625 -0.609375 2.1250038 -1.484375q0.984375 -0.890625 1.609375 -0.890625q1.53125 0 1.53125 1.453125l0 15.453125q0 1.484375 -1.21875 1.484375q-1.203125 0 -1.203125 -1.484375l0 -13.8125z" fill-rule="nonzero"/><path fill="#49352a" d="m156.02296 183.86887q-1.015625 2.453125 -3.109375 3.828125q-2.09375 1.375 -5.84375 2.171875l-0.59375 0.09375q-1.09375 0 -1.09375 -1.125q0 -0.890625 1.421875 -1.125q6.125 -0.84375 7.5 -4.578125l-7.9375 0q-1.125 0 -1.125 -0.890625q0 -0.90625 1.125 -0.90625l1.84375 0l0 -3.5625q-0.140625 -2.25 2.15625 -2.15625l4.625 0l0 -0.984375q0 -1.453125 1.0 -1.453125q1.015625 0 1.015625 1.359375l-0.03125 0.71875l0 0.359375l5.203125 0q2.296875 -0.09375 2.15625 2.15625l0 3.5625l1.859375 0q1.125 0 1.125 0.90625q0 0.890625 -1.125 0.890625l-8.671875 0q2.0625 3.359375 8.125 4.453125q1.53125 0.28125 1.53125 1.109375q0 1.203125 -1.15625 1.203125q-1.46875 0 -4.140625 -1.078125q-4.0625 -1.65625 -5.859375 -4.953125zm-1.265625 -2.53125q0.15625 -1.171875 0.203125 -3.9375l-3.84375 0q-0.890625 -0.078125 -0.84375 0.84375l0 3.09375l4.484375 0zm1.921875 0l5.59375 0l0 -3.09375q0.046875 -0.921875 -0.84375 -0.84375l-4.5 0q-0.09375 2.5 -0.25 3.9375zm4.59375 -9.0l0 1.140625q0 1.15625 -0.984375 1.15625q-0.984375 0 -0.984375 -1.15625l0 -1.140625l-6.21875 0l0 1.140625q0 1.15625 -0.984375 1.15625q-0.984375 0 -0.984375 -1.15625l0 -1.140625l-4.59375 0q-1.140625 0 -1.140625 -0.9375q0 -0.9375 1.140625 -0.9375l4.59375 0l0 -1.359375q0 -1.15625 0.984375 -1.15625q0.984375 0 0.984375 1.15625l0 1.359375l6.21875 0l0 -1.359375q0 -1.15625 0.984375 -1.15625q0.984375 0 0.984375 1.15625l0 1.359375l4.75 0q1.15625 0 1.15625 0.9375q0 0.9375 -1.15625 0.9375l-4.75 0zm19.28125 5.921875l0.640625 -3.28125l-1.484375 0q-0.9375 0 -0.9375 -0.84375q0 -0.84375 0.9375 -0.84375l1.734375 0l0.28125 -1.96875l0.03125 -0.34375l-2.578125 0q-1.0625 0 -1.0625 -0.890625q0 -0.875 1.0625 -0.875l10.46875 0q1.078125 0 1.078125 0.890625q0 0.875 -1.078125 0.875l-5.96875 0l-0.046875 0.28125l-0.3125 2.03125l3.5625 0q2.25 -0.109375 2.109375 2.09375l0 2.875l1.453125 0q0.875 0 0.875 0.890625q0 0.875 -0.875 0.875l-11.921875 0q-1.0625 0 -1.0625 -0.890625q0 -0.875 1.0625 -0.875l2.03125 0zm1.859375 0l4.703125 0l0 -2.5q-0.015625 -0.75 -0.75 -0.78125l-3.328125 0l-0.625 3.28125zm-1.296875 3.453125l6.828125 0q2.203125 -0.125 2.0625 2.078125l0 3.40625q0.140625 2.234375 -2.0625 2.09375l-6.828125 0q-2.171875 0.109375 -2.03125 -2.078125l0 -3.46875q-0.140625 -2.171875 2.03125 -2.03125zm0.59375 5.828125l5.59375 0q0.75 -0.015625 0.78125 -0.765625l0 -2.5625q-0.03125 -0.75 -0.78125 -0.765625l-5.59375 0q-0.734375 0.015625 -0.75 0.75l0 2.59375q0.015625 0.734375 0.75 0.75zm-6.59375 -5.625q1.96875 0 1.96875 1.921875l0 3.28125q0 1.9375 -1.96875 1.9375l-2.90625 0q-1.96875 0 -1.96875 -1.890625l0 -3.328125q0 -1.921875 1.96875 -1.921875l2.90625 0zm0.234375 4.90625l0 -2.671875q-0.015625 -0.640625 -0.625 -0.640625l-2.109375 0q-0.609375 0 -0.640625 0.640625l0 2.671875q0.03125 0.625 0.640625 0.625l2.109375 0q0.609375 0 0.625 -0.625zm-4.21875 -16.0625q-1.03125 0 -1.03125 -0.859375q0 -0.875 1.03125 -0.875l5.015625 0q1.0625 0 1.0625 0.875q0 0.859375 -1.0625 0.859375l-5.015625 0zm-0.84375 3.265625q-1.046875 0 -1.046875 -0.859375q0 -0.875 1.046875 -0.875l6.640625 0q1.046875 0 1.046875 0.875q0 0.859375 -1.046875 0.859375l-6.640625 0zm0.921875 3.15625q-1.015625 0 -1.015625 -0.84375q0 -0.8125 1.015625 -0.8125l4.875 0q1.0 0 1.0 0.84375q0 0.8125 -1.0 0.8125l-4.875 0zm0.046875 3.21875q-1.0625 0 -1.0625 -0.828125q0 -0.84375 1.015625 -0.84375l4.875 0q1.0 0 1.0 0.84375q0 0.828125 -1.0 0.828125l-4.828125 0z" fill-rule="nonzero"/><path fill="#49352a" d="m291.7291 178.58762q3.140625 1.0625 3.140625 4.453125q0 2.28125 -1.375 3.734375q-1.375 1.4375 -3.859375 1.4375q-2.203125 0 -3.53125 -1.34375q-1.3125 -1.34375 -1.3125 -2.796875q0 -1.140625 1.1875 -1.140625q0.828125 0 1.34375 1.75q0.53125 1.734375 2.359375 1.734375q1.3125 0 2.125 -0.984375q0.828125 -1.0 0.828125 -2.53125q0 -2.390625 -1.78125 -3.09375q-0.703125 -0.296875 -2.4375 -0.296875q-0.890625 0 -0.890625 -0.984375q0 -0.96875 0.921875 -0.96875l1.21875 0.046875q2.71875 0 2.71875 -3.109375q0 -2.890625 -2.421875 -2.890625q-0.984375 0 -1.4375 0.46875q-0.4375 0.46875 -1.0 2.109375q-0.25 0.75 -1.046875 0.75q-1.03125 0 -1.03125 -1.0q0 -1.5 1.21875 -2.796875q1.21875 -1.3125 3.34375 -1.3125q2.1875 0 3.390625 1.3125q1.203125 1.296875 1.203125 3.171875q0 3.109375 -2.640625 4.1875l-0.234375 0.09375zm7.125 5.296875q0.703125 0 1.203125 0.515625q0.5 0.515625 0.5 1.21875q0 0.734375 -0.515625 1.234375q-0.515625 0.5 -1.21875 0.5q-0.765625 0 -1.28125 -0.5625q-0.453125 -0.515625 -0.453125 -1.1875q0 -0.6875 0.5 -1.203125q0.515625 -0.515625 1.265625 -0.515625zm13.0 -5.484375q-2.828125 -1.125 -2.828125 -4.03125q0 -1.921875 1.3125 -3.234375q1.3125 -1.3125 3.484375 -1.3125q2.1875 0 3.5 1.328125q1.3125 1.328125 1.3125 3.21875q0 2.9375 -2.8125 4.03125q3.28125 1.265625 3.28125 4.671875q0 2.25 -1.375 3.703125q-1.375 1.4375 -3.875 1.4375q-2.53125 0 -3.90625 -1.453125q-1.375 -1.46875 -1.375 -3.6875q0 -3.40625 3.28125 -4.671875zm1.921875 -6.71875q-2.640625 0 -2.640625 2.828125q0 1.3125 0.796875 2.09375q0.796875 0.765625 1.890625 0.765625q1.203125 0 1.953125 -0.796875q0.75 -0.8125 0.75 -2.078125q0 -2.8125 -2.75 -2.8125zm0 7.6875q-1.234375 0 -2.125 0.953125q-0.875 0.9375 -0.875 2.65625q0 3.375 3.046875 3.375q3.078125 0 3.078125 -3.46875q0 -1.640625 -0.921875 -2.578125q-0.90625 -0.9375 -2.203125 -0.9375z" fill-rule="nonzero"/><path fill="#49352a" d="m398.8536 172.71262l0.046875 -0.1875q0 -0.3125 -0.40625 -0.3125l-5.390625 0q-1.265625 0 -1.265625 -1.03125q0 -1.03125 1.265625 -1.03125l6.96875 0q1.46875 0 1.46875 1.40625q0 0.359375 -0.15625 0.78125l-5.703125 14.859375q-0.375 1.03125 -1.171875 1.03125q-1.078125 0 -1.078125 -1.015625q0 -0.28125 0.140625 -0.65625l5.28125 -13.84375zm6.9375 11.171875q0.703125 0 1.203125 0.515625q0.5 0.515625 0.5 1.21875q0 0.734375 -0.515625 1.234375q-0.515625 0.5 -1.21875 0.5q-0.765625 0 -1.28125 -0.5625q-0.453125 -0.515625 -0.453125 -1.1875q0 -0.6875 0.5 -1.203125q0.515625 -0.515625 1.265625 -0.515625zm18.234375 -1.96875l0.984375 0q1.140625 0 1.140625 0.9375q0 0.9375 -1.140625 0.9375l-0.984375 0l0 3.171875q0 1.25 -1.03125 1.25q-1.03125 0 -1.03125 -1.25l0 -3.171875l-5.140625 0q-1.421875 0 -1.421875 -1.375q0 -0.5 0.25 -0.984375l5.671875 -10.640625q0.515625 -0.984375 1.359375 -0.984375q1.34375 0 1.34375 1.59375l0 10.515625zm-6.546875 0l4.484375 0l0 -8.484375l-4.484375 8.484375z" fill-rule="nonzero"/><path fill="#49352a" d="m492.44373 173.15012q-1.171875 1.390625 -1.9375 1.390625q-1.15625 0 -1.15625 -1.125q0 -0.640625 0.828125 -1.109375q0.9375 -0.609375 2.296875 -2.078125q0.34375 -0.40625 0.90625 -0.40625q1.34375 0 1.34375 1.359375l0 15.640625q0 1.390625 -1.15625 1.390625q-1.125 0 -1.125 -1.390625l0 -13.671875zm12.0 0q-1.171875 1.390625 -1.9375 1.390625q-1.15625 0 -1.15625 -1.125q0 -0.640625 0.828125 -1.109375q0.9375 -0.609375 2.296875 -2.078125q0.34375 -0.40625 0.90625 -0.40625q1.34375 0 1.34375 1.359375l0 15.640625q0 1.390625 -1.15625 1.390625q-1.125 0 -1.125 -1.390625l0 -13.671875zm9.21875 10.734375q0.703125 0 1.203125 0.515625q0.5 0.515625 0.5 1.21875q0 0.734375 -0.515625 1.234375q-0.515625 0.5 -1.21875 0.5q-0.765625 0 -1.28125 -0.5625q-0.453125 -0.515625 -0.453125 -1.1875q0 -0.6875 0.5 -1.203125q0.515625 -0.515625 1.265625 -0.515625zm12.625 2.109375l6.09375 0q1.15625 0 1.15625 0.9375q0 0.9375 -1.15625 0.9375l-7.046875 0q-1.59375 0 -1.59375 -1.359375q0 -0.625 1.359375 -2.15625q3.65625 -4.125 5.21875 -6.90625q0.828125 -1.453125 0.828125 -3.0q0 -1.21875 -0.65625 -1.984375q-0.65625 -0.765625 -1.671875 -0.765625q-2.03125 0 -2.4375 2.515625q-0.203125 1.359375 -1.265625 1.359375q-1.140625 0 -1.140625 -1.15625q0 -0.75 0.484375 -1.828125q1.296875 -2.78125 4.453125 -2.78125q2.0625 0 3.34375 1.265625q1.28125 1.265625 1.28125 3.09375q0 3.109375 -4.3125 8.40625l-2.9375 3.421875z" fill-rule="nonzero"/><path fill="#49352a" d="m49.29749 240.17693l9.046879 0q1.3125 0 1.3125 1.078125q0 1.046875 -1.3125 1.046875l-11.265629 0q-1.578125 0 -1.578125 -1.265625q0 -0.609375 1.25 -1.515625q4.843754 -3.5625 7.265629 -6.15625q2.4375 -2.609375 2.4375 -4.25q0 -1.296875 -1.09375 -2.0q-1.09375 -0.71875 -2.84375 -0.71875q-3.5000038 0 -4.250004 2.875q-0.296875 1.15625 -0.5625 1.359375q-0.328125 0.3125 -0.8125 0.3125q-1.078125 0 -1.078125 -1.109375q0 -1.375 0.9375 -2.796875q0.9375 -1.421875 2.390625 -2.09375q1.46875 -0.6875 3.5156288 -0.6875q2.6875 0 4.46875 1.296875q1.78125 1.28125 1.78125 3.5625q0 3.1875 -5.453125 7.75l-4.156254 3.3125z" fill-rule="nonzero"/><path fill="#49352a" d="m145.35109 237.52068l0 5.78125q0 1.1875 -1.078125 1.1875q-1.046875 0 -1.046875 -1.1875l0 -5.78125l-6.125 0q-2.828125 0.171875 -2.6875 -2.71875l0 -5.390625q-0.140625 -2.90625 2.6875 -2.71875l6.125 0l0 -3.09375q0 -1.1875 1.046875 -1.1875q1.078125 0 1.078125 1.1875l0 3.09375l6.359375 0q2.828125 -0.15625 2.6875 2.71875l0 5.390625q0.140625 2.890625 -2.6875 2.71875l-6.359375 0zm0 -8.765625l0 6.703125l5.609375 0q1.3125 0 1.3125 -1.3125l0 -4.078125q0 -1.3125 -1.3125 -1.3125l-5.609375 0zm-2.125 0l-5.375 0q-1.3125 0 -1.3125 1.3125l0 4.078125q0 1.3125 1.3125 1.3125l5.375 0l0 -6.703125zm25.78125 0.265625l0 3.0l3.703125 0q1.0 0 1.0 0.890625q0 0.859375 -1.0 0.859375l-3.703125 0l0 4.015625l5.484375 0q1.03125 0 1.03125 0.890625q0 0.890625 -1.03125 0.890625l-12.265625 0q-1.0 0 -1.0 -0.890625q0 -0.890625 1.0 -0.890625l4.859375 0l0 -4.015625l-3.421875 0q-1.015625 0 -1.015625 -0.890625q0 -0.859375 1.015625 -0.859375l3.421875 0l0 -3.0l-4.203125 0q-1.0 0 -1.0 -0.890625q0 -0.890625 1.0 -0.890625l10.8125 0q1.03125 0 1.03125 0.890625q0 0.890625 -1.03125 0.890625l-4.6875 0zm3.1875 5.296875q0.4375 0 0.96875 0.78125q0.53125 0.78125 0.53125 1.1875q0 0.765625 -0.96875 0.765625q-0.484375 0 -0.8125 -0.578125q-0.3125 -0.59375 -0.515625 -0.9375q-0.140625 -0.265625 -0.140625 -0.421875q0 -0.796875 0.9375 -0.796875zm3.796875 9.265625l-15.125 0q-2.71875 0.140625 -2.546875 -2.609375l0 -15.046875q-0.140625 -2.75 2.546875 -2.609375l15.125 0q2.71875 -0.140625 2.546875 2.609375l0 15.046875q0.140625 2.75 -2.546875 2.609375zm-0.6875 -1.890625q1.25 0 1.25 -1.21875l0 -14.03125q0 -1.25 -1.25 -1.25l-13.75 0q-1.25 0 -1.25 1.25l0 14.03125q0 1.21875 1.25 1.21875l13.75 0zm17.25 -9.0l0.640625 -3.28125l-1.484375 0q-0.9375 0 -0.9375 -0.84375q0 -0.84375 0.9375 -0.84375l1.734375 0l0.28125 -1.96875l0.03125 -0.34375l-2.578125 0q-1.0625 0 -1.0625 -0.890625q0 -0.875 1.0625 -0.875l10.46875 0q1.078125 0 1.078125 0.890625q0 0.875 -1.078125 0.875l-5.96875 0l-0.046875 0.28125l-0.3125 2.03125l3.5625 0q2.25 -0.109375 2.109375 2.09375l0 2.875l1.453125 0q0.875 0 0.875 0.890625q0 0.875 -0.875 0.875l-11.921875 0q-1.0625 0 -1.0625 -0.890625q0 -0.875 1.0625 -0.875l2.03125 0zm1.859375 0l4.703125 0l0 -2.5q-0.015625 -0.75 -0.75 -0.78125l-3.328125 0l-0.625 3.28125zm-1.296875 3.453125l6.828125 0q2.203125 -0.125 2.0625 2.078125l0 3.40625q0.140625 2.234375 -2.0625 2.09375l-6.828125 0q-2.171875 0.109375 -2.03125 -2.078125l0 -3.46875q-0.140625 -2.171875 2.03125 -2.03125zm0.59375 5.828125l5.59375 0q0.75 -0.015625 0.78125 -0.765625l0 -2.5625q-0.03125 -0.75 -0.78125 -0.765625l-5.59375 0q-0.734375 0.015625 -0.75 0.75l0 2.59375q0.015625 0.734375 0.75 0.75zm-6.59375 -5.625q1.96875 0 1.96875 1.921875l0 3.28125q0 1.9375 -1.96875 1.9375l-2.90625 0q-1.96875 0 -1.96875 -1.890625l0 -3.328125q0 -1.921875 1.96875 -1.921875l2.90625 0zm0.234375 4.90625l0 -2.671875q-0.015625 -0.640625 -0.625 -0.640625l-2.109375 0q-0.609375 0 -0.640625 0.640625l0 2.671875q0.03125 0.625 0.640625 0.625l2.109375 0q0.609375 0 0.625 -0.625zm-4.21875 -16.0625q-1.03125 0 -1.03125 -0.859375q0 -0.875 1.03125 -0.875l5.015625 0q1.0625 0 1.0625 0.875q0 0.859375 -1.0625 0.859375l-5.015625 0zm-0.84375 3.265625q-1.046875 0 -1.046875 -0.859375q0 -0.875 1.046875 -0.875l6.640625 0q1.046875 0 1.046875 0.875q0 0.859375 -1.046875 0.859375l-6.640625 0zm0.921875 3.15625q-1.015625 0 -1.015625 -0.84375q0 -0.8125 1.015625 -0.8125l4.875 0q1.0 0 1.0 0.84375q0 0.8125 -1.0 0.8125l-4.875 0zm0.046875 3.21875q-1.0625 0 -1.0625 -0.828125q0 -0.84375 1.015625 -0.84375l4.875 0q1.0 0 1.0 0.84375q0 0.828125 -1.0 0.828125l-4.828125 0z" fill-rule="nonzero"/><path fill="#49352a" d="m304.4791 234.55193q-1.53125 1.96875 -3.640625 1.96875q-1.875 0 -2.9375 -1.609375q-1.046875 -1.609375 -1.046875 -4.296875q0 -2.9375 1.296875 -4.640625q1.3125 -1.71875 3.5625 -1.71875q5.078125 0 5.078125 8.625q0 9.765625 -5.640625 9.765625q-2.578125 0 -3.703125 -2.234375q-0.46875 -0.921875 -0.46875 -1.5q0 -1.078125 1.09375 -1.078125q0.921875 0 1.171875 1.140625q0.421875 1.875 1.96875 1.875q2.890625 0 3.265625 -6.296875zm0.046875 -2.328125q0 -6.1875 -2.796875 -6.1875q-2.59375 0 -2.59375 4.484375q0 4.21875 2.203125 4.21875q1.609375 0 3.09375 -2.328125l0.09375 -0.1875z" fill-rule="nonzero"/><path fill="#49352a" d="m406.4161 240.42693l6.09375 0q1.15625 0 1.15625 0.9375q0 0.9375 -1.15625 0.9375l-7.046875 0q-1.59375 0 -1.59375 -1.359375q0 -0.625 1.359375 -2.15625q3.65625 -4.125 5.21875 -6.90625q0.828125 -1.453125 0.828125 -3.0q0 -1.21875 -0.65625 -1.984375q-0.65625 -0.765625 -1.671875 -0.765625q-2.03125 0 -2.4375 2.515625q-0.203125 1.359375 -1.265625 1.359375q-1.140625 0 -1.140625 -1.15625q0 -0.75 0.484375 -1.828125q1.296875 -2.78125 4.453125 -2.78125q2.0625 0 3.34375 1.265625q1.28125 1.265625 1.28125 3.09375q0 3.109375 -4.3125 8.40625l-2.9375 3.421875z" fill-rule="nonzero"/><path fill="#49352a" d="m504.44373 227.58318q-1.171875 1.390625 -1.9375 1.390625q-1.15625 0 -1.15625 -1.125q0 -0.640625 0.828125 -1.109375q0.9375 -0.609375 2.296875 -2.078125q0.34375 -0.40625 0.90625 -0.40625q1.34375 0 1.34375 1.359375l0 15.640625q0 1.390625 -1.15625 1.390625q-1.125 0 -1.125 -1.390625l0 -13.671875zm12.0 0q-1.171875 1.390625 -1.9375 1.390625q-1.15625 0 -1.15625 -1.125q0 -0.640625 0.828125 -1.109375q0.9375 -0.609375 2.296875 -2.078125q0.34375 -0.40625 0.90625 -0.40625q1.34375 0 1.34375 1.359375l0 15.640625q0 1.390625 -1.15625 1.390625q-1.125 0 -1.125 -1.390625l0 -13.671875z" fill-rule="nonzero"/><path fill="#49352a" d="m55.297493 287.5319q4.4375 0.953125 4.4375 4.453125q0 2.453125 -1.921875 3.78125q-1.921875 1.3125 -5.234375 1.3125q-4.828129 0 -6.468754 -2.984375q-0.671875 -1.25 -0.671875 -2.46875q0 -1.140625 1.171875 -1.140625q0.53125 0 0.84375 0.296875q0.140625 0.171875 0.609375 1.5625q0.46875 1.375 1.78125 2.0625q1.3125 0.671875 3.0625038 0.671875q4.40625 0 4.40625 -3.265625q0 -3.140625 -5.125 -3.234375l-1.8593788 0q-1.140625 0 -1.140625 -0.9375q0 -0.953125 1.140625 -0.953125l1.8593788 0q4.703125 -0.078125 4.703125 -3.125q0 -2.875 -4.125 -2.875q-3.0156288 0 -3.9062538 2.078125l-0.5 1.265625q-0.296875 0.828125 -1.21875 0.828125q-1.078125 0 -1.078125 -1.078125q0 -1.25 0.921875 -2.546875q0.9375 -1.296875 2.4375 -1.921875q1.5 -0.625 3.5625038 -0.625q2.875 0 4.5625 1.296875q1.6875 1.28125 1.6875 3.328125q0 3.09375 -3.53125 4.09375l-0.40625 0.125z" fill-rule="nonzero"/><path fill="#49352a" d="m103.897964 284.54752q5.734375 -0.609375 8.515625 -1.359375q2.78125 -0.765625 3.015625 -0.765625q1.1875 0 1.1875 1.1875q0 0.609375 -0.921875 1.03125q-0.90625 0.421875 -3.703125 0.90625q-2.796875 0.484375 -7.515625 1.015625l-0.28125 0.03125l-0.296875 0.046875l0 5.578125q0.015625 1.515625 0.609375 2.015625q0.53125 0.5625 2.171875 0.5625l9.59375 0q1.3125 0 1.3125 1.078125q0 1.046875 -1.3125 1.046875l-10.0625 0q-4.640625 0.046875 -4.5 -4.28125l0 -13.390625q0 -1.328125 1.078125 -1.328125q1.109375 0 1.109375 1.328125l0 5.296875zm21.421875 -5.71875q0.703125 0 3.171875 1.546875q2.46875 1.546875 2.46875 2.28125q0 1.171875 -1.234375 1.171875q-0.421875 0 -1.078125 -0.5q-2.28125 -1.703125 -3.5625 -2.296875q-1.015625 -0.515625 -1.015625 -1.09375q0 -1.109375 1.25 -1.109375zm16.09375 3.5625q1.125 0 1.125 1.109375q0 0.75 -0.859375 2.5q-3.84375 7.734375 -13.109375 10.4375q-2.5 0.734375 -3.515625 0.734375q-1.21875 0 -1.21875 -1.234375q0 -0.609375 0.453125 -0.890625q0.28125 -0.1875 2.59375 -0.609375q4.21875 -0.765625 8.0625 -3.75q3.84375 -3.0 5.1875 -6.953125q0.4375 -1.34375 1.28125 -1.34375zm12.875 1.4375q3.890625 1.515625 7.03125 3.4375q3.15625 1.921875 3.15625 2.765625q0 1.171875 -1.234375 1.171875q-0.515625 0 -1.40625 -0.71875q-3.609375 -2.984375 -7.546875 -4.453125l0 10.78125q0 1.359375 -1.109375 1.359375q-1.125 0 -1.125 -1.359375l0 -17.796875q0 -1.375 1.125 -1.375q1.109375 0 1.109375 1.375l0 4.8125zm9.421875 -5.65625q0 -0.890625 0.8125 -0.890625q0.828125 0 0.828125 0.890625l0 2.328125q0 0.84375 -0.828125 0.84375q-0.8125 0 -0.8125 -0.84375l0 -2.328125zm-2.65625 0q0 -0.890625 0.8125 -0.890625q0.828125 0 0.828125 0.890625l0 2.328125q0 0.84375 -0.828125 0.84375q-0.8125 0 -0.8125 -0.84375l0 -2.328125zm17.9375 7.296875l0 -1.8125q0 -1.140625 1.03125 -1.140625q1.046875 0 1.046875 1.140625l0 1.8125l3.96875 0q2.125 0 2.125 2.359375q0 3.96875 -2.265625 6.59375q-2.25 2.609375 -6.828125 3.546875l-0.859375 0.109375q-1.109375 0 -1.109375 -1.125q0 -0.453125 0.328125 -0.6875q0.21875 -0.1875 1.5 -0.46875q4.53125 -0.984375 6.0 -3.703125q1.109375 -2.03125 1.109375 -3.625q0 -1.03125 -1.21875 -1.03125l-7.078125 0q-1.296875 0 -1.296875 1.265625l0 1.75q0 1.21875 -1.015625 1.21875q-1.0 0 -1.0 -1.21875l0 -2.671875q0 -0.984375 0.6875 -1.640625q0.703125 -0.671875 1.59375 -0.671875l3.28125 0zm34.03125 1.09375q1.375 0 1.375 1.125q0 1.109375 -1.375 1.109375l-17.484375 0q-1.390625 0 -1.390625 -1.125q0 -1.109375 1.390625 -1.109375l17.484375 0zm15.53125 0.5625l0.640625 -3.28125l-1.484375 0q-0.9375 0 -0.9375 -0.84375q0 -0.84375 0.9375 -0.84375l1.734375 0l0.28125 -1.96875l0.03125 -0.34375l-2.578125 0q-1.0625 0 -1.0625 -0.890625q0 -0.875 1.0625 -0.875l10.46875 0q1.078125 0 1.078125 0.890625q0 0.875 -1.078125 0.875l-5.96875 0l-0.046875 0.28125l-0.3125 2.03125l3.5625 0q2.25 -0.109375 2.109375 2.09375l0 2.875l1.453125 0q0.875 0 0.875 0.890625q0 0.875 -0.875 0.875l-11.921875 0q-1.0625 0 -1.0625 -0.890625q0 -0.875 1.0625 -0.875l2.03125 0zm1.859375 0l4.703125 0l0 -2.5q-0.015625 -0.75 -0.75 -0.78125l-3.328125 0l-0.625 3.28125zm-1.296875 3.453125l6.828125 0q2.203125 -0.125 2.0625 2.078125l0 3.40625q0.140625 2.234375 -2.0625 2.09375l-6.828125 0q-2.171875 0.109375 -2.03125 -2.078125l0 -3.46875q-0.140625 -2.171875 2.03125 -2.03125zm0.59375 5.828125l5.59375 0q0.75 -0.015625 0.78125 -0.765625l0 -2.5625q-0.03125 -0.75 -0.78125 -0.765625l-5.59375 0q-0.734375 0.015625 -0.75 0.75l0 2.59375q0.015625 0.734375 0.75 0.75zm-6.59375 -5.625q1.96875 0 1.96875 1.921875l0 3.28125q0 1.9375 -1.96875 1.9375l-2.90625 0q-1.96875 0 -1.96875 -1.890625l0 -3.328125q0 -1.921875 1.96875 -1.921875l2.90625 0zm0.234375 4.90625l0 -2.671875q-0.015625 -0.640625 -0.625 -0.640625l-2.109375 0q-0.609375 0 -0.640625 0.640625l0 2.671875q0.03125 0.625 0.640625 0.625l2.109375 0q0.609375 0 0.625 -0.625zm-4.21875 -16.0625q-1.03125 0 -1.03125 -0.859375q0 -0.875 1.03125 -0.875l5.015625 0q1.0625 0 1.0625 0.875q0 0.859375 -1.0625 0.859375l-5.015625 0zm-0.84375 3.265625q-1.046875 0 -1.046875 -0.859375q0 -0.875 1.046875 -0.875l6.640625 0q1.046875 0 1.046875 0.875q0 0.859375 -1.046875 0.859375l-6.640625 0zm0.921875 3.15625q-1.015625 0 -1.015625 -0.84375q0 -0.8125 1.015625 -0.8125l4.875 0q1.0 0 1.0 0.84375q0 0.8125 -1.0 0.8125l-4.875 0zm0.046875 3.21875q-1.0625 0 -1.0625 -0.828125q0 -0.84375 1.015625 -0.84375l4.875 0q1.0 0 1.0 0.84375q0 0.828125 -1.0 0.828125l-4.828125 0z" fill-rule="nonzero"/><path fill="#49352a" d="m291.7291 287.45377q3.140625 1.0625 3.140625 4.453125q0 2.28125 -1.375 3.734375q-1.375 1.4375 -3.859375 1.4375q-2.203125 0 -3.53125 -1.34375q-1.3125 -1.34375 -1.3125 -2.796875q0 -1.140625 1.1875 -1.140625q0.828125 0 1.34375 1.75q0.53125 1.734375 2.359375 1.734375q1.3125 0 2.125 -0.984375q0.828125 -1.0 0.828125 -2.53125q0 -2.390625 -1.78125 -3.09375q-0.703125 -0.296875 -2.4375 -0.296875q-0.890625 0 -0.890625 -0.984375q0 -0.96875 0.921875 -0.96875l1.21875 0.046875q2.71875 0 2.71875 -3.109375q0 -2.890625 -2.421875 -2.890625q-0.984375 0 -1.4375 0.46875q-0.4375 0.46875 -1.0 2.109375q-0.25 0.75 -1.046875 0.75q-1.03125 0 -1.03125 -1.0q0 -1.5 1.21875 -2.796875q1.21875 -1.3125 3.34375 -1.3125q2.1875 0 3.390625 1.3125q1.203125 1.296875 1.203125 3.171875q0 3.109375 -2.640625 4.1875l-0.234375 0.09375zm7.125 5.296875q0.703125 0 1.203125 0.515625q0.5 0.515625 0.5 1.21875q0 0.734375 -0.515625 1.234375q-0.515625 0.5 -1.21875 0.5q-0.765625 0 -1.28125 -0.5625q-0.453125 -0.515625 -0.453125 -1.1875q0 -0.6875 0.5 -1.203125q0.515625 -0.515625 1.265625 -0.515625zm16.875 -5.296875q3.140625 1.0625 3.140625 4.453125q0 2.28125 -1.375 3.734375q-1.375 1.4375 -3.859375 1.4375q-2.203125 0 -3.53125 -1.34375q-1.3125 -1.34375 -1.3125 -2.796875q0 -1.140625 1.1875 -1.140625q0.828125 0 1.34375 1.75q0.53125 1.734375 2.359375 1.734375q1.3125 0 2.125 -0.984375q0.828125 -1.0 0.828125 -2.53125q0 -2.390625 -1.78125 -3.09375q-0.703125 -0.296875 -2.4375 -0.296875q-0.890625 0 -0.890625 -0.984375q0 -0.96875 0.921875 -0.96875l1.21875 0.046875q2.71875 0 2.71875 -3.109375q0 -2.890625 -2.421875 -2.890625q-0.984375 0 -1.4375 0.46875q-0.4375 0.46875 -1.0 2.109375q-0.25 0.75 -1.046875 0.75q-1.03125 0 -1.03125 -1.0q0 -1.5 1.21875 -2.796875q1.21875 -1.3125 3.34375 -1.3125q2.1875 0 3.390625 1.3125q1.203125 1.296875 1.203125 3.171875q0 3.109375 -2.640625 4.1875l-0.234375 0.09375z" fill-rule="nonzero"/><path fill="#49352a" d="m398.6661 287.45377q3.140625 1.0625 3.140625 4.453125q0 2.28125 -1.375 3.734375q-1.375 1.4375 -3.859375 1.4375q-2.203125 0 -3.53125 -1.34375q-1.3125 -1.34375 -1.3125 -2.796875q0 -1.140625 1.1875 -1.140625q0.828125 0 1.34375 1.75q0.53125 1.734375 2.359375 1.734375q1.3125 0 2.125 -0.984375q0.828125 -1.0 0.828125 -2.53125q0 -2.390625 -1.78125 -3.09375q-0.703125 -0.296875 -2.4375 -0.296875q-0.890625 0 -0.890625 -0.984375q0 -0.96875 0.921875 -0.96875l1.21875 0.046875q2.71875 0 2.71875 -3.109375q0 -2.890625 -2.421875 -2.890625q-0.984375 0 -1.4375 0.46875q-0.4375 0.46875 -1.0 2.109375q-0.25 0.75 -1.046875 0.75q-1.03125 0 -1.03125 -1.0q0 -1.5 1.21875 -2.796875q1.21875 -1.3125 3.34375 -1.3125q2.1875 0 3.390625 1.3125q1.203125 1.296875 1.203125 3.171875q0 3.109375 -2.640625 4.1875l-0.234375 0.09375zm7.125 5.296875q0.703125 0 1.203125 0.515625q0.5 0.515625 0.5 1.21875q0 0.734375 -0.515625 1.234375q-0.515625 0.5 -1.21875 0.5q-0.765625 0 -1.28125 -0.5625q-0.453125 -0.515625 -0.453125 -1.1875q0 -0.6875 0.5 -1.203125q0.515625 -0.515625 1.265625 -0.515625zm12.328125 -5.96875q1.515625 -1.96875 3.625 -1.96875q1.875 0 2.921875 1.609375q1.0625 1.59375 1.0625 4.296875q0 2.921875 -1.296875 4.640625q-1.296875 1.71875 -3.546875 1.71875q-5.09375 0 -5.09375 -8.640625q0 -9.75 5.65625 -9.75q2.578125 0 3.703125 2.234375q0.46875 0.90625 0.46875 1.5q0 1.078125 -1.109375 1.078125q-0.90625 0 -1.171875 -1.15625q-0.421875 -1.875 -1.96875 -1.875q-2.875 0 -3.25 6.3125zm-0.046875 2.34375q0 6.15625 2.765625 6.15625q2.625 0 2.625 -4.46875q0 -4.21875 -2.203125 -4.21875q-1.78125 0 -3.1875 2.53125z" fill-rule="nonzero"/><path fill="#49352a" d="m495.9906 286.7819q1.515625 -1.96875 3.625 -1.96875q1.875 0 2.921875 1.609375q1.0625 1.59375 1.0625 4.296875q0 2.921875 -1.296875 4.640625q-1.296875 1.71875 -3.546875 1.71875q-5.09375 0 -5.09375 -8.640625q0 -9.75 5.65625 -9.75q2.578125 0 3.703125 2.234375q0.46875 0.90625 0.46875 1.5q0 1.078125 -1.109375 1.078125q-0.90625 0 -1.171875 -1.15625q-0.421875 -1.875 -1.96875 -1.875q-2.875 0 -3.25 6.3125zm-0.046875 2.34375q0 6.15625 2.765625 6.15625q2.625 0 2.625 -4.46875q0 -4.21875 -2.203125 -4.21875q-1.78125 0 -3.1875 2.53125zm11.71875 3.625q0.703125 0 1.203125 0.515625q0.5 0.515625 0.5 1.21875q0 0.734375 -0.515625 1.234375q-0.515625 0.5 -1.21875 0.5q-0.765625 0 -1.28125 -0.5625q-0.453125 -0.515625 -0.453125 -1.1875q0 -0.6875 0.5 -1.203125q0.515625 -0.515625 1.265625 -0.515625zm17.625 -3.765625q-1.53125 1.96875 -3.640625 1.96875q-1.875 0 -2.9375 -1.609375q-1.046875 -1.609375 -1.046875 -4.296875q0 -2.9375 1.296875 -4.640625q1.3125 -1.71875 3.5625 -1.71875q5.078125 0 5.078125 8.625q0 9.765625 -5.640625 9.765625q-2.578125 0 -3.703125 -2.234375q-0.46875 -0.921875 -0.46875 -1.5q0 -1.078125 1.09375 -1.078125q0.921875 0 1.171875 1.140625q0.421875 1.875 1.96875 1.875q2.890625 0 3.265625 -6.296875zm0.046875 -2.328125q0 -6.1875 -2.796875 -6.1875q-2.59375 0 -2.59375 4.484375q0 4.21875 2.203125 4.21875q1.609375 0 3.09375 -2.328125l0.09375 -0.1875z" fill-rule="nonzero"/><path fill="#49352a" d="m57.156868 347.27744l0 2.890625q0 1.359375 -1.125 1.359375q-1.109375 0 -1.109375 -1.359375l0 -2.890625l-8.859379 0q-1.5 0 -1.5 -1.28125q0 -0.640625 0.40625 -1.109375l9.046879 -10.890625q0.71875 -0.875 1.59375 -0.875q1.546875 0 1.546875 1.4375l0 10.65625l2.25 0q1.265625 0 1.265625 1.03125q0 1.03125 -1.265625 1.03125l-2.25 0zm-9.875004 -2.0625l7.640629 0l0 -9.203125l-7.640629 9.203125z" fill-rule="nonzero"/><path fill="#49352a" d="m122.991714 343.33994q3.078125 2.28125 5.140625 4.328125q2.0625 2.03125 2.0625 2.640625q0 1.203125 -1.25 1.203125q-0.671875 0 -1.46875 -1.046875q-2.65625 -3.25 -5.84375 -5.546875q-3.390625 3.4375 -7.515625 5.578125q-1.953125 1.015625 -2.515625 1.015625q-1.140625 0 -1.140625 -1.140625q0 -0.71875 1.265625 -1.21875q3.15625 -1.21875 6.453125 -3.984375q3.296875 -2.78125 5.609375 -6.953125q0.734375 -1.3125 0.734375 -1.71875q0 -0.625 -0.828125 -0.625l-10.515625 0q-1.3125 0 -1.3125 -1.078125q0 -1.0625 1.3125 -1.0625l12.0 0q0.84375 0 1.40625 0.59375q0.5625 0.578125 0.5625 1.3125q0 1.828125 -2.953125 6.109375l-1.203125 1.59375zm29.15625 -11.4375q0.984375 0 1.6875 0.734375q0.703125 0.71875 0.703125 1.6875q0 1.03125 -0.734375 1.71875q-0.71875 0.6875 -1.703125 0.6875q-1.0 0 -1.703125 -0.71875q-0.703125 -0.734375 -0.703125 -1.71875q0 -0.953125 0.703125 -1.671875q0.71875 -0.71875 1.75 -0.71875zm-0.046875 1.171875q-1.234375 0 -1.234375 1.25q0 1.234375 1.234375 1.234375q1.265625 0 1.265625 -1.265625q0 -1.21875 -1.265625 -1.21875zm-10.40625 3.734375q-0.375 0 -0.84375 0.734375q-0.46875 0.71875 -1.453125 2.078125q-0.984375 1.359375 -2.46875 3.296875q-1.484375 1.921875 -2.21875 1.921875q-1.140625 0 -1.140625 -1.234375q0 -0.640625 1.03125 -1.6875q2.6875 -2.90625 5.0625 -6.515625q1.078125 -1.671875 2.03125 -1.671875q0.734375 0 1.53125 0.96875l1.609375 2.40625q4.59375 7.15625 8.515625 11.109375q0.953125 0.984375 0.953125 1.640625q0 1.25 -1.140625 1.25q-0.6875 0 -2.109375 -1.765625q-4.71875 -5.8125 -8.328125 -11.546875q-0.609375 -0.984375 -1.03125 -0.984375zm29.140625 2.5l0 12.171875q0 1.40625 -1.15625 1.40625q-1.125 0 -1.125 -1.40625l0 -10.53125q-2.390625 1.625 -5.375 3.125q-2.984375 1.5 -3.90625 1.5q-1.046875 0 -1.046875 -1.15625q0 -0.4375 0.28125 -0.671875q0.234375 -0.21875 3.375 -1.5q7.328125 -3.375 11.8125 -8.609375q0.90625 -1.125 1.546875 -1.125q1.140625 0 1.140625 1.03125q0 1.34375 -5.546875 5.765625zm14.484375 -6.046875q0.703125 0 3.171875 1.546875q2.46875 1.546875 2.46875 2.28125q0 1.171875 -1.234375 1.171875q-0.421875 0 -1.078125 -0.5q-2.28125 -1.703125 -3.5625 -2.296875q-1.015625 -0.515625 -1.015625 -1.09375q0 -1.109375 1.25 -1.109375zm16.09375 3.5625q1.125 0 1.125 1.109375q0 0.75 -0.859375 2.5q-3.84375 7.734375 -13.109375 10.4375q-2.5 0.734375 -3.515625 0.734375q-1.21875 0 -1.21875 -1.234375q0 -0.609375 0.453125 -0.890625q0.28125 -0.1875 2.59375 -0.609375q4.21875 -0.765625 8.0625 -3.75q3.84375 -3.0 5.1875 -6.953125q0.4375 -1.34375 1.28125 -1.34375zm15.140625 4.734375l0.640625 -3.28125l-1.484375 0q-0.9375 0 -0.9375 -0.84375q0 -0.84375 0.9375 -0.84375l1.734375 0l0.28125 -1.96875l0.03125 -0.34375l-2.578125 0q-1.0625 0 -1.0625 -0.890625q0 -0.875 1.0625 -0.875l10.46875 0q1.078125 0 1.078125 0.890625q0 0.875 -1.078125 0.875l-5.96875 0l-0.046875 0.28125l-0.3125 2.03125l3.5625 0q2.25 -0.109375 2.109375 2.09375l0 2.875l1.453125 0q0.875 0 0.875 0.890625q0 0.875 -0.875 0.875l-11.921875 0q-1.0625 0 -1.0625 -0.890625q0 -0.875 1.0625 -0.875l2.03125 0zm1.859375 0l4.703125 0l0 -2.5q-0.015625 -0.75 -0.75 -0.78125l-3.328125 0l-0.625 3.28125zm-1.296875 3.453125l6.828125 0q2.203125 -0.125 2.0625 2.078125l0 3.40625q0.140625 2.234375 -2.0625 2.09375l-6.828125 0q-2.171875 0.109375 -2.03125 -2.078125l0 -3.46875q-0.140625 -2.171875 2.03125 -2.03125zm0.59375 5.828125l5.59375 0q0.75 -0.015625 0.78125 -0.765625l0 -2.5625q-0.03125 -0.75 -0.78125 -0.765625l-5.59375 0q-0.734375 0.015625 -0.75 0.75l0 2.59375q0.015625 0.734375 0.75 0.75zm-6.59375 -5.625q1.96875 0 1.96875 1.921875l0 3.28125q0 1.9375 -1.96875 1.9375l-2.90625 0q-1.96875 0 -1.96875 -1.890625l0 -3.328125q0 -1.921875 1.96875 -1.921875l2.90625 0zm0.234375 4.90625l0 -2.671875q-0.015625 -0.640625 -0.625 -0.640625l-2.109375 0q-0.609375 0 -0.640625 0.640625l0 2.671875q0.03125 0.625 0.640625 0.625l2.109375 0q0.609375 0 0.625 -0.625zm-4.21875 -16.0625q-1.03125 0 -1.03125 -0.859375q0 -0.875 1.03125 -0.875l5.015625 0q1.0625 0 1.0625 0.875q0 0.859375 -1.0625 0.859375l-5.015625 0zm-0.84375 3.265625q-1.046875 0 -1.046875 -0.859375q0 -0.875 1.046875 -0.875l6.640625 0q1.046875 0 1.046875 0.875q0 0.859375 -1.046875 0.859375l-6.640625 0zm0.921875 3.15625q-1.015625 0 -1.015625 -0.84375q0 -0.8125 1.015625 -0.8125l4.875 0q1.0 0 1.0 0.84375q0 0.8125 -1.0 0.8125l-4.875 0zm0.046875 3.21875q-1.0625 0 -1.0625 -0.828125q0 -0.84375 1.015625 -0.84375l4.875 0q1.0 0 1.0 0.84375q0 0.828125 -1.0 0.828125l-4.828125 0z" fill-rule="nonzero"/><path fill="#49352a" d="m293.08847 345.21494l0.984375 0q1.140625 0 1.140625 0.9375q0 0.9375 -1.140625 0.9375l-0.984375 0l0 3.171875q0 1.25 -1.03125 1.25q-1.03125 0 -1.03125 -1.25l0 -3.171875l-5.140625 0q-1.421875 0 -1.421875 -1.375q0 -0.5 0.25 -0.984375l5.671875 -10.640625q0.515625 -0.984375 1.359375 -0.984375q1.34375 0 1.34375 1.59375l0 10.515625zm-6.546875 0l4.484375 0l0 -8.484375l-4.484375 8.484375zm12.3125 1.96875q0.703125 0 1.203125 0.515625q0.5 0.515625 0.5 1.21875q0 0.734375 -0.515625 1.234375q-0.515625 0.5 -1.21875 0.5q-0.765625 0 -1.28125 -0.5625q-0.453125 -0.515625 -0.453125 -1.1875q0 -0.6875 0.5 -1.203125q0.515625 -0.515625 1.265625 -0.515625zm18.234375 -1.96875l0.984375 0q1.140625 0 1.140625 0.9375q0 0.9375 -1.140625 0.9375l-0.984375 0l0 3.171875q0 1.25 -1.03125 1.25q-1.03125 0 -1.03125 -1.25l0 -3.171875l-5.140625 0q-1.421875 0 -1.421875 -1.375q0 -0.5 0.25 -0.984375l5.671875 -10.640625q0.515625 -0.984375 1.359375 -0.984375q1.34375 0 1.34375 1.59375l0 10.515625zm-6.546875 0l4.484375 0l0 -8.484375l-4.484375 8.484375z" fill-rule="nonzero"/><path fill="#49352a" d="m396.8536 333.1212q2.765625 0 3.8125 2.4375q1.0625 2.4375 1.0625 6.796875q0 4.875 -1.203125 7.015625q-1.1875 2.140625 -3.765625 2.140625q-2.578125 0 -3.78125 -2.15625q-1.1875 -2.171875 -1.1875 -6.921875q0 -4.671875 1.109375 -6.984375q1.125 -2.328125 3.953125 -2.328125zm-0.140625 1.90625q-2.640625 0 -2.640625 7.296875q0 7.28125 2.6875 7.28125q2.703125 0 2.703125 -7.34375q0 -7.234375 -2.75 -7.234375zm9.078125 12.15625q0.703125 0 1.203125 0.515625q0.5 0.515625 0.5 1.21875q0 0.734375 -0.515625 1.234375q-0.515625 0.5 -1.21875 0.5q-0.765625 0 -1.28125 -0.5625q-0.453125 -0.515625 -0.453125 -1.1875q0 -0.6875 0.5 -1.203125q0.515625 -0.515625 1.265625 -0.515625zm17.0625 -11.171875l0.046875 -0.1875q0 -0.3125 -0.40625 -0.3125l-5.390625 0q-1.265625 0 -1.265625 -1.03125q0 -1.03125 1.265625 -1.03125l6.96875 0q1.46875 0 1.46875 1.40625q0 0.359375 -0.15625 0.78125l-5.703125 14.859375q-0.375 1.03125 -1.171875 1.03125q-1.078125 0 -1.078125 -1.015625q0 -0.28125 0.140625 -0.65625l5.28125 -13.84375z" fill-rule="nonzero"/><path fill="#49352a" d="m496.28748 340.9962q1.296875 -1.6875 3.21875 -1.6875q1.9375 0 3.015625 1.625q1.078125 1.609375 1.078125 4.3125q0 6.265625 -5.15625 6.265625q-2.859375 0 -4.140625 -2.171875q-0.609375 -1.03125 -0.609375 -1.75q0 -1.21875 1.078125 -1.21875q0.84375 0 1.390625 1.625q0.546875 1.609375 2.3125 1.609375q2.90625 0 2.90625 -4.4375q0 -4.09375 -2.25 -4.09375q-1.71875 0 -2.578125 2.34375q-0.28125 0.765625 -1.125 0.765625q-1.203125 0 -1.203125 -1.453125l0 -7.28125q0 -0.828125 0.578125 -1.40625q0.59375 -0.59375 1.421875 -0.59375l5.828125 0q1.125 0 1.125 0.96875q0 0.953125 -1.125 0.953125l-5.015625 0q-0.765625 -0.015625 -0.75 0.75l0 4.875zm11.375 6.1875q0.703125 0 1.203125 0.515625q0.5 0.515625 0.5 1.21875q0 0.734375 -0.515625 1.234375q-0.515625 0.5 -1.21875 0.5q-0.765625 0 -1.28125 -0.5625q-0.453125 -0.515625 -0.453125 -1.1875q0 -0.6875 0.5 -1.203125q0.515625 -0.515625 1.265625 -0.515625zm14.78125 -10.734375q-1.171875 1.390625 -1.9375 1.390625q-1.15625 0 -1.15625 -1.125q0 -0.640625 0.828125 -1.109375q0.9375 -0.609375 2.296875 -2.078125q0.34375 -0.40625 0.90625 -0.40625q1.34375 0 1.34375 1.359375l0 15.640625q0 1.390625 -1.15625 1.390625q-1.125 0 -1.125 -1.390625l0 -13.671875z" fill-rule="nonzero"/><path fill="#49352a" d="m48.48499 395.1324q2.0625 -1.765625 4.750004 -1.765625q2.984375 0 4.703125 1.59375q1.71875 1.59375 1.71875 4.4375q0 3.0 -1.796875 4.78125q-1.78125 1.765625 -5.28125 1.765625q-4.406254 0 -6.234379 -2.515625q-0.859375 -1.203125 -0.859375 -2.28125q0 -1.078125 1.125 -1.078125q0.84375 0 1.640625 1.6875q0.984375 2.046875 4.187504 2.046875q4.765625 0 4.765625 -4.5q0 -3.921875 -4.03125 -3.921875q-1.625 0 -2.5937538 0.5q-0.96875 0.484375 -2.28125 2.109375q-0.359375 0.4375 -0.921875 0.4375q-1.125 0 -1.125 -1.421875l0 -6.828125q0 -0.953125 0.6875 -1.609375q0.65625 -0.6875 1.609375 -0.6875l9.281254 0q1.390625 0 1.390625 1.125q0 1.109375 -1.390625 1.109375l-8.218754 0q-1.15625 -0.03125 -1.125 1.125l0 3.890625z" fill-rule="nonzero"/><path fill="#49352a" d="m120.78859 396.30426l0.09375 -0.03125q3.0 -0.9375 4.84375 -2.671875q1.84375 -1.75 1.84375 -2.8125q0 -0.625 -0.828125 -0.625l-14.96875 0q-1.296875 0 -1.296875 -1.0625q0 -1.03125 1.296875 -1.03125l16.1875 0q0.9375 0 1.546875 0.703125q0.515625 0.5625 0.515625 1.390625q0 1.9375 -2.25 4.328125q-2.25 2.390625 -6.75 3.875l-0.421875 0.140625q-0.375 2.0625 -1.484375 3.671875q-1.09375 1.59375 -3.140625 3.03125q-2.03125 1.4375 -2.984375 1.4375q-1.15625 0 -1.15625 -1.15625q0 -0.703125 1.34375 -1.296875q5.53125 -2.4375 5.53125 -8.546875l-0.078125 -2.375q0 -1.234375 1.125 -1.234375q1.171875 0 1.171875 1.40625l-0.0625 1.9375l-0.078125 0.921875zm14.046875 -2.15625q0 -1.0625 1.3125 -1.0625l15.015625 0q0.96875 0 1.578125 0.65625q0.625 0.65625 0.625 1.578125q0 1.5625 -1.15625 3.796875q-1.15625 2.21875 -3.03125 3.828125q-1.875 1.609375 -4.84375 2.765625q-2.96875 1.140625 -4.625 1.140625q-1.203125 0 -1.203125 -1.125q0 -0.515625 0.359375 -0.78125q0.203125 -0.15625 2.015625 -0.484375q4.84375 -0.921875 7.828125 -4.21875q2.25 -2.515625 2.25 -4.125q0 -0.890625 -1.03125 -0.890625l-13.78125 0q-1.3125 0 -1.3125 -1.078125zm16.0 -6.5q1.3125 0 1.3125 1.078125q0 1.0625 -1.3125 1.0625l-12.953125 0q-1.3125 0 -1.3125 -1.0625q0 -1.078125 1.3125 -1.078125l12.953125 0zm12.78125 6.0q5.765625 -0.671875 8.53125 -1.40625q2.78125 -0.75 3.015625 -0.75q1.203125 0 1.203125 1.21875q0 0.984375 -2.875 1.59375q-2.875 0.609375 -9.265625 1.34375l-0.609375 0.09375l0 5.578125q0.015625 1.515625 0.609375 2.015625q0.53125 0.5625 2.171875 0.5625l9.59375 0q1.3125 0 1.3125 1.078125q0 1.0625 -1.3125 1.0625l-10.0625 0q-4.640625 0.046875 -4.5 -4.296875l0 -13.390625q0 -1.328125 1.078125 -1.328125q1.109375 0 1.109375 1.328125l0 5.296875zm13.75 -6.765625q0 -0.875 0.8125 -0.875q0.828125 0 0.828125 0.875l0 2.171875q0 0.875 -0.828125 0.875q-0.8125 0 -0.8125 -0.875l0 -2.171875zm-2.671875 0q0 -0.875 0.8125 -0.875q0.828125 0 0.828125 0.875l0 2.171875q0 0.875 -0.828125 0.875q-0.8125 0 -0.8125 -0.875l0 -2.171875zm18.09375 9.421875l0.09375 -0.03125q3.0 -0.9375 4.84375 -2.671875q1.84375 -1.75 1.84375 -2.8125q0 -0.625 -0.828125 -0.625l-14.96875 0q-1.296875 0 -1.296875 -1.0625q0 -1.03125 1.296875 -1.03125l16.1875 0q0.9375 0 1.546875 0.703125q0.515625 0.5625 0.515625 1.390625q0 1.9375 -2.25 4.328125q-2.25 2.390625 -6.75 3.875l-0.421875 0.140625q-0.375 2.0625 -1.484375 3.671875q-1.09375 1.59375 -3.140625 3.03125q-2.03125 1.4375 -2.984375 1.4375q-1.15625 0 -1.15625 -1.15625q0 -0.703125 1.34375 -1.296875q5.53125 -2.4375 5.53125 -8.546875l-0.078125 -2.375q0 -1.234375 1.125 -1.234375q1.171875 0 1.171875 1.40625l-0.0625 1.9375l-0.078125 0.921875zm23.765625 -0.3125l0.640625 -3.28125l-1.484375 0q-0.9375 0 -0.9375 -0.84375q0 -0.84375 0.9375 -0.84375l1.734375 0l0.28125 -1.96875l0.03125 -0.34375l-2.578125 0q-1.0625 0 -1.0625 -0.890625q0 -0.875 1.0625 -0.875l10.46875 0q1.078125 0 1.078125 0.890625q0 0.875 -1.078125 0.875l-5.96875 0l-0.046875 0.28125l-0.3125 2.03125l3.5625 0q2.25 -0.109375 2.109375 2.09375l0 2.875l1.453125 0q0.875 0 0.875 0.890625q0 0.875 -0.875 0.875l-11.921875 0q-1.0625 0 -1.0625 -0.890625q0 -0.875 1.0625 -0.875l2.03125 0zm1.859375 0l4.703125 0l0 -2.5q-0.015625 -0.75 -0.75 -0.78125l-3.328125 0l-0.625 3.28125zm-1.296875 3.453125l6.828125 0q2.203125 -0.125 2.0625 2.078125l0 3.40625q0.140625 2.234375 -2.0625 2.09375l-6.828125 0q-2.171875 0.109375 -2.03125 -2.078125l0 -3.46875q-0.140625 -2.171875 2.03125 -2.03125zm0.59375 5.828125l5.59375 0q0.75 -0.015625 0.78125 -0.765625l0 -2.5625q-0.03125 -0.75 -0.78125 -0.765625l-5.59375 0q-0.734375 0.015625 -0.75 0.75l0 2.59375q0.015625 0.734375 0.75 0.75zm-6.59375 -5.625q1.96875 0 1.96875 1.921875l0 3.28125q0 1.9375 -1.96875 1.9375l-2.90625 0q-1.96875 0 -1.96875 -1.890625l0 -3.328125q0 -1.921875 1.96875 -1.921875l2.90625 0zm0.234375 4.90625l0 -2.671875q-0.015625 -0.640625 -0.625 -0.640625l-2.109375 0q-0.609375 0 -0.640625 0.640625l0 2.671875q0.03125 0.625 0.640625 0.625l2.109375 0q0.609375 0 0.625 -0.625zm-4.21875 -16.0625q-1.03125 0 -1.03125 -0.859375q0 -0.875 1.03125 -0.875l5.015625 0q1.0625 0 1.0625 0.875q0 0.859375 -1.0625 0.859375l-5.015625 0zm-0.84375 3.265625q-1.046875 0 -1.046875 -0.859375q0 -0.875 1.046875 -0.875l6.640625 0q1.046875 0 1.046875 0.875q0 0.859375 -1.046875 0.859375l-6.640625 0zm0.921875 3.15625q-1.015625 0 -1.015625 -0.84375q0 -0.8125 1.015625 -0.8125l4.875 0q1.0 0 1.0 0.84375q0 0.8125 -1.0 0.8125l-4.875 0zm0.046875 3.21875q-1.0625 0 -1.0625 -0.828125q0 -0.84375 1.015625 -0.84375l4.875 0q1.0 0 1.0 0.84375q0 0.828125 -1.0 0.828125l-4.828125 0z" fill-rule="nonzero"/><path fill="#49352a" d="m287.4791 403.72614l6.09375 0q1.15625 0 1.15625 0.9375q0 0.9375 -1.15625 0.9375l-7.046875 0q-1.59375 0 -1.59375 -1.359375q0 -0.625 1.359375 -2.15625q3.65625 -4.125 5.21875 -6.90625q0.828125 -1.453125 0.828125 -3.0q0 -1.21875 -0.65625 -1.984375q-0.65625 -0.765625 -1.671875 -0.765625q-2.03125 0 -2.4375 2.515625q-0.203125 1.359375 -1.265625 1.359375q-1.140625 0 -1.140625 -1.15625q0 -0.75 0.484375 -1.828125q1.296875 -2.78125 4.453125 -2.78125q2.0625 0 3.34375 1.265625q1.28125 1.265625 1.28125 3.09375q0 3.109375 -4.3125 8.40625l-2.9375 3.421875zm11.375 -2.109375q0.703125 0 1.203125 0.515625q0.5 0.515625 0.5 1.21875q0 0.734375 -0.515625 1.234375q-0.515625 0.5 -1.21875 0.5q-0.765625 0 -1.28125 -0.5625q-0.453125 -0.515625 -0.453125 -1.1875q0 -0.6875 0.5 -1.203125q0.515625 -0.515625 1.265625 -0.515625zm17.625 -3.765625q-1.53125 1.96875 -3.640625 1.96875q-1.875 0 -2.9375 -1.609375q-1.046875 -1.609375 -1.046875 -4.296875q0 -2.9375 1.296875 -4.640625q1.3125 -1.71875 3.5625 -1.71875q5.078125 0 5.078125 8.625q0 9.765625 -5.640625 9.765625q-2.578125 0 -3.703125 -2.234375q-0.46875 -0.921875 -0.46875 -1.5q0 -1.078125 1.09375 -1.078125q0.921875 0 1.171875 1.140625q0.421875 1.875 1.96875 1.875q2.890625 0 3.265625 -6.296875zm0.046875 -2.328125q0 -6.1875 -2.796875 -6.1875q-2.59375 0 -2.59375 4.484375q0 4.21875 2.203125 4.21875q1.609375 0 3.09375 -2.328125l0.09375 -0.1875z" fill-rule="nonzero"/><path fill="#49352a" d="m396.57236 390.8824q-1.171875 1.390625 -1.9375 1.390625q-1.15625 0 -1.15625 -1.125q0 -0.640625 0.828125 -1.109375q0.9375 -0.609375 2.296875 -2.078125q0.34375 -0.40625 0.90625 -0.40625q1.34375 0 1.34375 1.359375l0 15.640625q0 1.390625 -1.15625 1.390625q-1.125 0 -1.125 -1.390625l0 -13.671875zm9.21875 10.734375q0.703125 0 1.203125 0.515625q0.5 0.515625 0.5 1.21875q0 0.734375 -0.515625 1.234375q-0.515625 0.5 -1.21875 0.5q-0.765625 0 -1.28125 -0.5625q-0.453125 -0.515625 -0.453125 -1.1875q0 -0.6875 0.5 -1.203125q0.515625 -0.515625 1.265625 -0.515625zm16.875 -5.296875q3.140625 1.0625 3.140625 4.453125q0 2.28125 -1.375 3.734375q-1.375 1.4375 -3.859375 1.4375q-2.203125 0 -3.53125 -1.34375q-1.3125 -1.34375 -1.3125 -2.796875q0 -1.140625 1.1875 -1.140625q0.828125 0 1.34375 1.75q0.53125 1.734375 2.359375 1.734375q1.3125 0 2.125 -0.984375q0.828125 -1.0 0.828125 -2.53125q0 -2.390625 -1.78125 -3.09375q-0.703125 -0.296875 -2.4375 -0.296875q-0.890625 0 -0.890625 -0.984375q0 -0.96875 0.921875 -0.96875l1.21875 0.046875q2.71875 0 2.71875 -3.109375q0 -2.890625 -2.421875 -2.890625q-0.984375 0 -1.4375 0.46875q-0.4375 0.46875 -1.0 2.109375q-0.25 0.75 -1.046875 0.75q-1.03125 0 -1.03125 -1.0q0 -1.5 1.21875 -2.796875q1.21875 -1.3125 3.34375 -1.3125q2.1875 0 3.390625 1.3125q1.203125 1.296875 1.203125 3.171875q0 3.109375 -2.640625 4.1875l-0.234375 0.09375z" fill-rule="nonzero"/><path fill="#49352a" d="m501.89685 399.648l0.984375 0q1.140625 0 1.140625 0.9375q0 0.9375 -1.140625 0.9375l-0.984375 0l0 3.171875q0 1.25 -1.03125 1.25q-1.03125 0 -1.03125 -1.25l0 -3.171875l-5.140625 0q-1.421875 0 -1.421875 -1.375q0 -0.5 0.25 -0.984375l5.671875 -10.640625q0.515625 -0.984375 1.359375 -0.984375q1.34375 0 1.34375 1.59375l0 10.515625zm-6.546875 0l4.484375 0l0 -8.484375l-4.484375 8.484375zm12.3125 1.96875q0.703125 0 1.203125 0.515625q0.5 0.515625 0.5 1.21875q0 0.734375 -0.515625 1.234375q-0.515625 0.5 -1.21875 0.5q-0.765625 0 -1.28125 -0.5625q-0.453125 -0.515625 -0.453125 -1.1875q0 -0.6875 0.5 -1.203125q0.515625 -0.515625 1.265625 -0.515625zm12.625 2.109375l6.09375 0q1.15625 0 1.15625 0.9375q0 0.9375 -1.15625 0.9375l-7.046875 0q-1.59375 0 -1.59375 -1.359375q0 -0.625 1.359375 -2.15625q3.65625 -4.125 5.21875 -6.90625q0.828125 -1.453125 0.828125 -3.0q0 -1.21875 -0.65625 -1.984375q-0.65625 -0.765625 -1.671875 -0.765625q-2.03125 0 -2.4375 2.515625q-0.203125 1.359375 -1.265625 1.359375q-1.140625 0 -1.140625 -1.15625q0 -0.75 0.484375 -1.828125q1.296875 -2.78125 4.453125 -2.78125q2.0625 0 3.34375 1.265625q1.28125 1.265625 1.28125 3.09375q0 3.109375 -4.3125 8.40625l-2.9375 3.421875z" fill-rule="nonzero"/><path fill="#000000" fill-opacity="0.0" d="m288.0 455.10236l269.7008 0l0 42.04724l-269.7008 0z" fill-rule="evenodd"/><path fill="#ffffff" d="m428.74768 464.10236l119.953125 0l0 16.0l-119.953125 0l0 -16.0z" fill-rule="nonzero"/><path fill="#000000" d="m395.96643 471.43362l0 4.734375l3.359375 0q0.5625 0 0.578125 -0.5625l0 -2.625q0 -0.703125 0.59375 -0.703125q0.5625 0 0.5625 0.71875l0 2.859375q0.03125 0.703125 -0.34375 1.109375q-0.390625 0.375 -1.109375 0.359375l-8.3125 0q-0.71875 0.015625 -1.109375 -0.359375q-0.375 -0.40625 -0.359375 -1.109375l0 -2.859375q0 -0.703125 0.578125 -0.703125q0.578125 0 0.578125 0.6875l0 2.625q0 0.5625 0.578125 0.5625l3.265625 0l0 -4.734375l-3.0625 0q-1.421875 0.078125 -1.328125 -1.328125l0 -2.609375q0 -0.703125 0.5625 -0.703125q0.578125 0 0.578125 0.640625l0 2.328125q0.015625 0.546875 0.578125 0.5625l2.671875 0l0 -3.90625q0 -0.703125 0.5625 -0.703125q0.578125 0 0.578125 0.703125l0 3.90625l2.796875 0q0.5625 -0.015625 0.5625 -0.5625l0 -2.328125q0 -0.640625 0.578125 -0.640625q0.578125 0 0.578125 0.703125l0 2.609375q0.09375 1.421875 -1.34375 1.328125l-3.171875 0zm7.671875 2.5625l0 -5.40625q-0.0625 -1.3125 1.21875 -1.234375l1.8125 0l0 -1.140625q0 -0.5 0.515625 -0.5q0.53125 0 0.53125 0.5l0 1.140625l1.953125 0l0 -1.140625q0 -0.5 0.515625 -0.5q0.515625 0 0.515625 0.5l0 1.140625l1.953125 0q1.296875 -0.078125 1.21875 1.234375l0 5.40625l0.5 0q0.515625 0 0.515625 0.53125q0 0.515625 -0.515625 0.515625l-11.234375 0q-0.515625 0 -0.515625 -0.515625q0 -0.53125 0.515625 -0.53125l0.5 0zm7.0625 0l2.109375 0l0 -2.4375l-2.109375 0l0 2.4375zm-1.03125 0l0 -2.4375l-1.953125 0l0 2.4375l1.953125 0zm-3.0 0l0 -2.4375l-1.96875 0l0 2.4375l1.96875 0zm4.03125 -3.421875l2.109375 0l0 -1.71875q-0.015625 -0.421875 -0.453125 -0.4375l-1.65625 0l0 2.15625zm-1.03125 0l0 -2.15625l-1.953125 0l0 2.15625l1.953125 0zm-3.0 0l0 -2.15625l-1.515625 0q-0.4375 0.015625 -0.453125 0.4375l0 1.71875l1.96875 0zm-0.125 4.828125q0.578125 0 0.578125 0.546875q0 0.3125 -0.65625 0.71875q-0.65625 0.40625 -1.859375 0.8125q-1.1875 0.421875 -1.421875 0.421875q-0.5625 0 -0.5625 -0.5625q0 -0.46875 0.640625 -0.609375q1.59375 -0.3125 2.8125 -1.140625q0.28125 -0.1875 0.46875 -0.1875zm4.375 -0.015625q0.171875 0 0.484375 0.203125q1.171875 0.734375 2.890625 1.078125q0.59375 0.125 0.59375 0.578125q0 0.625 -0.59375 0.625q-0.203125 0 -1.46875 -0.4375q-1.265625 -0.421875 -1.890625 -0.78125q-0.625 -0.375 -0.625 -0.703125q0 -0.5625 0.609375 -0.5625zm11.1875 -1.4375q0.375 0 0.640625 0.296875q0.28125 0.28125 0.28125 0.640625q0 0.40625 -0.28125 0.6875q-0.28125 0.265625 -0.65625 0.265625q-0.390625 0 -0.671875 -0.28125q-0.265625 -0.296875 -0.265625 -0.671875q0 -0.375 0.265625 -0.65625q0.28125 -0.28125 0.6875 -0.28125zm0 -6.125q0.359375 0 0.640625 0.28125q0.28125 0.265625 0.28125 0.65625q0 0.390625 -0.28125 0.671875q-0.28125 0.265625 -0.65625 0.265625q-0.390625 0 -0.671875 -0.28125q-0.265625 -0.28125 -0.265625 -0.65625q0 -0.390625 0.265625 -0.65625q0.28125 -0.28125 0.6875 -0.28125z" fill-rule="nonzero"/><path fill="#333333" d="m434.71643 475.30862l0 -6.6875l-3.203125 0q-0.703125 0 -0.703125 -0.59375q0 -0.59375 0.703125 -0.59375l7.796875 0q0.703125 0 0.703125 0.609375q0 0.578125 -0.703125 0.578125l-3.359375 0l0 6.6875l4.5 0q0.734375 0 0.734375 0.59375q0 0.578125 -0.734375 0.578125l-10.078125 0q-0.71875 0 -0.71875 -0.59375q0 -0.578125 0.71875 -0.578125l4.34375 0zm15.53125 -2.890625q1.703125 1.25 2.84375 2.390625q1.15625 1.125 1.15625 1.46875q0 0.65625 -0.6875 0.65625q-0.375 0 -0.828125 -0.5625q-1.46875 -1.8125 -3.234375 -3.09375q-1.890625 1.921875 -4.1875 3.109375q-1.078125 0.546875 -1.390625 0.546875q-0.640625 0 -0.640625 -0.609375q0 -0.40625 0.703125 -0.6875q1.765625 -0.671875 3.59375 -2.21875q1.828125 -1.546875 3.109375 -3.859375q0.40625 -0.71875 0.40625 -0.953125q0 -0.34375 -0.453125 -0.34375l-5.84375 0q-0.734375 0 -0.734375 -0.59375q0 -0.59375 0.734375 -0.59375l6.671875 0q0.46875 0 0.78125 0.328125q0.3125 0.328125 0.3125 0.734375q0 1.015625 -1.640625 3.390625l-0.671875 0.890625zm15.140625 -5.703125q0.65625 0 0.65625 0.640625q0 0.953125 -1.09375 3.578125q-1.09375 2.625 -3.21875 4.296875q-0.875 0.703125 -2.125 1.34375q-1.234375 0.625 -1.765625 0.625q-0.609375 0 -0.609375 -0.65625q0 -0.28125 0.171875 -0.40625q0.1875 -0.125 1.0 -0.453125q2.65625 -1.046875 4.1875 -3.140625q1.34375 -1.765625 2.046875 -4.90625q0.171875 -0.921875 0.75 -0.921875zm14.78125 8.390625q0 0.640625 -0.453125 1.078125q-0.4375 0.421875 -1.046875 0.421875l-6.5625 0q-0.640625 0 -1.078125 -0.4375q-0.421875 -0.453125 -0.421875 -1.0625l0 -6.328125q0 -0.65625 0.5 -1.109375q0.40625 -0.390625 1.0 -0.390625l6.5625 0q0.6875 0 1.109375 0.5q0.390625 0.4375 0.390625 1.0l0 6.328125zm-1.21875 -5.828125q0 -0.8125 -0.8125 -0.8125l-5.5 0q-0.8125 0 -0.8125 0.8125l0 5.328125q0 0.8125 0.8125 0.8125l5.5 0q0.8125 0 0.8125 -0.8125l0 -5.328125zm14.625 1.828125q0.765625 0 0.765625 0.625q0 0.609375 -0.765625 0.609375l-9.703125 0q-0.765625 0 -0.765625 -0.625q0 -0.609375 0.765625 -0.609375l9.703125 0zm8.09375 -3.203125l4.234375 0q0.40625 0 0.671875 0.296875q0.28125 0.296875 0.28125 0.71875q0 1.21875 -1.0625 3.125q-1.046875 1.890625 -2.40625 3.109375q-1.359375 1.203125 -3.15625 1.84375q-1.78125 0.65625 -2.40625 0.65625q-0.609375 0 -0.609375 -0.625q0 -0.453125 0.71875 -0.59375q2.921875 -0.578125 4.84375 -2.375q1.921875 -1.796875 2.65625 -4.359375l0.0625 -0.3125q0 -0.34375 -0.484375 -0.34375l-3.953125 0q-0.796875 1.359375 -1.859375 2.46875q-1.046875 1.109375 -1.640625 1.109375q-0.578125 0 -0.578125 -0.59375q0 -0.265625 0.40625 -0.578125q2.25 -1.65625 3.359375 -4.546875q0.265625 -0.671875 0.734375 -0.671875q0.578125 0 0.578125 0.53125q0 0.296875 -0.390625 1.140625zm5.359375 -1.546875q0 -0.484375 0.453125 -0.484375q0.453125 0 0.453125 0.484375l0 0.921875q0 0.46875 -0.453125 0.46875q-0.453125 0 -0.453125 -0.46875l0 -0.921875zm-1.484375 0q0 -0.484375 0.453125 -0.484375q0.453125 0 0.453125 0.484375l0 0.921875q0 0.46875 -0.453125 0.46875q-0.453125 0 -0.453125 -0.46875l0 -0.921875zm18.53125 9.359375l3.390625 0q0.625 0 0.625 0.53125q0 0.515625 -0.625 0.515625l-3.921875 0q-0.890625 0 -0.890625 -0.75q0 -0.359375 0.75 -1.203125q2.03125 -2.296875 2.90625 -3.84375q0.453125 -0.796875 0.453125 -1.65625q0 -0.6875 -0.359375 -1.109375q-0.359375 -0.421875 -0.921875 -0.421875q-1.140625 0 -1.359375 1.390625q-0.109375 0.765625 -0.703125 0.765625q-0.640625 0 -0.640625 -0.640625q0 -0.421875 0.28125 -1.015625q0.71875 -1.546875 2.46875 -1.546875q1.15625 0 1.859375 0.703125q0.703125 0.703125 0.703125 1.71875q0 1.71875 -2.390625 4.671875l-1.625 1.890625zm8.0234375 -8.984375q1.53125 0 2.109375 1.359375q0.59375 1.359375 0.59375 3.78125q0 2.703125 -0.671875 3.890625q-0.65625 1.171875 -2.09375 1.171875q-1.421875 0 -2.09375 -1.1875q-0.65625 -1.203125 -0.65625 -3.84375q0 -2.59375 0.609375 -3.875q0.625 -1.296875 2.203125 -1.296875zm-0.078125 1.0625q-1.484375 0 -1.484375 4.046875q0 4.046875 1.5 4.046875q1.5 0 1.5 -4.078125q0 -4.015625 -1.515625 -4.015625zm6.5859375 0.796875q-0.65625 0.765625 -1.09375 0.765625q-0.625 0 -0.625 -0.625q0 -0.359375 0.453125 -0.609375q0.515625 -0.34375 1.265625 -1.15625q0.203125 -0.234375 0.515625 -0.234375q0.734375 0 0.734375 0.765625l0 8.671875q0 0.765625 -0.625 0.765625q-0.625 0 -0.625 -0.765625l0 -7.578125zm5.6640625 2.90625q-1.578125 -0.625 -1.578125 -2.234375q0 -1.0625 0.734375 -1.796875q0.734375 -0.734375 1.9375 -0.734375q1.21875 0 1.9375 0.75q0.734375 0.734375 0.734375 1.78125q0 1.625 -1.5625 2.234375q1.828125 0.703125 1.828125 2.59375q0 1.25 -0.765625 2.046875q-0.765625 0.796875 -2.15625 0.796875q-1.40625 0 -2.171875 -0.796875q-0.75 -0.8125 -0.75 -2.046875q0 -1.890625 1.8125 -2.59375zm1.078125 -3.734375q-1.484375 0 -1.484375 1.578125q0 0.734375 0.4375 1.171875q0.453125 0.421875 1.0625 0.421875q0.671875 0 1.078125 -0.453125q0.421875 -0.453125 0.421875 -1.15625q0 -1.5625 -1.515625 -1.5625zm0 4.265625q-0.703125 0 -1.1875 0.53125q-0.484375 0.53125 -0.484375 1.484375q0 1.875 1.6875 1.875q1.703125 0 1.703125 -1.9375q0 -0.90625 -0.515625 -1.421875q-0.5 -0.53125 -1.203125 -0.53125z" fill-rule="nonzero"/><path fill="#000000" fill-opacity="0.0" d="m19.498688 455.10236l269.70078 0l0 42.04724l-269.70078 0z" fill-rule="evenodd"/><path fill="#000000" d="m39.389313 468.82175q0.546875 -0.828125 0.984375 -1.78125q0.4375 -0.96875 0.90625 -0.96875q0.703125 0 0.703125 0.6875q0 0.5 -1.234375 2.0625l0.375 0q1.484375 -0.03125 1.390625 1.421875l0 3.625q0.09375 1.46875 -1.390625 1.421875l-4.03125 0l0 1.3125l6.0 0q0.765625 0 0.765625 0.640625q0 0.640625 -0.765625 0.640625l-6.0 0l0 2.046875q0 0.8125 -0.65625 0.8125q-0.65625 0 -0.65625 -0.8125l0 -2.046875l-5.859375 0q-0.78125 0 -0.78125 -0.640625q0 -0.640625 0.78125 -0.640625l5.859375 0l0 -1.3125l-3.875 0q-1.484375 0.03125 -1.390625 -1.421875l0 -3.625q-0.09375 -1.453125 1.390625 -1.421875l7.484375 0zm-3.609375 3.75l-3.953125 0l0 0.9375q0.015625 0.59375 0.609375 0.609375l3.34375 0l0 -1.546875zm1.3125 0l0 1.546875l3.5 0q0.59375 -0.015625 0.609375 -0.609375l0 -0.9375l-4.109375 0zm-1.3125 -1.109375l0 -1.46875l-3.34375 0q-0.59375 0.015625 -0.609375 0.609375l0 0.859375l3.953125 0zm1.3125 0l4.109375 0l0 -0.859375q-0.015625 -0.59375 -0.609375 -0.609375l-3.5 0l0 1.46875zm-6.15625 -5.390625q0.34375 0 1.1875 1.015625q0.484375 0.640625 0.484375 0.84375q0 0.6875 -0.703125 0.6875q-0.390625 0 -0.796875 -0.59375q-0.390625 -0.59375 -0.609375 -0.875q-0.21875 -0.296875 -0.21875 -0.453125q0 -0.625 0.65625 -0.625zm4.609375 -0.046875q0.390625 0 1.0 0.84375q0.625 0.84375 0.625 1.078125q0 0.6875 -0.703125 0.6875q-0.421875 0 -0.765625 -0.546875q-0.328125 -0.546875 -0.53125 -0.828125q-0.296875 -0.40625 -0.296875 -0.59375q0 -0.640625 0.671875 -0.640625zm13.0 3.78125l0 10.140625q0 0.796875 -0.65625 0.796875q-0.65625 0 -0.65625 -0.796875l0 -7.515625l-0.125 0.203125q-1.0 1.796875 -1.375 1.796875q-0.59375 0 -0.59375 -0.75q0 -0.265625 0.53125 -1.125q1.640625 -2.640625 2.625 -5.71875q0.21875 -0.8125 0.75 -0.8125q0.765625 0 0.765625 0.640625q0 0.28125 -1.25 3.09375l-0.015625 0.046875zm5.015625 -0.78125l0 -2.015625q0 -0.90625 0.734375 -0.90625q0.71875 0 0.71875 0.90625l0 2.015625l3.8125 0q0.765625 0 0.765625 0.6875q0 0.6875 -0.765625 0.6875l-8.703125 0q-0.765625 0 -0.765625 -0.6875q0 -0.6875 0.765625 -0.6875l3.4375 0zm1.578125 9.578125l0.0625 -0.28125q0.578125 -2.328125 1.03125 -5.078125q0.234375 -1.4375 0.375 -1.78125q0.140625 -0.359375 0.65625 -0.359375q0.734375 0 0.734375 0.71875l-0.0625 0.375q-0.578125 3.171875 -1.4375 6.21875l-0.0625 0.1875l2.65625 0q0.765625 0 0.765625 0.6875q0 0.6875 -0.765625 0.6875l-9.25 0q-0.75 0 -0.75 -0.6875q0 -0.6875 0.75 -0.6875l5.296875 0zm-3.890625 -6.9375q0.46875 0 0.6875 0.578125q0.21875 0.578125 0.484375 1.6875l0.546875 2.625q0.09375 0.328125 0.09375 0.515625q0 0.703125 -0.734375 0.703125q-0.53125 0 -0.671875 -0.53125l-0.5625 -2.65625l-0.53125 -2.28125q0 -0.640625 0.6875 -0.640625zm17.28125 4.25q0.453125 0 0.78125 0.34375q0.328125 0.34375 0.328125 0.78125q0 0.484375 -0.34375 0.8125q-0.34375 0.328125 -0.796875 0.328125q-0.46875 0 -0.796875 -0.34375q-0.328125 -0.34375 -0.328125 -0.796875q0 -0.453125 0.328125 -0.78125q0.34375 -0.34375 0.828125 -0.34375zm0 -7.359375q0.4375 0 0.765625 0.34375q0.34375 0.328125 0.34375 0.796875q0 0.46875 -0.34375 0.796875q-0.34375 0.328125 -0.796875 0.328125q-0.46875 0 -0.796875 -0.34375q-0.328125 -0.34375 -0.328125 -0.796875q0 -0.453125 0.328125 -0.78125q0.34375 -0.34375 0.828125 -0.34375zm20.515625 -0.1875l-0.125 0.4375l-0.34375 1.0625l2.6875 0q0.59375 0 0.59375 0.515625q0 0.515625 -0.59375 0.515625l-9.84375 0q-0.59375 0 -0.59375 -0.515625q0 -0.515625 0.59375 -0.515625l2.203125 0l-0.125 -0.375l-0.109375 -0.390625l-0.125 -0.359375l-0.109375 -0.375l-1.015625 0q-0.59375 0 -0.59375 -0.515625q0 -0.515625 0.59375 -0.515625l3.3125 0l0 -0.71875q0 -0.59375 0.671875 -0.59375q0.65625 0 0.65625 0.59375l0 0.71875l3.765625 0q0.59375 0 0.59375 0.515625q0 0.515625 -0.59375 0.515625l-1.5 0zm-1.28125 0l-3.421875 0l0.4375 1.421875l0.03125 0.078125l2.578125 0l0.03125 -0.0625l0.34375 -1.4375zm-7.453125 1.359375l0 10.25q0 0.765625 -0.640625 0.765625q-0.625 0 -0.625 -0.765625l0 -7.46875q-0.96875 1.890625 -1.359375 1.890625q-0.546875 0 -0.546875 -0.609375q0 -0.28125 0.359375 -0.859375q1.515625 -2.4375 2.484375 -6.078125q0.21875 -0.828125 0.765625 -0.828125q0.625 0 0.625 0.625q0 0.34375 -1.0625 3.078125zm8.9375 1.859375q1.25 0.015625 1.25 1.25l0 1.90625q0 1.25 -1.25 1.25l-6.046875 0q-1.234375 -0.015625 -1.234375 -1.203125l0 -1.96875q-0.015625 -1.234375 1.265625 -1.234375l6.015625 0zm-6.09375 2.609375l0 0.484375q0.015625 0.421875 0.4375 0.4375l5.234375 0q0.421875 -0.015625 0.4375 -0.453125l0 -0.46875l-6.109375 0zm0 -0.859375l6.109375 0l0 -0.421875q-0.015625 -0.4375 -0.4375 -0.453125l-5.234375 0q-0.4375 0.015625 -0.4375 0.4375l0 0.4375zm0.421875 3.90625q0 -0.71875 0.59375 -0.71875q0.578125 0 0.578125 0.71875l0 1.5q0.015625 0.390625 0.484375 0.40625l0.859375 0.03125l0.421875 0l1.171875 -0.0625q0.34375 0.015625 0.375 -0.40625l0 -0.328125q0 -0.5625 0.609375 -0.5625q0.625 0 0.625 0.640625q0 1.203125 -0.625 1.5625q-0.46875 0.265625 -2.984375 0.265625q-1.265625 0 -1.625 -0.140625q-0.484375 -0.203125 -0.484375 -0.828125l0 -2.078125zm-1.546875 -0.4375q0.546875 0 0.546875 0.5625q0 0.65625 -0.578125 2.109375q-0.265625 0.671875 -0.6875 0.671875q-0.578125 0 -0.578125 -0.546875q0 -0.140625 0.140625 -0.390625q0.46875 -0.953125 0.625 -1.890625q0.078125 -0.515625 0.53125 -0.515625zm7.796875 -0.125q0.40625 0 1.1875 1.203125q0.796875 1.375 0.796875 1.53125q0 0.5625 -0.625 0.5625q-0.375 0 -0.6875 -0.609375q-0.546875 -1.0 -1.09375 -1.828125q-0.15625 -0.21875 -0.15625 -0.375q0 -0.484375 0.578125 -0.484375zm-3.59375 -0.5q0.25 0 0.703125 0.515625q0.46875 0.5 0.46875 0.703125q0 0.515625 -0.5625 0.515625q-0.265625 0 -0.71875 -0.53125q-0.4375 -0.546875 -0.4375 -0.71875q0 -0.484375 0.546875 -0.484375zm14.8125 -6.296875l0.015625 0.046875q0.578125 2.859375 2.171875 5.140625q1.59375 2.265625 3.828125 3.5q0.796875 0.4375 0.796875 0.921875q0 0.34375 -0.265625 0.59375q-0.25 0.265625 -0.53125 0.265625q-0.53125 0 -1.8125 -0.921875q-3.390625 -2.4375 -4.703125 -6.671875q-0.625 2.328125 -2.03125 4.1875q-1.390625 1.859375 -3.375 3.015625q-0.859375 0.5 -1.21875 0.5q-0.3125 0 -0.5625 -0.28125q-0.21875 -0.234375 -0.21875 -0.5625q0 -0.453125 0.828125 -0.90625q5.734375 -3.140625 5.734375 -10.484375l-0.015625 -0.765625l0 -0.296875q0 -0.984375 0.765625 -0.984375q0.78125 0 0.78125 0.71875q-0.0625 1.921875 -0.1875 2.984375z" fill-rule="nonzero"/></g></svg>