<svg version="1.1" viewBox="0.0 0.0 960.0 540.0" fill="none" stroke="none" stroke-linecap="square" stroke-miterlimit="10" xmlns:xlink="http://www.w3.org/1999/xlink" xmlns="http://www.w3.org/2000/svg"><clipPath id="p.0"><path d="m0 0l960.0 0l0 540.0l-960.0 0l0 -540.0z" clip-rule="nonzero"/></clipPath><g clip-path="url(#p.0)"><path fill="#ffffff" d="m0 0l960.0 0l0 540.0l-960.0 0z" fill-rule="evenodd"/><path fill="#000000" fill-opacity="0.0" d="m51.27034 121.19685l345.60632 0l0 345.60632l-345.60632 0z" fill-rule="evenodd"/><path stroke="#000000" stroke-width="1.0" stroke-linejoin="round" stroke-linecap="butt" d="m51.27034 121.19685l345.60632 0l0 345.60632l-345.60632 0z" fill-rule="evenodd"/><path fill="#000000" d="m154.22974 281.25937l0.234375 -29.999985l-1.171875 0.234375q-23.203125 3.75 -28.359375 3.75q-10.078125 0 -10.078125 -9.375q0 -8.203125 11.484375 -9.140625q29.765625 -2.34375 57.65625 -11.484375l5.390625 -0.9375q9.375 0 9.375 9.375q0 7.265625 -25.546875 13.59375l-0.234375 33.98436l35.390625 0l0 -54.60936q0 -11.25 10.078125 -11.25q9.84375 0 9.84375 11.25l0 54.60936l27.421875 0q21.09375 -0.703125 20.15625 23.203125q0.703125 33.75 10.421875 53.09375q9.734375 19.328125 20.28125 19.328125q6.5625305 0 7.2656555 -15.703125q0.234375 -11.015625 10.546875 -11.015625q10.078125 0 10.078125 10.078125q0 15.703125 -6.453125 27.0625q-6.4375 11.375 -18.390625 11.375q-20.15628 0 -36.453156 -24.609375q-16.28125 -24.609375 -16.515625 -63.28125q0.234375 -10.3125 -7.265625 -10.546875l-21.09375 0l0 88.125q0 11.25 -9.84375 11.25q-10.078125 0 -10.078125 -11.25l0 -88.125l-35.625 0q-0.46875 31.40625 -6.21875 51.09375q-5.734375 19.6875 -20.265625 33.75q-14.53125 14.0625 -23.4375 14.0625q-9.375 0 -9.375 -10.546875q0 -5.625 7.96875 -10.3125q26.953125 -15.46875 30.9375 -52.96875l1.640625 -25.078125l-27.1875 0q-11.71875 0 -11.71875 -9.375q0 -9.609375 11.71875 -9.609375l27.421875 0zm101.015625 -92.10936q19.453125 -1.171875 19.453125 19.921875q1.171875 26.953125 12.1875 43.359375q11.015625 16.406235 22.265656 16.406235q6.796875 0 6.796875 -11.953125q0 -9.60936 9.375 -9.60936q9.140625 0 9.140625 9.60936q0 13.59375 -5.75 23.09375q-5.734375 9.484375 -16.75 9.484375q-21.09378 0 -37.15628 -20.96875q-16.046875 -20.98436 -18.390625 -50.281235q-0.703125 -9.375 -7.96875 -9.375l-113.671875 0q-11.953125 0 -11.953125 -9.84375q0 -9.84375 11.953125 -9.84375l120.46875 0zm41.25 130.54686q3.984375 0 13.8281555 7.734375q9.84375 7.734375 9.84375 12.1875q0 8.4375 -9.140625 8.4375q-3.9844055 0 -8.6719055 -4.6875l-7.265625 -6.328125q-7.265625 -6.328125 -7.265625 -9.609375q0 -7.734375 8.671875 -7.734375zm8.90625 -135.46873q9.1406555 0 9.1406555 9.140625q0 4.21875 -10.6719055 13.484375q-10.65625 9.25 -14.640625 9.25q-8.4375 0 -8.4375 -8.203125q0 -3.75 6.796875 -9.375q0.703125 -0.234375 7.140625 -7.265625q6.453125 -7.03125 10.671875 -7.03125zm-10.546875 36.796875q5.390625 0 20.390656 10.546875q4.6875 3.28125 4.6875 7.265625q0 9.375 -9.140625 9.375q-2.8125 0 -8.3281555 -4.21875q-5.5 -4.21875 -8.078125 -5.625q-8.4375 -5.15625 -8.4375 -9.375q0 -7.96875 8.90625 -7.96875zm5.625 68.437485q8.2031555 0 8.2031555 7.96875q0 3.984375 -7.6250305 11.84375q-7.609375 7.84375 -12.296875 7.84375q-7.734375 0 -7.734375 -7.96875q0 -3.28125 4.453125 -7.734375l6.328125 -6.5625q4.921875 -5.390625 8.671875 -5.390625z" fill-rule="nonzero"/><g filter="url(#shadowFilter-p.1)"><use xlink:href="#p.1" transform="matrix(1.0 0.0 0.0 1.0 0.0 2.0)"/></g><defs><filter id="shadowFilter-p.1" filterUnits="userSpaceOnUse"><feGaussianBlur in="SourceAlpha" stdDeviation="2.0" result="blur"/><feComponentTransfer in="blur" color-interpolation-filters="sRGB"><feFuncR type="linear" slope="0" intercept="0.0"/><feFuncG type="linear" slope="0" intercept="0.0"/><feFuncB type="linear" slope="0" intercept="0.0"/><feFuncA type="linear" slope="0.5" intercept="0"/></feComponentTransfer></filter></defs><g id="p.1"><path fill="#942a2a" d="m573.8478 128.11023l331.77954 0l0 331.77954l-331.77954 0z" fill-rule="evenodd"/><path stroke="#942a2a" stroke-width="1.0" stroke-linejoin="round" stroke-linecap="butt" d="m573.8478 128.11023l331.77954 0l0 331.77954l-331.77954 0z" fill-rule="evenodd"/><path fill="#ffffff" d="m766.92505 266.9625q21.5625 -20.625 40.3125 -52.5q9.375 8.4375 20.625 17.8125q-9.375 4.6875 -21.5625 17.8125q-12.1875 13.125 -23.4375 25.3125q17.8125 12.1875 26.25 17.34375q8.4375 5.15625 23.4375 15.46875q-8.4375 7.5 -15.0 18.75q-9.375 -9.375 -23.4375 -20.15625q-14.0625 -10.78125 -26.25 -19.21875q0.9375 19.6875 5.625 36.5625q4.6875 16.875 14.0625 30.46875q9.375 13.59375 19.6875 18.75q10.3125 5.15625 13.59375 -2.34375q3.28125 -7.5 5.15625 -23.4375q10.3125 7.5 20.625 12.1875q-6.5625 23.4375 -13.125 32.34375q-6.5625 8.90625 -21.5625 6.09375q-15.0 -2.8125 -30.0 -17.34375q-15.0 -14.53125 -22.96875 -38.90625q-7.96875 -24.375 -9.375 -55.3125q-1.40625 -30.9375 -0.46875 -68.4375l-82.5 0q-12.1875 0 -28.125 0.9375l0 -18.75q15.9375 0.9375 27.1875 0.9375l103.125 0q-1.875 18.75 -1.875 34.6875l0 30.9375z" fill-rule="nonzero"/></g><g filter="url(#shadowFilter-p.2)"><use xlink:href="#p.2" transform="matrix(1.0 0.0 0.0 1.0 0.0 2.0)"/></g><defs><filter id="shadowFilter-p.2" filterUnits="userSpaceOnUse"><feGaussianBlur in="SourceAlpha" stdDeviation="2.0" result="blur"/><feComponentTransfer in="blur" color-interpolation-filters="sRGB"><feFuncR type="linear" slope="0" intercept="0.0"/><feFuncG type="linear" slope="0" intercept="0.0"/><feFuncB type="linear" slope="0" intercept="0.0"/><feFuncA type="linear" slope="0.5" intercept="0"/></feComponentTransfer></filter></defs><g id="p.2"><path fill="#942a2a" d="m515.0786 294.4567l-61.385834 61.385834l-0.9133911 -123.68504z" fill-rule="evenodd"/><path stroke="#942a2a" stroke-width="1.0" stroke-linejoin="round" stroke-linecap="butt" d="m515.0786 294.4567l-61.385834 61.385834l-0.9133911 -123.68504z" fill-rule="evenodd"/></g><path fill="#000000" fill-opacity="0.0" d="m51.27034 37.057743l305.7323 0l0 61.38583l-305.7323 0z" fill-rule="evenodd"/><path fill="#000000" d="m89.567215 85.442116l-17.96875 0q-4.953125 0.3125 -4.640625 -4.65625l0 -23.046875q-0.078125 -2.390625 1.25 -3.671875q1.25 -0.984375 3.234375 -0.984375l18.125 0q2.34375 -0.078125 3.671875 1.25q0.984375 1.21875 0.984375 3.25l0 23.203125q0.3125 4.96875 -4.65625 4.65625zm-18.9375 -18.140625l19.921875 0l0 -8.4375q-0.046875 -2.1875 -2.265625 -2.265625l-15.390625 0q-2.265625 0.078125 -2.265625 2.34375l0 8.359375zm0 3.4375l0 8.90625q0.078125 2.265625 2.34375 2.265625l15.3125 0q2.1875 -0.03125 2.265625 -2.265625l0 -8.90625l-19.921875 0zm52.375 -9.140625q2.03125 4.375 5.921875 8.65625q3.890625 4.28125 8.1875 6.78125q1.5625 0.890625 1.5625 2.0625q0 2.03125 -1.875 2.03125q-1.796875 0 -6.671875 -4.953125q-4.859375 -4.96875 -8.296875 -11.40625l0 12.96875l6.328125 0q1.796875 0 1.796875 1.671875q0 1.640625 -1.796875 1.640625l-6.328125 0l0 4.5q0 2.109375 -1.75 2.109375q-1.71875 0 -1.71875 -2.109375l0 -4.5l-6.015625 0q-1.796875 0 -1.796875 -1.671875q0 -1.640625 1.796875 -1.640625l6.015625 0l0 -13.046875l-0.15625 0.3125q-3.09375 5.734375 -8.015625 11.03125q-4.921875 5.296875 -6.4375 5.296875q-1.875 0 -1.875 -1.953125q0 -1.09375 1.28125 -2.0q4.1875 -2.921875 8.09375 -7.53125q3.90625 -4.609375 5.625 -8.25l-12.3125 0q-2.140625 0 -2.140625 -1.75q0 -1.765625 2.140625 -1.765625l13.796875 0l0 -5.03125q0 -2.1875 1.75 -2.1875q1.71875 0 1.71875 2.1875l0 5.03125l14.140625 0q2.1875 0 2.1875 1.765625q0 1.75 -2.1875 1.75l-12.96875 0zm37.734375 6.40625l1.0625 -5.46875l-2.46875 0q-1.5625 0 -1.5625 -1.40625q0 -1.40625 1.5625 -1.40625l2.890625 0l0.46875 -3.28125l0.046875 -0.578125l-4.296875 0q-1.765625 0 -1.765625 -1.484375q0 -1.453125 1.765625 -1.453125l17.453125 0q1.796875 0 1.796875 1.484375q0 1.453125 -1.796875 1.453125l-9.953125 0l-0.078125 0.46875l-0.515625 3.390625l5.9375 0q3.75 -0.1875 3.515625 3.484375l0 4.796875l2.421875 0q1.453125 0 1.453125 1.484375q0 1.453125 -1.453125 1.453125l-19.875 0q-1.765625 0 -1.765625 -1.484375q0 -1.453125 1.765625 -1.453125l3.390625 0zm3.09375 0l7.84375 0l0 -4.171875q-0.03125 -1.25 -1.25 -1.296875l-5.546875 0l-1.046875 5.46875zm-2.15625 5.75l11.375 0q3.671875 -0.203125 3.4375 3.46875l0 5.671875q0.234375 3.71875 -3.4375 3.484375l-11.375 0q-3.625 0.1875 -3.390625 -3.453125l0 -5.78125q-0.234375 -3.625 3.390625 -3.390625zm0.984375 9.71875l9.328125 0q1.25 -0.03125 1.296875 -1.28125l0 -4.265625q-0.046875 -1.25 -1.296875 -1.28125l-9.328125 0q-1.21875 0.03125 -1.25 1.25l0 4.328125q0.03125 1.21875 1.25 1.25zm-10.984375 -9.375q3.28125 0 3.28125 3.203125l0 5.46875q0 3.21875 -3.28125 3.21875l-4.84375 0q-3.28125 0 -3.28125 -3.140625l0 -5.546875q0 -3.203125 3.28125 -3.203125l4.84375 0zm0.390625 8.171875l0 -4.453125q-0.03125 -1.0625 -1.046875 -1.0625l-3.515625 0q-1.015625 0 -1.0625 1.0625l0 4.453125q0.046875 1.046875 1.0625 1.046875l3.515625 0q1.015625 0 1.046875 -1.046875zm-7.03125 -26.765625q-1.71875 0 -1.71875 -1.4375q0 -1.453125 1.71875 -1.453125l8.359375 0q1.765625 0 1.765625 1.453125q0 1.4375 -1.765625 1.4375l-8.359375 0zm-1.40625 5.4375q-1.75 0 -1.75 -1.4375q0 -1.453125 1.75 -1.453125l11.0625 0q1.75 0 1.75 1.453125q0 1.4375 -1.75 1.4375l-11.0625 0zm1.53125 5.265625q-1.6875 0 -1.6875 -1.40625q0 -1.359375 1.6875 -1.359375l8.125 0q1.671875 0 1.671875 1.40625q0 1.359375 -1.671875 1.359375l-8.125 0zm0.078125 5.359375q-1.765625 0 -1.765625 -1.375q0 -1.40625 1.6875 -1.40625l8.125 0q1.671875 0 1.671875 1.40625q0 1.375 -1.671875 1.375l-8.046875 0z" fill-rule="nonzero"/><path fill="#000000" fill-opacity="0.0" d="m573.8478 37.057743l305.7323 0l0 61.38583l-305.7323 0z" fill-rule="evenodd"/><path fill="#000000" d="m604.64465 76.05149l0 9.625q0 1.984375 -1.796875 1.984375q-1.75 0 -1.75 -1.984375l0 -9.625l-10.203125 0q-4.71875 0.28125 -4.484375 -4.53125l0 -8.984375q-0.234375 -4.84375 4.484375 -4.53125l10.203125 0l0 -5.15625q0 -1.984375 1.75 -1.984375q1.796875 0 1.796875 1.984375l0 5.15625l10.59375 0q4.71875 -0.265625 4.484375 4.53125l0 8.984375q0.234375 4.8125 -4.484375 4.53125l-10.59375 0zm0 -14.609375l0 11.171875l9.34375 0q2.1875 0 2.1875 -2.1875l0 -6.796875q0 -2.1875 -2.1875 -2.1875l-9.34375 0zm-3.546875 0l-8.953125 0q-2.1875 0 -2.1875 2.1875l0 6.796875q0 2.1875 2.1875 2.1875l8.953125 0l0 -11.171875zm42.96875 0.4375l0 5.0l6.171875 0q1.671875 0 1.671875 1.484375q0 1.4375 -1.671875 1.4375l-6.171875 0l0 6.6875l9.140625 0q1.71875 0 1.71875 1.484375q0 1.484375 -1.71875 1.484375l-20.4375 0q-1.671875 0 -1.671875 -1.484375q0 -1.484375 1.671875 -1.484375l8.09375 0l0 -6.6875l-5.703125 0q-1.6875 0 -1.6875 -1.484375q0 -1.4375 1.6875 -1.4375l5.703125 0l0 -5.0l-7.0 0q-1.671875 0 -1.671875 -1.484375q0 -1.484375 1.671875 -1.484375l18.015625 0q1.71875 0 1.71875 1.484375q0 1.484375 -1.71875 1.484375l-7.8125 0zm5.3125 8.828125q0.734375 0 1.609375 1.3125q0.890625 1.296875 0.890625 1.96875q0 1.28125 -1.609375 1.28125q-0.8125 0 -1.34375 -0.96875q-0.53125 -0.984375 -0.875 -1.5625q-0.234375 -0.4375 -0.234375 -0.703125q0 -1.328125 1.5625 -1.328125zm6.328125 15.4375l-25.203125 0q-4.53125 0.234375 -4.25 -4.34375l0 -25.078125q-0.234375 -4.578125 4.25 -4.34375l25.203125 0q4.53125 -0.234375 4.25 4.34375l0 25.078125q0.234375 4.578125 -4.25 4.34375zm-1.140625 -3.140625q2.078125 0 2.078125 -2.03125l0 -23.390625q0 -2.078125 -2.078125 -2.078125l-22.921875 0q-2.078125 0 -2.078125 2.078125l0 23.390625q0 2.03125 2.078125 2.03125l22.921875 0zm28.75 -15.0l1.0625 -5.46875l-2.46875 0q-1.5625 0 -1.5625 -1.40625q0 -1.40625 1.5625 -1.40625l2.890625 0l0.46875 -3.28125l0.046875 -0.578125l-4.296875 0q-1.765625 0 -1.765625 -1.484375q0 -1.453125 1.765625 -1.453125l17.453125 0q1.796875 0 1.796875 1.484375q0 1.453125 -1.796875 1.453125l-9.953125 0l-0.078125 0.46875l-0.515625 3.390625l5.9375 0q3.75 -0.1875 3.515625 3.484375l0 4.796875l2.421875 0q1.453125 0 1.453125 1.484375q0 1.453125 -1.453125 1.453125l-19.875 0q-1.765625 0 -1.765625 -1.484375q0 -1.453125 1.765625 -1.453125l3.390625 0zm3.09375 0l7.84375 0l0 -4.171875q-0.03125 -1.25 -1.25 -1.296875l-5.546875 0l-1.046875 5.46875zm-2.15625 5.75l11.375 0q3.671875 -0.203125 3.4375 3.46875l0 5.671875q0.234375 3.71875 -3.4375 3.484375l-11.375 0q-3.625 0.1875 -3.390625 -3.453125l0 -5.78125q-0.234375 -3.625 3.390625 -3.390625zm0.984375 9.71875l9.328125 0q1.25 -0.03125 1.296875 -1.28125l0 -4.265625q-0.046875 -1.25 -1.296875 -1.28125l-9.328125 0q-1.21875 0.03125 -1.25 1.25l0 4.328125q0.03125 1.21875 1.25 1.25zm-10.984375 -9.375q3.28125 0 3.28125 3.203125l0 5.46875q0 3.21875 -3.28125 3.21875l-4.84375 0q-3.28125 0 -3.28125 -3.140625l0 -5.546875q0 -3.203125 3.28125 -3.203125l4.84375 0zm0.390625 8.171875l0 -4.453125q-0.03125 -1.0625 -1.046875 -1.0625l-3.515625 0q-1.015625 0 -1.0625 1.0625l0 4.453125q0.046875 1.046875 1.0625 1.046875l3.515625 0q1.015625 0 1.046875 -1.046875zm-7.03125 -26.765625q-1.71875 0 -1.71875 -1.4375q0 -1.453125 1.71875 -1.453125l8.359375 0q1.765625 0 1.765625 1.453125q0 1.4375 -1.765625 1.4375l-8.359375 0zm-1.40625 5.4375q-1.75 0 -1.75 -1.4375q0 -1.453125 1.75 -1.453125l11.0625 0q1.75 0 1.75 1.453125q0 1.4375 -1.75 1.4375l-11.0625 0zm1.53125 5.265625q-1.6875 0 -1.6875 -1.40625q0 -1.359375 1.6875 -1.359375l8.125 0q1.671875 0 1.671875 1.40625q0 1.359375 -1.671875 1.359375l-8.125 0zm0.078125 5.359375q-1.765625 0 -1.765625 -1.375q0 -1.40625 1.6875 -1.40625l8.125 0q1.671875 0 1.671875 1.40625q0 1.375 -1.671875 1.375l-8.046875 0z" fill-rule="nonzero"/></g></svg>